<svg version="1.0" xmlns="http://www.w3.org/2000/svg" width="500.000000pt" height="500.000000pt"
     viewBox="0 0 900.000000 900.000000" preserveAspectRatio="xMidYMid meet">
    <g transform="translate(0.000000,900.000000) scale(0.100000,-0.100000)" fill="var(--foreground-color)" stroke="none">
        <path
                d="M5209 8013 c-43 -39 -69 -89 -69 -134 0 -48 -36 -78 -115 -94 -38 -8 -87 -15 -108 -15 -21 0 -93 -9 -160 -21 -161 -28 -246 -74 -259 -139 -3 -14 -9 -32 -12 -42 -5 -11 5 -29 36 -60 34 -35 55 -47 100 -58 55 -12 62 -12 142 14 132 43 259 45 217 3 -19 -19 -12 -27 23 -27 18 0 39 -7 46 -15 7 -8 18 -15 26 -15 7 0 17 -6 21 -14 4 -7 28 -35 52 -62 24 -27 47 -59 52 -71 8 -21 29 -32 29 -15 3 90 2 384 -1 387 -3 2 -36 0 -74 -5 -39 -6 -131 -17 -205 -25 -74 -9 -170 -20 -213 -26 -76 -11 -77 -12 -60 -31 15 -17 15 -21 3 -28 -30 -19 -61 -9 -73 24 -6 15 -10 16 -22 6 -25 -21 -47 -4 -43 32 3 32 5 33 58 39 53 6 125 19 220 39 54 12 261 30 348 30 42 0 62 4 63 13 1 6 0 72 -1 145 l-2 132 24 0 c46 0 48 -7 39 -145 -5 -72 -7 -133 -4 -137 2 -5 32 -8 66 -8 87 0 293 -18 347 -30 25 -5 68 -14 95 -19 28 -5 77 -16 110 -24 33 -9 83 -21 110 -27 28 -7 54 -16 60 -21 5 -5 18 -9 30 -9 11 0 33 -7 49 -15 15 -8 33 -15 38 -15 5 0 30 -9 56 -21 26 -11 56 -24 67 -28 78 -32 176 -79 275 -133 107 -58 130 -73 130 -80 0 -5 5 -8 10 -8 12 0 73 -41 78 -52 2 -5 8 -8 13 -8 9 0 146 -102 210 -156 84 -72 311 -308 374 -389 38 -49 72 -92 75 -95 4 -3 30 -41 58 -85 28 -44 58 -89 67 -100 8 -10 15 -23 15 -27 0 -4 17 -36 38 -70 40 -68 88 -164 122 -243 11 -27 25 -58 30 -67 6 -10 10 -23 10 -29 0 -6 6 -25 14 -42 8 -18 24 -63 37 -102 12 -38 28 -89 35 -113 8 -23 14 -54 14 -67 0 -13 4 -26 9 -29 5 -4 12 -30 16 -59 3 -28 10 -63 15 -77 13 -36 32 -205 39 -349 l6 -124 345 -1 345 -1 3 -32 c2 -22 -1 -33 -10 -33 -29 -1 -625 2 -653 4 l-30 1 -6 -120 c-7 -141 -26 -310 -39 -345 -4 -14 -12 -47 -15 -75 -4 -27 -10 -54 -15 -60 -4 -5 -11 -32 -15 -59 -3 -27 -10 -56 -15 -65 -4 -9 -18 -50 -30 -91 -13 -41 -27 -79 -31 -85 -5 -5 -9 -15 -9 -23 0 -7 -9 -34 -21 -60 -11 -26 -24 -56 -28 -67 -59 -145 -254 -486 -300 -525 -3 -3 -19 -23 -34 -46 -15 -22 -35 -49 -45 -60 -9 -11 -33 -39 -53 -64 -50 -62 -244 -257 -304 -305 -27 -22 -59 -48 -70 -57 -11 -9 -35 -27 -54 -40 -19 -13 -36 -28 -38 -34 -2 -7 10 -27 27 -45 18 -19 36 -43 41 -54 11 -23 27 -50 52 -84 18 -24 22 -67 9 -87 -4 -7 -16 -13 -27 -15 -25 -5 -31 -41 -10 -59 8 -7 15 -26 15 -42 0 -16 7 -36 15 -44 8 -9 15 -30 15 -47 0 -18 7 -41 15 -51 8 -11 15 -27 15 -37 0 -9 7 -30 15 -45 8 -16 15 -36 15 -46 0 -9 3 -18 8 -20 13 -6 52 -132 52 -168 0 -20 4 -40 9 -45 5 -6 14 -62 20 -125 5 -63 15 -135 20 -160 6 -25 10 -88 11 -141 0 -66 5 -106 15 -125 10 -21 15 -61 15 -136 0 -59 4 -109 9 -112 5 -4 12 -50 16 -104 4 -53 12 -106 17 -116 6 -11 14 -65 19 -120 14 -184 32 -321 40 -327 5 -3 11 -56 13 -118 3 -63 9 -118 15 -124 6 -6 11 -39 11 -74 l0 -63 43 0 44 0 -4 57 c-2 32 -9 79 -14 105 -6 26 -9 51 -6 55 3 5 1 28 -4 53 -5 25 -14 95 -19 155 -5 61 -16 157 -25 215 -9 58 -22 157 -30 220 -8 63 -24 151 -34 195 -11 44 -27 170 -35 280 -39 511 -56 640 -94 727 -10 23 -29 70 -42 103 -12 33 -33 78 -45 100 -43 77 -49 109 -26 153 11 21 23 62 27 90 5 42 2 59 -20 107 -46 101 -47 99 135 280 138 137 261 278 372 426 15 20 27 46 27 58 0 12 6 24 14 27 7 3 27 26 43 52 38 59 103 172 103 178 0 2 20 45 45 95 25 50 42 95 39 101 -3 5 3 18 14 28 22 21 122 312 122 357 0 15 6 40 14 54 7 14 16 37 20 52 13 53 44 254 51 327 8 89 20 133 42 152 12 10 81 14 279 18 l263 5 46 45 c58 57 59 85 8 141 -25 26 -52 43 -78 49 -22 5 -132 10 -245 10 -218 0 -267 7 -288 41 -7 11 -17 59 -23 107 -21 187 -64 403 -109 542 -16 52 -30 100 -30 105 0 10 -104 268 -119 295 -4 8 -29 56 -56 105 -264 500 -662 906 -1161 1183 -61 34 -114 62 -119 62 -4 0 -49 20 -99 44 -220 106 -586 203 -853 225 -94 8 -98 9 -130 45 -22 23 -33 46 -33 65 0 17 -5 43 -12 58 -13 29 -53 73 -67 73 -5 0 -14 7 -21 15 -18 22 -25 19 -71 -22z m-479 -498 c14 -16 6 -35 -16 -35 -8 0 -14 10 -14 25 0 28 12 32 30 10z"/>
        <path
                d="M5287 7493 c2 -76 5 -189 6 -251 l3 -113 -25 3 c-17 2 -27 10 -29 23 -6 42 -280 280 -299 261 -3 -3 6 -25 21 -50 14 -24 26 -58 26 -74 0 -29 2 -30 45 -30 50 1 70 -11 80 -50 15 -60 45 -112 66 -112 11 0 22 7 25 15 10 25 37 16 68 -22 26 -30 28 -37 17 -55 -10 -17 -10 -22 0 -29 8 -4 10 -11 6 -15 -14 -15 -77 -32 -83 -23 -8 14 -24 11 -24 -5 0 -8 7 -16 15 -20 11 -4 15 -21 15 -60 0 -39 4 -55 15 -60 8 -3 15 -13 15 -22 0 -10 7 -25 16 -35 10 -11 13 -25 9 -39 -8 -26 -29 -21 -33 8 -4 27 -28 29 -35 2 -3 -11 -16 -24 -30 -29 -13 -5 -27 -17 -30 -25 -8 -20 -36 -20 -65 0 -15 11 -22 25 -22 50 0 39 -18 51 -50 34 -16 -9 -20 -19 -18 -48 3 -31 0 -37 -16 -37 -13 0 -23 11 -30 32 -16 45 -21 48 -54 24 -17 -12 -35 -21 -42 -21 -18 0 -90 -82 -90 -102 0 -24 -21 -23 -27 2 -8 29 -33 25 -33 -5 0 -35 -28 -33 -32 3 -3 23 -8 27 -41 30 -22 2 -41 10 -44 18 -7 18 -33 19 -33 1 0 -7 5 -18 12 -25 9 -9 9 -12 1 -12 -7 0 -15 -9 -18 -20 -9 -29 -27 -25 -47 11 -19 32 -38 31 -38 -1 0 -33 -22 -35 -48 -5 -19 23 -27 26 -41 18 -11 -7 -23 -8 -32 -2 -26 16 -32 9 -26 -28 4 -22 1 -47 -6 -60 -12 -21 -14 -22 -41 -8 -40 21 -53 19 -68 -12 -16 -34 -32 -33 -36 2 -3 25 -15 31 -72 37 -21 3 -24 8 -22 31 3 24 0 27 -25 27 -22 0 -31 7 -41 33 -30 72 -34 77 -53 66 -21 -11 -24 -25 -9 -34 6 -3 10 -15 10 -26 0 -18 -4 -20 -31 -14 -24 5 -35 2 -50 -14 -24 -25 -41 -19 -37 13 2 16 -9 34 -36 60 -40 37 -60 40 -38 6 13 -21 16 -53 5 -63 -11 -12 -31 13 -26 33 8 30 -33 27 -43 -2 -15 -50 5 -129 22 -85 6 17 35 23 47 10 4 -3 2 -12 -3 -18 -7 -9 1 -16 32 -28 50 -18 163 -47 185 -47 8 0 32 -13 52 -29 20 -16 61 -36 91 -45 60 -17 163 -16 198 3 47 25 112 2 112 -41 0 -25 -44 -58 -77 -58 -25 0 -32 -5 -37 -25 -7 -28 -27 -33 -45 -11 -9 11 -45 15 -145 18 l-133 3 -73 50 c-40 28 -81 56 -90 63 -14 10 -23 10 -44 1 -22 -10 -29 -9 -46 6 -31 28 -107 25 -177 -7 -32 -14 -76 -34 -99 -43 -44 -18 -137 -103 -159 -145 -7 -14 -21 -51 -30 -82 -9 -32 -20 -60 -25 -63 -27 -16 -130 190 -130 259 0 24 -9 72 -20 106 -11 34 -20 72 -20 84 0 20 -1 19 -26 -5 -22 -22 -26 -36 -27 -87 -1 -45 4 -64 17 -77 12 -13 16 -27 12 -46 -3 -18 1 -35 14 -52 11 -14 20 -36 20 -49 0 -13 6 -30 13 -37 7 -7 12 -37 12 -70 0 -43 5 -64 19 -80 14 -15 17 -29 12 -54 -5 -26 -3 -36 9 -41 23 -9 17 -119 -7 -124 -20 -4 -62 38 -88 87 -10 21 -27 41 -36 45 -31 12 -47 -41 -19 -64 8 -7 15 -21 15 -30 0 -32 12 -50 42 -66 24 -13 29 -20 25 -41 -3 -14 1 -37 9 -52 25 -49 44 -94 44 -104 0 -18 41 -97 51 -97 5 0 9 20 9 45 0 34 4 45 16 45 12 0 15 -13 13 -74 -1 -54 2 -80 15 -97 21 -31 20 -47 -5 -68 -19 -15 -20 -18 -5 -30 22 -18 62 -6 69 20 7 26 -12 129 -27 148 -13 16 -21 193 -12 255 4 25 20 64 36 88 16 24 30 55 30 69 0 33 57 159 71 159 8 0 9 15 3 48 -11 68 -8 91 14 115 10 12 22 30 25 39 5 14 19 17 84 17 116 -1 123 0 123 14 0 12 78 54 84 46 20 -32 25 -62 11 -82 -21 -33 -5 -55 29 -39 25 11 26 15 26 103 0 81 2 90 18 87 12 -2 18 -14 19 -43 2 -44 25 -218 29 -223 1 -2 12 1 23 8 17 9 27 7 50 -6 27 -16 31 -16 69 2 36 17 40 22 35 47 -7 35 15 36 47 2 l23 -25 33 20 c33 19 34 19 48 -2 10 -15 21 -19 38 -15 13 3 44 11 70 18 42 11 50 10 68 -6 18 -17 21 -17 55 -1 28 14 35 23 35 46 0 30 22 60 44 60 15 0 46 -32 46 -47 0 -17 46 -53 68 -53 28 0 29 31 3 74 -28 48 -53 156 -43 190 9 34 32 47 32 19 0 -11 7 -28 15 -39 8 -10 15 -26 15 -34 0 -27 61 -145 83 -162 28 -22 34 -22 47 1 8 15 6 28 -9 53 -69 118 -81 158 -47 158 17 0 52 -39 68 -75 23 -52 72 -124 84 -125 13 0 24 22 24 46 0 8 -9 14 -20 14 -11 0 -20 6 -20 14 0 8 -7 16 -15 20 -16 6 -21 56 -6 56 5 0 23 -13 41 -30 18 -16 40 -30 50 -30 13 0 20 -9 22 -27 3 -32 44 -46 54 -19 14 35 91 8 135 -48 18 -23 22 -42 23 -105 1 -64 6 -82 29 -118 15 -24 27 -46 27 -51 0 -5 12 -33 28 -63 26 -52 27 -59 25 -202 -1 -105 -5 -157 -16 -180 -16 -37 -12 -120 7 -114 6 2 14 22 17 44 3 23 10 47 17 55 15 19 32 116 37 213 2 44 7 96 11 115 10 45 12 59 20 148 6 66 9 75 31 83 37 14 50 11 73 -13 26 -27 24 -64 -9 -178 -12 -41 -25 -111 -30 -155 -4 -44 -13 -90 -19 -102 -7 -12 -12 -39 -12 -61 0 -21 -6 -58 -14 -83 -7 -24 -21 -71 -32 -104 -10 -33 -27 -73 -39 -88 -18 -26 -20 -44 -20 -173 0 -79 2 -144 5 -144 3 0 599 0 1325 0 1154 -1 1320 1 1323 14 4 20 -16 241 -33 356 -16 106 -36 206 -60 295 -9 33 -21 78 -26 100 -6 22 -14 44 -20 50 -5 5 -9 18 -9 30 -1 11 -9 38 -20 60 -11 22 -19 46 -20 53 0 7 -4 20 -9 30 -5 9 -40 80 -77 157 -38 77 -71 142 -75 145 -3 3 -9 15 -13 28 -4 12 -12 22 -17 22 -5 0 -9 5 -9 12 0 6 -26 50 -57 96 -32 47 -62 92 -68 101 -5 9 -12 18 -15 21 -3 3 -30 37 -60 75 -56 73 -362 385 -377 385 -4 0 -19 10 -33 23 -25 23 -100 80 -140 107 -12 8 -28 21 -36 28 -7 6 -17 12 -23 12 -5 0 -16 6 -23 13 -19 19 -134 87 -146 87 -6 0 -12 3 -14 8 -3 6 -184 98 -243 123 -11 4 -41 17 -67 28 -26 12 -52 21 -58 21 -5 0 -18 4 -28 9 -27 15 -140 51 -160 51 -10 0 -22 3 -26 8 -13 12 -243 58 -366 72 -47 6 -121 15 -165 20 -44 6 -98 10 -121 10 l-41 0 4 -137z m303 7 c132 -16 297 -49 385 -77 196 -63 263 -87 305 -108 25 -13 79 -38 120 -57 41 -18 97 -48 125 -65 27 -18 53 -33 57 -33 4 0 35 -19 70 -43 35 -24 92 -63 128 -87 74 -51 217 -169 273 -226 61 -63 64 -66 119 -129 189 -213 292 -367 412 -616 136 -284 213 -560 242 -865 7 -70 7 -70 -26 -97 l-32 -27 -1163 2 -1163 3 -27 25 c-24 22 -26 30 -20 70 4 25 18 72 31 106 45 114 68 206 100 414 9 52 19 115 24 140 28 153 29 167 20 199 -5 18 -17 45 -27 60 -24 37 -29 228 -6 288 16 42 12 80 -7 68 -5 -3 -10 -22 -10 -41 0 -24 -5 -34 -15 -34 -12 0 -15 -16 -15 -85 0 -67 -3 -87 -15 -91 -8 -4 -15 -14 -15 -23 0 -9 -14 -29 -31 -46 -25 -24 -32 -27 -39 -15 -14 21 -12 36 5 54 8 8 15 21 15 29 0 8 7 17 15 21 11 4 15 22 15 75 0 77 -15 103 -26 44 -10 -56 -85 -173 -111 -173 -6 0 -25 29 -41 65 -53 111 -160 205 -236 205 -57 0 -216 82 -216 112 0 5 20 21 45 37 40 25 52 28 123 26 42 -1 87 -7 99 -13 33 -18 59 -15 121 17 78 40 142 113 142 163 0 13 7 34 16 46 15 22 17 22 35 6 10 -9 19 -25 19 -35 0 -10 4 -20 9 -23 5 -3 12 -51 16 -106 4 -55 11 -102 15 -105 8 -5 7 -17 -6 -117 -6 -40 -4 -48 10 -48 14 0 16 21 16 185 0 158 -2 185 -15 185 -11 0 -15 12 -15 44 0 30 -5 46 -15 50 -8 3 -15 14 -15 25 0 11 -6 24 -13 28 -6 4 -22 29 -35 56 -16 32 -30 47 -43 47 -24 0 -24 8 -2 33 16 17 17 19 1 28 -10 5 -15 16 -11 25 4 11 15 5 44 -27 22 -23 39 -48 39 -55 0 -7 9 -18 20 -24 11 -6 20 -21 20 -34 0 -13 7 -26 15 -30 8 -3 15 -17 15 -31 0 -16 6 -25 15 -25 20 0 19 15 -5 79 -11 30 -17 58 -14 63 3 4 -9 36 -27 71 -32 61 -33 64 -37 220 -4 154 -3 160 19 183 26 27 50 29 179 14z m-290 -595 c0 -8 -4 -15 -10 -15 -5 0 -10 7 -10 15 0 8 5 15 10 15 6 0 10 -7 10 -15z m-682 -339 c-4 -25 -33 -33 -42 -11 -3 9 -1 25 5 36 8 17 13 18 25 8 8 -7 14 -22 12 -33z m-188 -28 c0 -10 -4 -18 -8 -18 -12 0 -52 57 -45 63 9 10 52 -27 53 -45z m120 -24 c15 -44 6 -87 -18 -82 -14 3 -17 15 -17 61 0 66 17 76 35 21z m-62 -62 c3 -17 -2 -22 -17 -22 -14 0 -21 6 -21 18 0 38 33 41 38 4z m-808 -68 c0 -44 -75 -86 -95 -54 -10 16 13 39 34 33 13 -3 20 2 25 21 8 34 36 34 36 0z m278 -76 c-4 -28 -39 -36 -57 -14 -18 21 -5 36 30 36 26 0 30 -3 27 -22z m51 -105 c-15 -18 -34 -1 -25 22 5 14 9 15 21 5 12 -10 13 -16 4 -27z m-817 -408 c0 -5 -5 -11 -11 -13 -6 -2 -11 4 -11 13 0 9 5 15 11 13 6 -2 11 -8 11 -13z"/>
        <path
                d="M5497 6854 c-13 -13 -8 -44 8 -44 12 0 15 -21 17 -112 2 -78 7 -113 16 -116 15 -5 18 203 2 213 -6 4 -16 20 -23 37 -7 16 -15 26 -20 22z"/>
        <path
                d="M3728 7424 c-6 -5 -139 -21 -259 -30 -37 -3 -83 -1 -102 4 -28 8 -41 6 -64 -7 -33 -21 -103 -96 -103 -112 0 -9 -30 -75 -64 -139 -8 -14 -16 -53 -19 -87 -4 -49 -2 -63 10 -67 20 -8 59 35 68 73 4 17 11 33 16 36 15 10 10 45 -6 45 -8 0 -15 -7 -15 -15 0 -8 -4 -15 -10 -15 -18 0 -10 25 12 39 16 10 23 10 26 2 6 -18 17 -13 56 22 40 37 44 51 21 73 -22 22 -19 32 19 70 41 41 53 42 68 9 9 -20 8 -28 -6 -44 -10 -11 -15 -24 -12 -30 11 -18 -12 -85 -34 -99 -11 -7 -20 -19 -20 -28 0 -8 4 -12 10 -9 6 4 7 -2 1 -17 -4 -13 -17 -25 -27 -26 -24 -5 -84 -70 -84 -92 0 -21 -20 -40 -42 -40 -22 0 -22 -2 -3 -63 34 -111 117 -217 171 -217 14 0 39 7 55 16 23 12 38 13 59 6 28 -10 40 -7 40 10 0 4 -12 8 -26 8 -21 0 -25 4 -22 23 4 27 45 37 54 13 4 -10 18 -16 40 -16 27 0 34 -4 34 -19 0 -11 5 -23 10 -26 6 -3 10 -17 10 -31 0 -36 18 -29 22 9 2 27 8 33 31 35 15 2 34 14 43 27 9 13 24 27 35 30 10 4 19 15 19 25 0 10 20 39 45 66 25 26 45 51 45 56 0 6 9 17 20 26 15 13 17 21 10 32 -9 13 -13 12 -28 -8 -11 -15 -24 -21 -34 -17 -11 4 -18 0 -23 -14 -3 -11 -16 -21 -28 -23 -15 -2 -25 -14 -32 -35 -14 -42 -24 -51 -35 -33 -17 27 -11 51 21 83 27 26 30 36 25 66 -5 32 -2 38 25 54 17 9 39 17 49 17 9 0 23 6 29 14 6 8 26 20 44 27 39 15 77 48 77 66 0 16 -52 17 -68 1 -15 -15 -15 -10 -1 30 6 19 19 32 35 36 17 5 24 13 24 32 0 23 -1 24 -16 10 -8 -9 -22 -16 -30 -16 -8 0 -14 -4 -14 -10 0 -5 -7 -10 -15 -10 -7 0 -18 -6 -22 -13 -4 -8 -23 -22 -41 -32 -36 -21 -37 -37 -3 -45 27 -6 28 -13 2 -48 l-21 -27 -6 23 c-7 23 -28 30 -39 12 -4 -6 -1 -17 5 -25 7 -8 9 -15 4 -15 -5 0 -28 -18 -52 -40 -33 -30 -42 -44 -37 -59 8 -28 -11 -61 -36 -61 -12 0 -34 -9 -51 -21 -28 -20 -28 -22 -12 -40 13 -15 15 -22 6 -31 -17 -17 -35 4 -35 41 0 21 14 49 46 90 26 33 47 68 47 79 0 11 11 27 25 36 29 19 34 39 8 29 -25 -9 -73 -56 -73 -70 0 -7 -4 -13 -9 -13 -5 0 -11 -9 -14 -20 -3 -13 -14 -20 -30 -20 -28 0 -59 -31 -57 -57 1 -10 2 -35 1 -55 -1 -34 -4 -38 -26 -38 -14 0 -25 5 -25 10 0 6 -6 10 -14 10 -16 0 -46 -42 -46 -65 0 -9 -5 -25 -11 -36 -8 -16 -13 -18 -25 -8 -8 6 -14 19 -14 29 0 10 -7 21 -16 24 -13 5 -15 14 -9 43 3 20 13 42 21 50 15 16 18 26 7 36 -3 4 -21 -10 -39 -31 -24 -27 -35 -34 -44 -26 -8 8 -7 14 5 24 8 7 15 23 15 36 0 14 8 25 20 29 11 3 20 13 20 21 0 24 19 16 26 -11 9 -35 30 -31 43 6 17 48 15 64 -5 45 -16 -17 -34 -13 -34 7 1 7 14 23 30 37 17 13 30 29 30 35 0 6 12 24 28 41 27 31 52 69 52 79 0 3 -12 10 -26 15 -34 13 -29 48 11 71 47 29 96 49 116 49 10 0 22 7 27 16 5 9 14 14 21 10 14 -9 15 -36 1 -36 -5 0 -10 -4 -10 -10 0 -21 30 -9 52 20 12 17 30 30 39 30 16 0 69 57 69 73 0 8 -24 9 -32 1z m-320 -246 c-6 -18 -28 -21 -28 -4 0 9 7 16 16 16 9 0 14 -5 12 -12z m244 -320 c8 -21 -2 -38 -23 -38 -21 0 -25 20 -7 38 15 15 25 15 30 0z m6 -91 c2 -18 -2 -29 -13 -33 -24 -9 -39 10 -31 41 9 35 40 30 44 -8z"/>
        <path
                d="M3825 7365 c-16 -13 -37 -24 -46 -25 -9 0 -31 -13 -49 -30 -23 -21 -42 -30 -67 -30 -47 0 -38 -24 10 -28 42 -4 47 -14 15 -34 -17 -11 -30 -12 -50 -4 -22 8 -31 5 -52 -15 -32 -30 -32 -39 -1 -39 14 0 25 -4 25 -9 0 -12 -44 -22 -48 -11 -2 6 -8 10 -13 10 -5 0 -4 -10 3 -21 11 -18 11 -23 0 -26 -7 -3 -26 -16 -42 -29 -17 -15 -31 -20 -35 -14 -12 19 -25 10 -46 -31 -13 -27 -18 -50 -14 -66 l6 -25 24 27 c14 14 25 29 25 34 0 7 31 31 132 104 21 15 45 27 52 27 8 0 19 14 25 30 7 22 16 30 34 30 14 0 27 7 31 15 3 8 13 15 22 15 9 0 27 9 41 20 14 11 34 20 45 20 10 0 21 7 24 15 4 8 15 15 25 15 10 0 19 6 19 13 0 30 -14 57 -28 57 -8 0 -20 7 -26 15 -10 13 -15 12 -41 -10z m-17 -68 c4 -20 -25 -34 -40 -19 -15 15 -1 44 19 40 10 -2 19 -11 21 -21z"/>
        <path
                d="M3961 7342 c-16 -31 -14 -49 9 -55 12 -3 20 -14 20 -26 0 -17 4 -20 30 -14 36 7 37 2 8 -37 -25 -35 -44 -38 -53 -10 -3 11 -11 20 -16 20 -15 0 -10 -36 6 -50 8 -7 15 -25 15 -41 0 -33 6 -36 32 -12 17 15 20 15 40 -7 l21 -23 -20 -16 c-25 -20 -43 -53 -43 -80 0 -29 -42 -89 -65 -93 -14 -2 -20 -11 -20 -28 0 -35 41 -41 56 -7 6 13 25 32 42 42 18 11 39 28 48 39 27 33 41 11 34 -56 -4 -45 -2 -59 7 -55 7 2 12 14 10 27 -1 15 4 24 17 27 11 3 21 14 23 26 2 11 9 22 16 25 17 5 14 -88 -5 -109 -10 -12 -14 -41 -13 -95 0 -44 0 -100 0 -126 0 -37 4 -48 15 -48 12 0 16 11 15 43 -1 58 9 116 27 155 10 24 13 45 7 70 -9 47 -5 254 6 267 4 6 10 28 11 50 4 40 3 40 -29 37 -29 -3 -32 -1 -32 22 0 21 5 26 25 26 28 0 34 24 9 34 -11 4 -26 -4 -44 -24 -15 -16 -30 -30 -35 -30 -4 0 -34 27 -66 60 -32 33 -61 60 -65 60 -4 0 -12 8 -19 17 -11 15 -13 15 -24 -5z m149 -196 c0 -32 -18 -43 -37 -23 -20 20 -10 47 17 47 15 0 20 -7 20 -24z"/>
        <path
                d="M3508 7282 c-8 -18 -2 -112 7 -112 6 -1 11 8 13 19 2 11 10 25 18 31 22 19 17 46 -11 58 -13 6 -26 8 -27 4z"/>
        <path
                d="M4500 7274 c-14 -7 -38 -14 -53 -14 -25 0 -27 -2 -17 -21 15 -27 6 -49 -20 -49 -14 0 -20 7 -20 24 0 21 -6 25 -46 31 -25 3 -48 5 -50 2 -10 -10 -4 -189 8 -219 12 -32 38 -37 38 -8 0 30 40 27 41 -2 0 -13 3 -17 6 -10 3 7 -1 27 -8 44 -12 30 -11 33 16 52 16 12 42 34 57 49 23 24 30 26 48 17 11 -6 20 -15 20 -19 0 -5 9 -11 20 -14 11 -3 20 -12 20 -21 0 -20 24 -21 40 -1 15 18 6 45 -15 45 -8 0 -15 7 -15 15 0 17 35 20 45 4 5 -6 12 -4 20 7 18 25 49 11 39 -18 -3 -13 -11 -24 -15 -26 -13 -5 -11 -32 2 -32 6 0 17 7 25 15 20 19 43 19 50 0 8 -20 -15 -47 -33 -40 -8 3 -21 -2 -29 -10 -11 -11 -21 -12 -33 -5 -12 6 -22 5 -30 -3 -9 -9 -16 -9 -31 1 -10 6 -26 9 -34 6 -9 -3 -20 4 -29 21 l-14 27 -26 -32 c-15 -17 -27 -40 -27 -51 0 -11 -5 -29 -11 -41 -12 -22 -3 -76 11 -62 5 5 10 23 12 39 2 22 9 31 24 33 18 3 22 -4 28 -37 6 -42 24 -53 44 -28 7 8 7 18 2 27 -15 23 -12 50 5 50 8 0 24 -13 37 -30 37 -50 78 -32 46 20 -16 25 -3 38 22 22 16 -9 24 -10 39 0 15 9 23 9 35 -1 9 -8 16 -19 16 -26 0 -7 11 -20 24 -28 21 -14 25 -14 39 0 18 18 15 20 32 -32 7 -23 22 -18 29 10 3 13 16 30 27 36 20 10 21 9 15 -17 -11 -44 -8 -92 9 -125 23 -44 35 -35 35 26 0 48 3 55 19 55 23 0 64 -36 74 -64 6 -15 10 -16 22 -6 26 22 47 4 40 -34 -4 -20 -2 -36 4 -40 6 -4 11 -2 11 3 0 6 9 20 20 31 16 16 19 28 14 60 -4 22 -10 40 -15 40 -5 0 -9 9 -9 19 0 11 -6 26 -14 33 -26 26 -29 56 -6 68 27 15 26 22 -15 66 -19 22 -35 47 -35 56 0 9 -6 21 -13 25 -8 4 -16 16 -20 25 -5 14 -12 16 -29 9 -19 -7 -23 -17 -26 -61 l-3 -53 30 6 c35 7 35 8 21 -27 -12 -33 -45 -35 -54 -3 -6 20 -7 20 -17 5 -6 -11 -21 -18 -37 -17 -34 1 -122 49 -136 75 -15 26 -27 34 -53 34 -15 0 -23 7 -25 22 -2 18 -15 25 -70 38 -37 9 -76 24 -86 33 -22 20 -28 20 -62 1z m58 -41 c-2 -20 -9 -28 -23 -28 -14 0 -21 8 -23 28 -3 23 0 27 23 27 23 0 26 -4 23 -27z m412 -197 c0 -16 -18 -31 -27 -22 -8 8 5 36 17 36 5 0 10 -6 10 -14z"/>
        <path d="M3676 7114 c-8 -21 -1 -28 19 -20 9 3 15 11 13 18 -7 19 -25 20 -32 2z"/>
        <path
                d="M4341 6906 c-6 -25 -15 -48 -21 -51 -18 -11 -11 -25 13 -25 27 0 51 -23 66 -63 11 -29 29 -35 49 -15 22 22 12 88 -13 88 -19 0 -28 18 -35 65 -4 31 -10 41 -26 43 -18 3 -23 -5 -33 -42z"/>
        <path
                d="M4576 6905 c-7 -29 -27 -32 -51 -9 -17 18 -45 12 -45 -9 0 -7 17 -28 38 -46 22 -20 40 -46 43 -65 5 -27 7 -24 8 17 1 40 5 49 26 59 28 13 29 16 15 52 -12 33 -26 33 -34 1z"/>
        <path d="M4435 6880 c-8 -13 4 -32 16 -25 12 8 12 35 0 35 -6 0 -13 -4 -16 -10z"/>
        <path
                d="M4790 6806 c0 -41 -15 -54 -31 -28 -11 18 -13 18 -51 -1 -32 -16 -39 -24 -36 -46 2 -21 8 -25 26 -23 14 2 29 -4 36 -13 11 -16 15 -14 34 19 12 20 26 36 31 36 16 0 32 61 20 76 -19 23 -29 16 -29 -20z"/>
        <path
                d="M3850 6815 c-7 -8 -18 -15 -26 -15 -25 0 -27 -23 -4 -42 23 -19 23 -18 51 14 16 18 28 39 29 46 0 17 -35 15 -50 -3z"/>
        <path d="M4293 6755 c0 -22 2 -30 4 -17 2 12 2 30 0 40 -3 9 -5 -1 -4 -23z"/>
        <path
                d="M2990 6610 c0 -5 9 -10 19 -10 11 0 23 5 26 10 4 6 -5 10 -19 10 -14 0 -26 -4 -26 -10z"/>
        <path d="M3612 6598 c6 -18 28 -21 28 -4 0 9 -7 16 -16 16 -9 0 -14 -5 -12 -12z"/>
        <path
                d="M2880 6490 c-77 -97 -142 -217 -238 -435 -107 -244 -173 -497 -212 -810 -15 -117 -31 -152 -79 -165 -20 -5 -134 -10 -254 -10 -241 0 -250 -2 -306 -65 -44 -50 -41 -81 12 -132 23 -22 51 -44 62 -48 11 -4 118 -11 238 -14 142 -5 222 -12 229 -19 17 -17 9 -21 -67 -27 -39 -3 -122 -10 -185 -15 -132 -10 -360 -36 -440 -49 -117 -19 -326 -62 -348 -71 -13 -6 -57 -17 -99 -26 -137 -28 -210 -73 -369 -226 -240 -232 -404 -439 -450 -570 -14 -40 -34 -91 -44 -113 -10 -22 -26 -60 -35 -85 -9 -25 -23 -58 -30 -75 -29 -64 -49 -117 -115 -305 -88 -250 -130 -363 -141 -375 -5 -5 -9 -77 -9 -160 l1 -150 24 30 c14 17 25 35 25 41 0 6 7 17 15 24 8 7 15 20 15 30 0 10 7 31 15 46 8 16 15 36 15 44 0 9 4 20 9 25 5 6 16 39 25 75 9 36 26 82 36 103 11 21 20 46 20 56 0 10 7 32 15 47 8 16 15 38 15 49 0 12 5 26 11 32 6 6 14 26 19 44 12 46 64 191 74 208 5 7 12 27 17 45 13 51 35 106 47 118 7 7 12 23 12 38 0 14 7 34 15 44 8 11 15 28 15 38 0 10 9 35 20 55 11 21 20 47 20 59 0 12 10 32 23 46 43 47 147 176 147 183 0 11 24 37 180 194 179 180 240 233 278 243 15 4 45 11 67 17 22 6 55 11 74 11 19 0 42 7 51 15 10 9 46 18 84 22 37 3 69 10 72 14 3 5 22 9 42 9 21 0 46 6 57 14 11 7 60 16 110 19 50 4 106 9 125 12 40 7 268 26 320 27 19 0 95 7 168 15 155 17 182 14 182 -22 0 -16 6 -25 15 -25 8 0 15 6 15 13 0 9 12 11 40 9 30 -3 40 -1 40 11 0 8 9 17 21 20 17 5 19 9 9 26 -6 12 -9 22 -8 22 2 1 41 7 88 13 67 9 87 15 95 31 10 19 46 79 73 120 21 34 24 45 18 61 -5 12 -12 14 -34 8 -15 -5 -79 -9 -142 -9 l-115 -1 4 -105 c4 -135 -3 -169 -34 -169 -29 0 -39 14 -21 29 11 9 11 21 -1 74 -8 34 -13 82 -10 107 2 25 3 50 1 55 -3 6 -125 9 -349 7 l-344 -3 -7 25 c-3 14 -3 30 1 36 5 8 106 11 353 9 l347 -2 1 84 c1 100 21 302 33 344 6 17 13 55 16 85 4 30 11 60 15 65 4 6 11 34 15 62 4 29 10 55 15 58 4 3 11 25 14 50 4 24 11 47 17 50 5 4 9 16 9 28 0 12 7 35 15 51 8 15 15 33 15 38 0 5 9 30 21 56 11 26 24 56 28 67 27 65 123 253 168 328 29 48 53 92 53 97 0 5 7 16 16 24 8 9 16 26 16 38 3 49 -2 88 -12 88 -5 0 -46 -45 -90 -100z"/>
        <path
                d="M2988 6373 c-27 -30 -137 -240 -188 -358 -5 -11 -18 -41 -29 -67 -12 -26 -21 -52 -21 -58 0 -5 -4 -18 -9 -28 -14 -25 -51 -139 -51 -157 0 -8 -4 -23 -10 -33 -9 -17 -16 -47 -46 -187 -22 -106 -68 -494 -59 -503 2 -2 76 -5 163 -6 l159 -2 17 45 c9 25 16 58 16 72 0 41 54 107 106 130 25 10 53 19 62 19 9 1 30 12 47 25 26 22 28 26 14 42 -19 24 -46 82 -52 113 -10 49 -38 144 -46 154 -5 6 -11 35 -14 64 -3 29 -13 62 -22 74 -8 13 -15 34 -15 49 0 15 -7 32 -15 39 -8 7 -15 27 -15 46 0 18 -4 36 -10 39 -5 3 -10 46 -10 94 0 84 1 90 26 105 14 10 39 16 57 14 31 -3 32 -2 31 35 -1 20 -9 46 -18 56 -9 9 -16 27 -16 38 0 12 -6 23 -14 26 -11 4 -13 21 -9 71 6 69 -1 80 -29 49z m-68 -572 c5 -20 14 -76 20 -126 11 -97 36 -219 51 -248 20 -38 -2 -87 -75 -167 -39 -43 -83 -96 -99 -119 -45 -68 -108 -75 -123 -15 -11 42 18 288 47 404 44 180 80 280 113 317 18 22 21 22 38 6 10 -9 22 -32 28 -52z"/>
        <path d="M4094 6105 c-8 -20 4 -35 27 -35 24 0 37 29 18 41 -21 13 -39 11 -45 -6z"/>
        <path
                d="M3680 5862 c0 -5 -14 -12 -30 -16 -31 -6 -56 -43 -40 -59 4 -5 29 -7 56 -5 l49 3 0 40 c0 30 -4 41 -17 43 -10 2 -18 -1 -18 -6z"/>
        <path d="M3745 5861 c-7 -12 12 -24 25 -16 11 7 4 25 -10 25 -5 0 -11 -4 -15 -9z"/>
        <path
                d="M4905 5796 c-102 -36 -143 -46 -180 -46 -22 0 -53 -7 -69 -15 -36 -19 -66 -19 -94 1 -37 26 -49 13 -44 -48 3 -41 0 -57 -12 -67 -9 -8 -16 -28 -16 -48 0 -27 -4 -34 -17 -31 -12 2 -17 11 -15 26 3 22 -12 30 -23 12 -3 -5 -26 -10 -50 -10 -24 0 -46 -4 -50 -9 -3 -5 -31 -12 -63 -16 -31 -3 -67 -11 -79 -17 -16 -8 -26 -8 -36 0 -8 7 -42 14 -75 16 -34 3 -69 9 -79 14 -10 5 -37 13 -60 17 -24 4 -43 11 -43 16 0 5 -17 16 -37 24 -28 12 -44 13 -60 6 -14 -7 -24 -7 -28 -1 -12 19 -58 10 -108 -21 -55 -33 -89 -33 -107 1 -15 28 -30 25 -30 -5 0 -15 -6 -25 -14 -25 -15 0 -25 -27 -19 -47 3 -7 10 -13 17 -13 21 0 43 -33 49 -73 5 -33 3 -39 -23 -52 -27 -14 -28 -13 -34 11 -4 14 -12 24 -19 21 -9 -3 -11 -30 -9 -94 4 -98 -12 -154 -49 -174 -11 -5 -19 -16 -19 -24 0 -8 -13 -28 -30 -45 -33 -34 -38 -50 -15 -50 8 0 15 5 15 10 0 6 6 10 14 10 9 0 16 -17 20 -50 4 -27 11 -52 16 -55 15 -9 12 -69 -5 -91 -19 -25 -19 -87 1 -125 12 -24 14 -57 12 -157 -2 -70 -2 -191 0 -269 2 -142 2 -143 25 -143 13 0 32 -7 43 -15 10 -8 30 -15 44 -15 48 -1 66 -29 67 -100 1 -70 35 -178 58 -186 7 -3 22 -1 33 5 13 7 22 7 30 -1 7 -7 42 -14 80 -16 37 -2 71 -7 76 -12 5 -5 21 -6 36 -3 16 3 36 1 45 -4 32 -18 125 29 125 63 0 7 8 18 18 23 9 5 33 25 52 45 19 19 44 36 55 36 39 1 115 68 115 103 0 8 7 18 15 21 12 4 13 10 6 25 -8 14 -6 23 10 37 12 11 25 28 29 40 7 16 20 22 58 27 46 5 112 -8 112 -23 0 -4 6 -15 14 -25 13 -18 15 -18 49 8 40 31 84 35 102 10 11 -15 17 -14 62 15 27 18 55 32 61 32 6 0 15 6 19 14 4 7 29 28 54 45 l46 30 8 78 c4 43 8 92 8 108 0 17 0 68 0 115 0 47 -1 117 -1 155 -1 39 -2 119 -2 179 0 86 -3 107 -12 98 -7 -7 -18 -12 -25 -12 -17 0 -17 30 0 30 16 1 49 73 41 93 -9 24 -24 26 -115 16 -46 -6 -149 -11 -229 -12 l-145 -2 3 55 c2 43 8 59 25 72 27 22 40 18 47 -12 3 -15 16 -27 30 -31 41 -11 48 -10 55 11 5 15 15 20 39 20 19 0 39 7 46 15 7 8 19 15 27 15 21 0 159 68 191 94 15 12 35 25 45 29 12 5 17 17 17 48 0 33 -7 51 -36 86 -31 37 -41 43 -61 38 -15 -3 -34 0 -47 9 -13 8 -36 16 -52 18 -52 6 -35 32 26 40 30 5 71 14 90 22 19 7 51 11 70 9 27 -4 40 0 54 16 34 37 10 54 -94 66 -19 3 -53 -2 -75 -9z m-205 -156 c0 -5 -7 -10 -15 -10 -8 0 -15 5 -15 10 0 6 7 10 15 10 8 0 15 -4 15 -10z m159 -14 c10 -12 8 -17 -9 -26 -26 -14 -46 0 -37 24 8 20 31 21 46 2z m25 -62 c22 -9 20 -24 -3 -24 -21 0 -34 13 -24 24 8 7 8 7 27 0z m-1144 -42 c0 -14 -11 -21 -26 -15 -21 8 -17 23 6 23 11 0 20 -4 20 -8z m-60 -32 c0 -11 -4 -20 -9 -20 -14 0 -23 18 -16 30 10 17 25 11 25 -10z m1230 -27 c0 -7 -19 -26 -42 -43 -36 -26 -49 -30 -109 -30 -37 0 -70 4 -74 9 -3 5 -19 12 -35 16 -37 8 -57 40 -39 61 19 24 58 17 86 -16 29 -35 70 -40 96 -12 9 9 25 27 37 40 20 22 21 22 50 5 17 -9 30 -23 30 -30z m-352 5 c-4 -30 -48 -39 -48 -10 0 24 8 32 32 32 14 0 19 -6 16 -22z m-600 -19 c152 -37 272 -42 402 -15 64 13 92 15 113 7 40 -16 37 -58 -8 -101 -49 -47 -63 -96 -40 -141 21 -42 62 -87 95 -104 14 -7 79 -16 146 -20 67 -4 127 -11 134 -15 9 -5 13 -26 11 -58 -1 -39 4 -59 24 -88 31 -46 46 -98 40 -144 -2 -19 -10 -79 -16 -133 -6 -53 -16 -100 -20 -103 -5 -3 -9 -38 -9 -79 l0 -73 -46 -23 c-30 -14 -73 -24 -118 -27 -86 -5 -103 8 -108 83 -4 64 -22 61 -26 -5 -2 -38 -9 -56 -28 -75 -32 -32 -42 -31 -50 1 -5 19 -2 29 10 36 11 6 16 23 16 53 0 49 -15 59 -30 20 -9 -23 -13 -25 -49 -19 -33 5 -45 2 -75 -22 -20 -16 -57 -59 -81 -96 -36 -53 -55 -71 -95 -89 -65 -29 -66 -49 -2 -49 43 0 49 4 77 41 16 22 40 42 52 45 16 4 23 14 23 29 0 13 7 25 15 29 8 3 15 18 15 33 0 32 30 63 60 63 13 0 20 -7 20 -20 0 -29 -32 -90 -47 -90 -7 0 -13 -7 -13 -17 0 -18 -6 -25 -70 -89 -29 -29 -47 -40 -61 -37 -13 4 -19 0 -19 -11 0 -9 -8 -20 -17 -23 -10 -4 -23 -13 -29 -21 -8 -11 -23 -14 -58 -9 -41 6 -46 5 -46 -13 0 -17 -7 -20 -39 -20 -29 0 -41 5 -44 18 -4 15 -5 15 -6 0 -2 -36 66 -67 84 -38 9 14 25 12 25 -3 0 -22 -62 -73 -103 -84 -28 -9 -53 -8 -104 3 -85 17 -120 48 -129 113 -3 25 -15 67 -26 92 -10 25 -18 52 -16 59 2 7 -8 16 -22 20 -17 4 -26 14 -28 30 -2 14 -10 29 -18 33 -8 4 -14 19 -14 32 0 16 -6 25 -15 25 -11 0 -15 12 -15 45 0 32 -5 47 -15 51 -19 8 -17 110 2 126 7 6 13 24 13 40 0 25 4 29 23 26 20 -3 22 -9 25 -77 2 -53 -1 -77 -10 -83 -10 -6 -10 -10 -1 -16 6 -4 13 -20 15 -36 1 -16 8 -31 14 -33 7 -2 10 39 10 124 l-1 127 -37 9 c-28 7 -38 14 -38 28 0 10 5 19 10 19 15 0 50 38 50 55 0 9 9 15 24 15 18 0 27 -8 34 -27 9 -26 10 -26 17 -8 14 42 23 50 66 64 24 7 72 24 106 37 34 13 82 24 106 24 39 0 55 -7 118 -55 77 -58 117 -72 177 -60 20 5 48 7 61 6 24 -3 23 -2 -10 32 -19 19 -47 49 -63 67 -31 33 -120 80 -154 80 -11 0 -25 6 -31 13 -15 19 -166 14 -206 -7 -17 -9 -40 -16 -51 -16 -12 0 -27 -7 -34 -15 -7 -8 -19 -15 -26 -15 -8 0 -35 -20 -60 -45 -44 -44 -94 -61 -94 -32 0 15 41 56 83 82 38 24 34 38 -7 21 -18 -8 -38 -11 -44 -7 -32 20 117 117 212 137 72 16 186 17 239 4 20 -6 53 -14 73 -19 21 -5 40 -14 43 -19 3 -5 26 -20 51 -34 57 -31 64 -55 18 -60 l-33 -3 51 -32 c29 -17 62 -42 74 -55 l23 -23 -8 45 c-4 25 -8 56 -9 70 -5 59 -82 152 -159 192 -39 21 -56 22 -237 23 l-195 0 -75 -42 c-41 -24 -78 -43 -81 -43 -3 0 -16 23 -29 52 -22 48 -22 56 -12 125 13 79 55 174 93 210 46 41 104 42 267 2z m-425 -394 c-3 -101 -9 -160 -17 -173 -5 -8 -1 -18 10 -26 23 -17 13 -42 -21 -50 -15 -4 -29 -6 -30 -4 -3 3 -9 296 -6 311 0 5 16 7 34 5 l32 -3 -2 -60z m1391 -51 c9 -3 16 -12 16 -20 0 -16 -76 -57 -90 -49 -11 7 -14 58 -3 68 8 9 56 9 77 1z m-759 -114 c3 -5 15 -10 26 -10 11 0 25 -5 32 -10 7 -6 20 -16 31 -24 16 -11 17 -15 5 -34 -18 -29 -33 -28 -47 3 -6 14 -17 25 -24 25 -15 0 -78 42 -78 53 0 11 48 9 55 -3z m-555 -114 c0 -8 -4 -18 -10 -21 -5 -3 -10 3 -10 14 0 12 5 21 10 21 6 0 10 -6 10 -14z m1324 -252 c37 -14 10 -44 -40 -44 -19 0 -24 5 -24 25 0 20 5 25 24 25 13 0 31 -3 40 -6z m-1384 -249 c29 -58 30 -59 70 -106 30 -36 39 -69 20 -69 -6 0 -13 7 -16 15 -4 8 -12 15 -20 15 -8 0 -14 7 -14 15 0 8 -4 15 -9 15 -4 0 -21 19 -37 43 -16 23 -32 44 -35 47 -3 3 -9 22 -13 43 -6 34 -5 38 10 35 10 -2 30 -25 44 -53z"/>
        <path d="M3920 5021 c-13 -9 -12 -11 1 -16 25 -9 119 -1 119 10 0 13 -101 18 -120 6z"/>
        <path d="M4514 4725 c-7 -17 4 -37 17 -30 12 8 12 45 -1 45 -6 0 -13 -7 -16 -15z"/>
        <path d="M4545 4680 c-3 -6 0 -13 9 -16 23 -9 69 0 74 14 5 15 -74 17 -83 2z"/>
        <path d="M4491 4490 c-19 -11 5 -23 25 -12 14 8 14 10 2 15 -8 3 -21 2 -27 -3z"/>
        <path d="M3660 4340 c0 -11 7 -20 15 -20 17 0 18 2 9 24 -9 23 -24 20 -24 -4z"/>
        <path
                d="M3961 4161 c-20 -13 -3 -18 64 -22 47 -3 60 -1 63 11 2 12 -10 16 -55 17 -32 2 -64 -1 -72 -6z"/>
        <path
                d="M3470 5716 c0 -14 5 -28 10 -31 19 -12 10 -20 -22 -20 l-33 0 0 -70 c0 -99 7 -139 26 -143 20 -4 29 25 29 89 0 36 6 52 26 74 32 34 34 79 6 105 -28 27 -42 25 -42 -4z"/>
        <path
                d="M5216 5390 c-2 -8 -7 -28 -11 -44 -3 -15 -13 -35 -21 -43 -18 -18 -14 -37 8 -41 9 -2 19 6 23 17 3 12 11 21 16 21 12 0 12 71 -1 90 -8 13 -9 13 -14 0z"/>
        <path
                d="M5199 5191 c-19 -22 -71 -157 -73 -191 -1 -24 2 -25 54 -25 l55 0 3 118 c3 123 -3 137 -39 98z"/>
        <path
                d="M3260 4920 c0 -38 -4 -50 -15 -50 -8 0 -15 9 -15 20 0 19 -24 28 -34 12 -2 -4 9 -29 25 -56 28 -45 29 -49 14 -72 -19 -29 -35 -31 -35 -4 0 32 -28 23 -45 -14 -9 -18 -25 -38 -37 -43 -14 -6 -27 -28 -37 -64 -11 -37 -24 -57 -39 -64 -26 -11 -28 -23 -7 -31 8 -4 15 -12 15 -19 0 -7 -7 -18 -15 -25 -8 -7 -15 -21 -15 -32 0 -10 -7 -21 -15 -24 -8 -3 -17 -15 -21 -26 -8 -25 31 -68 62 -68 13 0 26 -4 29 -10 11 -18 30 -11 47 18 17 30 14 47 -14 79 -16 17 -18 25 -9 41 6 12 11 43 11 70 0 41 7 61 35 103 21 33 33 60 29 71 -3 10 -2 18 3 18 4 0 13 -17 20 -37 10 -34 9 -38 -20 -67 -35 -36 -42 -85 -20 -150 7 -21 13 -54 13 -72 0 -21 8 -41 22 -54 26 -24 38 -13 38 36 0 34 15 54 41 54 14 0 18 12 22 58 5 70 23 138 42 166 10 14 15 46 15 100 0 59 4 84 16 97 11 12 14 27 10 44 l-7 26 -30 -21 c-37 -27 -58 -21 -52 14 4 19 1 26 -11 26 -13 0 -16 -11 -16 -50z m-201 -495 c-27 -28 -39 -31 -39 -10 0 15 26 34 49 35 8 0 4 -9 -10 -25z"/>
        <path
                d="M5150 4886 c0 -24 7 -65 15 -92 8 -27 15 -60 15 -73 0 -38 33 -132 44 -128 12 4 21 274 11 313 -4 18 -13 22 -45 22 l-40 1 0 -43z"/>
        <path
                d="M5292 4910 c-9 -7 -6 -413 3 -467 9 -55 41 -77 98 -70 60 8 89 -1 135 -41 44 -40 48 -54 72 -255 5 -42 14 -86 20 -97 5 -10 10 -33 10 -50 0 -29 21 -73 45 -95 6 -5 33 -39 60 -75 94 -124 105 -132 290 -215 47 -21 118 -56 140 -69 51 -30 134 -87 148 -101 9 -8 38 -32 64 -52 90 -68 225 -202 290 -288 26 -33 51 -65 57 -70 14 -13 33 -44 46 -72 5 -13 14 -23 20 -23 5 0 10 -6 10 -14 0 -7 7 -19 15 -26 8 -7 15 -21 15 -31 0 -11 5 -19 10 -19 19 0 161 128 320 289 155 156 181 184 211 231 9 14 25 35 35 47 11 11 26 31 34 43 8 12 22 32 31 44 27 35 129 206 129 216 0 5 6 15 13 22 13 14 62 111 97 193 12 28 27 64 35 80 7 17 20 53 29 80 9 28 20 59 25 70 15 38 41 124 52 172 31 140 42 196 54 278 16 98 38 341 33 356 -3 10 -2634 18 -2646 9z m2514 -125 c22 -26 24 -37 19 -81 -3 -28 -10 -88 -16 -135 -5 -46 -11 -91 -13 -99 -2 -8 -6 -33 -10 -55 -15 -81 -88 -317 -128 -415 -86 -211 -167 -356 -338 -604 -78 -114 -386 -426 -420 -426 -27 0 -79 48 -135 125 -27 36 -52 65 -56 65 -4 0 -24 21 -44 48 -41 53 -211 206 -323 288 -83 62 -135 93 -279 163 -230 112 -306 213 -349 469 -13 74 -33 153 -44 178 -34 69 -100 135 -175 174 -81 42 -95 67 -103 186 -5 88 9 127 52 144 12 5 542 8 1179 7 l1159 -2 24 -30z"/>
        <path
                d="M2317 4549 c-18 -16 -38 -29 -44 -29 -7 0 -13 -7 -13 -15 0 -8 8 -15 19 -15 10 0 24 7 31 15 7 8 21 15 31 15 10 0 21 5 24 11 4 5 18 14 32 20 31 12 21 28 -18 27 -18 -1 -43 -12 -62 -29z"/>
        <path d="M2190 4485 c-16 -19 -5 -35 24 -35 27 0 51 24 41 40 -9 15 -51 12 -65 -5z"/>
        <path d="M2125 4449 c-10 -15 1 -23 20 -15 9 3 13 10 10 16 -8 13 -22 13 -30 -1z"/>
        <path
                d="M1822 4252 c-7 -2 -12 -12 -12 -21 0 -37 51 -77 223 -174 60 -34 89 -30 131 16 24 26 37 32 72 32 48 0 84 -26 84 -60 0 -12 -9 -26 -19 -31 -16 -7 -124 -103 -213 -186 -10 -10 -22 -18 -26 -18 -4 0 -23 -15 -42 -33 -30 -29 -74 -64 -218 -172 -15 -11 -39 -31 -53 -45 -14 -14 -36 -32 -49 -40 -22 -14 -46 -34 -154 -125 -26 -22 -52 -42 -59 -44 -7 -2 -27 -19 -45 -38 -43 -43 -106 -83 -131 -83 -11 0 -21 -3 -23 -7 -6 -16 -68 -53 -86 -53 -25 0 -72 -41 -72 -62 0 -10 -9 -22 -20 -28 -18 -10 -68 -51 -150 -124 -51 -45 -338 -256 -349 -256 -6 0 -16 -9 -23 -20 -7 -11 -18 -20 -25 -20 -7 0 -13 -7 -13 -15 0 -8 9 -15 20 -15 11 0 20 4 20 9 0 5 13 12 30 16 16 4 40 19 52 34 13 15 30 30 38 34 24 12 53 31 87 55 31 22 53 28 53 15 -1 -13 -26 -43 -36 -43 -14 0 -90 -72 -103 -98 -12 -22 -14 -22 -30 -8 -21 19 -31 20 -31 4 0 -7 12 -21 26 -31 35 -26 91 -16 104 19 7 18 17 25 33 24 37 -3 47 -1 47 14 0 8 27 41 60 74 33 34 60 67 60 74 0 17 -20 47 -20 31 0 -7 -12 -16 -27 -19 -16 -4 -34 -11 -41 -17 -7 -5 -15 -7 -18 -4 -10 10 46 56 102 82 30 14 59 36 66 50 20 38 125 121 177 141 25 9 78 19 117 21 l71 4 79 87 c74 82 292 309 379 394 21 21 50 41 65 45 14 3 54 34 90 68 36 34 79 70 95 81 17 10 32 21 35 24 3 3 24 18 46 33 55 37 123 103 157 153 15 22 36 50 46 60 49 53 42 89 -21 104 -18 5 -46 13 -63 18 -73 25 -137 36 -235 43 -58 4 -137 13 -176 21 -38 8 -75 13 -82 10z"/>
        <path
                d="M5231 4101 c-64 -9 -63 -28 1 -33 36 -3 58 0 68 9 13 12 13 15 0 23 -8 5 -17 9 -20 8 -3 0 -25 -4 -49 -7z"/>
        <path
                d="M5020 4030 c-19 -11 -39 -23 -45 -27 -24 -19 -117 -51 -135 -46 -12 3 -37 14 -57 24 -20 10 -39 16 -43 14 -4 -3 -11 -22 -14 -42 -4 -21 -12 -53 -19 -70 -6 -18 -8 -35 -5 -38 3 -4 31 10 61 29 60 38 93 47 83 21 -8 -23 5 -75 19 -75 7 0 15 9 18 19 2 11 15 21 28 23 15 2 24 10 24 20 0 20 63 88 81 88 6 0 17 7 24 15 7 8 27 17 46 21 39 7 45 29 12 38 -32 8 -39 7 -78 -14z"/>
        <path
                d="M638 3846 c-13 -20 -35 -40 -51 -45 -19 -7 -29 -19 -33 -41 -5 -20 -12 -30 -25 -30 -11 0 -19 -1 -19 -3 0 -43 -50 -248 -66 -272 -8 -11 -14 -28 -14 -37 0 -10 -4 -26 -10 -36 -21 -38 -70 -179 -70 -201 0 -7 -9 -33 -21 -59 -11 -26 -27 -63 -35 -82 -8 -19 -19 -43 -24 -52 -6 -11 -6 -19 0 -23 13 -8 49 16 56 37 3 10 9 18 13 18 9 0 37 63 47 105 4 17 10 35 14 40 4 6 10 29 14 53 3 24 10 51 15 60 5 9 20 46 32 82 13 36 29 76 36 90 7 14 13 33 13 42 0 9 5 20 10 23 6 3 10 15 10 27 0 11 6 34 14 51 7 18 19 52 26 77 8 25 21 52 30 60 9 8 28 34 43 58 15 23 32 42 38 42 14 0 7 42 -8 47 -7 3 -22 -12 -35 -31z"/>
        <path d="M3022 3846 c1 -10 8 -17 13 -17 15 1 12 24 -3 29 -9 3 -13 -2 -10 -12z"/>
        <path
                d="M3089 3832 c-13 -10 -32 -22 -42 -25 -28 -10 -15 -31 25 -41 49 -12 82 -2 97 31 11 23 10 29 -5 40 -24 18 -47 16 -75 -5z"/>
        <path
                d="M5216 3833 c-61 -2 -115 -7 -120 -12 -6 -5 -23 -11 -38 -15 -16 -3 -28 -10 -28 -15 0 -5 -18 -12 -40 -16 -67 -11 -64 -29 7 -41 29 -4 44 -2 56 10 8 9 20 16 26 16 5 0 17 7 26 16 26 26 72 31 206 20 132 -9 179 -5 179 18 0 20 -24 26 -98 24 -37 -1 -116 -4 -176 -5z"/>
        <path
                d="M4346 3815 c-3 -8 -13 -15 -23 -16 -23 -1 -54 -21 -134 -86 -75 -60 -102 -67 -214 -53 -44 5 -120 15 -168 20 -49 5 -97 15 -107 20 -34 18 -212 14 -208 -5 2 -5 17 -11 33 -12 83 -6 149 -27 187 -60 9 -8 21 -12 26 -9 5 3 17 -3 27 -14 12 -13 25 -18 40 -14 13 3 26 1 29 -4 4 -7 18 -7 39 -1 17 5 48 9 67 9 20 0 41 5 47 11 7 7 38 12 70 11 33 0 68 6 80 14 12 8 33 14 47 14 14 0 36 4 50 10 21 8 26 16 26 44 0 26 5 36 21 41 24 8 59 40 59 55 0 6 11 10 25 10 16 0 25 6 25 15 0 8 -9 15 -19 15 -10 0 -21 -7 -25 -15z"/>
        <path d="M4634 3776 c-7 -28 1 -46 21 -46 17 0 27 27 20 51 -9 27 -34 23 -41 -5z"/>
        <path
                d="M3147 3726 c-4 -9 1 -35 9 -58 8 -24 14 -56 12 -73 -2 -22 2 -31 15 -33 14 -3 17 4 17 32 0 42 8 45 33 13 9 -12 28 -36 42 -53 14 -18 25 -34 25 -36 0 -3 -18 -13 -40 -24 -30 -14 -40 -24 -38 -39 2 -15 12 -21 41 -23 35 -3 37 -2 37 27 0 25 6 33 33 44 l32 13 -30 15 c-18 8 -31 23 -33 37 -3 23 12 30 23 11 4 -6 22 -8 45 -4 34 6 42 3 73 -29 33 -32 38 -34 65 -25 17 6 38 19 48 30 16 17 16 22 4 30 -8 5 -30 8 -48 5 -27 -4 -32 -2 -30 12 2 12 -5 18 -25 20 -15 2 -32 12 -38 24 -8 14 -17 18 -34 14 -16 -4 -27 -1 -33 10 -12 22 -92 30 -92 9 0 -8 -7 -15 -16 -15 -15 0 -15 2 0 25 9 13 16 29 16 35 0 12 -40 13 -60 0 -10 -6 -20 -4 -31 6 -15 13 -17 13 -22 0z"/>
        <path d="M2815 3670 c-3 -6 1 -13 10 -16 19 -8 30 0 20 15 -8 14 -22 14 -30 1z"/>
        <path d="M4675 3670 c-4 -6 -3 -19 0 -30 7 -23 55 -28 55 -6 0 18 -47 49 -55 36z"/>
        <path
                d="M2990 3635 c0 -8 4 -15 9 -15 5 0 12 -8 15 -17 7 -21 57 -47 65 -34 3 5 15 10 26 12 12 3 21 14 23 27 4 28 -41 49 -75 33 -14 -7 -24 -7 -28 -1 -10 16 -35 12 -35 -5z"/>
        <path
                d="M4737 3604 c-22 -20 -26 -29 -16 -40 16 -20 42 -18 68 5 13 11 28 22 34 24 6 2 8 11 4 20 -10 26 -58 21 -90 -9z"/>
        <path
                d="M2690 3595 c-8 -20 -15 -25 -30 -20 -14 4 -22 1 -26 -12 -4 -10 -16 -26 -28 -35 -31 -25 -15 -31 62 -23 60 6 71 10 76 28 10 39 6 54 -19 71 -24 16 -26 16 -35 -9z"/>
        <path
                d="M2932 3580 c-22 -45 -20 -50 19 -50 35 0 46 17 23 35 -18 13 -18 14 -1 20 23 9 22 35 -2 35 -12 0 -26 -14 -39 -40z"/>
        <path d="M2770 3605 c0 -14 21 -45 31 -45 18 0 5 45 -13 48 -10 2 -18 1 -18 -3z"/>
        <path d="M2851 3577 c-31 -15 -38 -35 -16 -43 21 -8 64 31 49 46 -6 6 -18 5 -33 -3z"/>
        <path
                d="M2497 3554 c-10 -11 3 -24 24 -24 15 0 19 -7 19 -34 0 -18 -7 -39 -15 -46 -8 -7 -15 -19 -15 -26 0 -16 -26 -19 -35 -4 -3 6 -17 7 -31 4 -19 -5 -24 -2 -24 13 0 25 -48 49 -64 33 -8 -8 -4 -17 13 -31 20 -16 23 -24 14 -37 -5 -9 -22 -18 -37 -20 -21 -3 -26 1 -26 19 0 18 -3 19 -15 9 -12 -10 -10 -16 14 -41 17 -17 40 -29 55 -29 13 0 28 -4 31 -10 11 -18 39 -10 70 19 34 33 102 45 129 22 8 -7 20 -10 26 -6 6 4 17 1 25 -5 8 -6 19 -9 25 -5 23 14 7 37 -45 60 -51 24 -55 28 -55 60 0 24 -6 39 -20 47 -11 7 -20 18 -20 25 0 13 -32 18 -43 7z"/>
        <path
                d="M3056 3521 c-3 -5 1 -11 9 -15 8 -3 15 -12 15 -21 0 -8 6 -15 14 -15 8 0 17 -8 20 -17 5 -11 10 -13 17 -6 15 15 -4 50 -31 58 -11 3 -20 11 -20 16 0 12 -17 12 -24 0z"/>
        <path
                d="M4370 3515 c-7 -8 -19 -15 -27 -15 -8 0 -48 -34 -88 -75 -40 -41 -75 -75 -78 -75 -3 0 -54 -47 -112 -105 -59 -58 -115 -105 -125 -105 -10 0 -23 -7 -30 -15 -7 -8 -18 -15 -26 -15 -7 0 -17 -6 -21 -13 -7 -11 -86 -69 -141 -102 -9 -5 -43 -30 -75 -55 -32 -25 -74 -57 -94 -72 -28 -22 -47 -28 -84 -28 -26 0 -60 -5 -74 -12 -22 -10 -29 -8 -53 15 -16 15 -36 27 -46 27 -10 0 -30 6 -44 14 -56 28 -103 46 -126 46 -50 0 -212 33 -227 46 -21 18 -55 18 -63 -1 -3 -8 -15 -15 -26 -15 -11 0 -23 -7 -26 -15 -10 -24 -34 -18 -34 9 0 39 -14 38 -50 -5 -50 -61 -72 -69 -152 -55 -60 10 -70 15 -98 51 -17 22 -40 43 -51 47 -11 4 -27 21 -37 38 -9 16 -23 30 -29 30 -7 0 -20 11 -29 25 -9 14 -22 25 -30 25 -21 0 -81 68 -87 98 -4 20 -19 34 -59 55 -29 15 -61 27 -71 27 -10 0 -20 7 -23 15 -7 17 -64 21 -64 5 0 -12 41 -73 53 -78 4 -2 7 -9 7 -16 0 -7 8 -22 18 -34 37 -45 52 -66 52 -75 0 -4 19 -29 43 -54 23 -25 47 -51 52 -57 47 -50 66 -106 38 -106 -18 0 -155 148 -181 196 -7 13 -17 24 -22 24 -6 0 -10 6 -10 14 0 18 -76 110 -103 125 -19 10 -82 126 -101 184 -7 22 -26 13 -26 -13 0 -45 96 -231 144 -281 9 -9 16 -20 16 -25 0 -5 14 -25 30 -44 16 -19 33 -39 38 -45 87 -113 102 -129 182 -190 36 -27 69 -55 73 -62 4 -7 18 -13 31 -13 13 0 29 -7 36 -15 17 -21 240 -22 240 -1 0 12 71 46 98 46 6 0 27 9 46 19 85 48 301 31 491 -39 83 -31 157 -87 189 -145 9 -16 48 -70 87 -120 63 -82 69 -93 64 -125 -12 -74 -22 -155 -19 -159 6 -7 45 38 44 50 -6 40 2 60 25 69 16 6 25 17 25 30 0 12 11 32 25 45 l24 25 -37 0 c-41 0 -62 14 -62 41 0 9 -12 29 -26 44 -15 16 -33 44 -41 63 -8 19 -22 36 -32 39 -10 3 -25 16 -32 30 -12 22 -11 26 4 35 23 12 11 29 -16 23 -17 -4 -26 1 -39 25 -10 17 -15 37 -11 45 4 13 10 10 31 -11 20 -19 32 -24 52 -19 14 3 33 6 43 5 9 -1 36 -2 60 -3 46 -2 57 -10 57 -44 0 -32 -21 -40 -41 -15 -22 28 -49 29 -49 1 0 -13 10 -23 30 -30 17 -6 30 -17 30 -24 0 -8 10 -15 22 -17 14 -2 24 -11 26 -23 7 -46 13 -51 28 -22 8 15 19 27 24 27 6 0 10 7 10 15 0 8 -4 15 -8 15 -15 0 -36 53 -37 90 0 34 23 70 45 70 6 0 10 4 10 10 0 5 9 14 20 20 18 10 22 7 35 -23 8 -19 12 -52 10 -73 -2 -22 -2 -31 1 -22 3 9 17 18 32 20 16 2 28 10 30 21 5 27 -21 77 -41 77 -28 0 -33 30 -9 49 12 9 25 31 28 49 8 38 17 46 44 37 25 -8 26 -24 3 -40 -14 -11 -15 -15 -4 -28 7 -9 18 -15 24 -13 7 1 9 1 5 -1 -15 -9 -9 -63 7 -63 11 0 14 7 9 24 -9 38 14 41 61 7 24 -17 48 -31 54 -31 19 0 12 23 -16 52 -20 21 -36 28 -65 28 -31 0 -38 4 -38 19 0 60 25 65 75 14 25 -26 39 -33 46 -26 8 8 5 14 -10 22 -12 7 -21 20 -21 30 0 11 -7 21 -15 25 -21 8 -19 33 5 46 11 6 20 17 20 25 0 21 26 19 34 -2 5 -11 0 -22 -11 -31 -17 -12 -17 -14 0 -23 9 -6 17 -19 17 -31 0 -15 5 -19 20 -15 16 4 20 0 20 -22 0 -15 -5 -32 -11 -38 -6 -6 -8 -16 -5 -22 11 -18 26 -13 26 9 0 13 7 20 18 20 28 0 34 -11 15 -32 -12 -14 -14 -21 -5 -30 16 -16 52 17 52 48 0 13 10 30 22 38 18 13 20 18 10 28 -10 10 -14 8 -19 -10 -4 -19 -11 -23 -37 -20 -22 2 -32 9 -34 23 -2 11 -13 30 -25 43 l-20 22 21 0 c16 0 22 -6 22 -21 0 -33 44 -21 48 13 3 23 -2 30 -33 42 -28 12 -36 20 -33 37 2 12 10 25 18 30 23 12 54 23 70 24 25 3 60 17 60 24 0 3 -9 12 -20 19 -27 16 -25 28 6 57 38 35 69 33 83 -6 15 -45 14 -89 -3 -89 -7 0 -19 -7 -26 -15 -7 -8 -23 -15 -36 -15 -25 0 -32 -18 -13 -37 8 -8 4 -15 -12 -27 -24 -17 -18 -20 29 -16 13 1 25 -6 29 -17 13 -34 53 -59 53 -33 0 6 -6 10 -14 10 -17 0 -27 37 -19 68 3 12 11 22 19 22 16 0 29 -43 20 -65 -3 -9 0 -17 7 -19 49 -15 50 -16 36 -33 -8 -9 -27 -24 -42 -33 l-28 -18 36 -6 c20 -4 39 -15 43 -24 3 -9 14 -26 24 -36 25 -27 23 -62 -3 -69 -23 -6 -17 -27 7 -27 8 0 14 -6 14 -14 0 -9 12 -16 28 -18 21 -2 27 -8 27 -28 0 -18 7 -27 25 -31 79 -19 92 -45 40 -76 -16 -9 -30 -23 -30 -29 0 -7 -9 -16 -20 -19 -24 -7 -26 -23 -5 -31 8 -4 15 -12 15 -20 0 -10 8 -12 31 -7 31 6 31 6 27 -33 -3 -36 -1 -40 30 -49 35 -10 40 -22 17 -39 -12 -9 -13 -19 -3 -56 6 -25 17 -50 25 -57 12 -9 12 -15 2 -31 -10 -15 -10 -26 -2 -44 10 -22 11 -21 18 15 4 21 13 37 21 37 8 0 13 9 11 23 -2 17 4 23 26 25 59 7 73 -39 35 -116 -14 -30 -31 -49 -50 -56 -31 -12 -41 -56 -12 -56 12 0 14 -9 12 -37 -2 -30 -7 -38 -23 -38 -14 0 -22 9 -26 30 l-7 30 -1 -27 c0 -16 8 -37 20 -49 11 -11 18 -27 15 -35 -3 -8 -1 -14 4 -14 6 0 10 7 10 15 0 28 28 15 59 -27 17 -23 50 -51 73 -63 56 -27 101 -56 111 -72 4 -7 19 -13 32 -13 13 0 29 -8 34 -19 13 -23 71 -33 216 -37 176 -5 253 13 436 100 78 37 127 46 133 24 3 -7 7 -24 10 -38 5 -23 36 -77 86 -150 9 -14 23 -42 31 -63 l13 -38 18 23 c16 21 18 22 34 6 18 -17 12 -38 -12 -38 -19 0 -18 -14 4 -33 24 -22 29 -21 35 3 8 29 37 26 37 -5 0 -16 -6 -25 -15 -25 -25 0 -17 -14 33 -53 30 -24 57 -57 71 -88 15 -30 52 -76 98 -119 68 -64 78 -70 117 -70 23 0 47 -5 54 -12 17 -17 27 -2 12 17 -19 23 1 41 29 26 25 -14 29 -61 5 -61 -12 0 -14 -7 -9 -30 5 -23 -1 -43 -25 -86 -39 -68 -38 -118 4 -207 24 -50 30 -56 40 -42 11 15 15 15 49 -7 41 -26 46 -38 18 -38 -34 0 -37 -22 -5 -44 16 -12 55 -47 87 -79 32 -31 69 -64 81 -73 37 -24 82 -119 120 -256 20 -70 36 -136 36 -147 0 -11 5 -23 10 -26 6 -3 10 -17 10 -31 0 -21 5 -24 34 -24 28 0 35 4 40 26 5 18 2 32 -10 45 -14 15 -14 21 -4 34 7 8 10 24 7 35 -3 13 1 24 14 30 10 6 19 17 19 25 0 18 -12 19 -28 3 -13 -13 -15 -9 -31 74 -5 31 -7 72 -4 92 4 24 2 36 -6 36 -6 0 -11 6 -11 13 0 7 -9 20 -20 30 -11 9 -20 25 -20 35 0 10 -11 29 -25 42 -14 13 -25 34 -25 48 0 15 -7 26 -20 29 -11 3 -20 12 -20 19 0 8 -4 22 -9 32 -14 29 -33 86 -38 117 -3 17 -12 34 -19 38 -8 4 -14 18 -14 31 0 13 -7 29 -15 36 -8 7 -15 18 -15 25 0 7 -13 43 -29 81 -16 38 -43 114 -61 169 -17 55 -38 110 -46 122 -8 12 -14 33 -14 46 0 14 -7 30 -15 37 -8 7 -15 21 -15 32 0 11 -5 29 -12 41 -17 31 -47 119 -48 138 0 9 -7 22 -15 29 -9 8 -15 29 -15 56 0 23 -4 45 -9 48 -18 12 -51 88 -51 119 0 18 -7 41 -15 51 -8 11 -15 34 -15 51 0 17 -7 40 -15 51 -8 10 -15 29 -15 42 0 12 -13 46 -30 75 -16 30 -30 66 -30 80 0 16 -18 50 -46 87 -60 79 -64 140 -8 140 19 0 24 5 24 25 0 26 18 33 37 14 8 -8 15 -6 25 10 7 11 20 21 30 21 15 0 136 -133 148 -163 11 -26 35 -57 45 -57 5 0 23 14 39 30 30 31 60 39 71 19 4 -5 17 -14 28 -19 14 -5 29 -27 40 -57 10 -26 29 -70 42 -98 12 -27 33 -75 45 -105 12 -30 28 -67 36 -82 8 -14 14 -35 14 -46 0 -11 7 -25 15 -32 8 -7 15 -22 15 -34 1 -11 7 -32 15 -46 8 -14 14 -39 15 -55 0 -17 5 -36 11 -42 6 -6 14 -26 19 -44 11 -47 50 -157 77 -219 34 -79 41 -98 57 -155 10 -33 24 -73 32 -88 8 -16 14 -39 14 -51 0 -12 7 -31 15 -42 8 -10 15 -31 15 -45 0 -14 7 -34 15 -45 8 -10 15 -28 15 -39 0 -11 6 -31 13 -45 7 -14 21 -61 31 -105 9 -44 27 -99 38 -123 24 -52 18 -115 -10 -110 -12 2 -18 15 -20 41 -2 20 -7 37 -11 37 -13 0 -20 -37 -9 -48 13 -13 -17 -59 -43 -67 -10 -3 -28 -8 -39 -11 -29 -8 -26 31 5 62 28 28 32 44 11 44 -23 0 -29 19 -9 27 25 9 63 51 63 69 0 16 -16 19 -25 4 -9 -15 -45 -12 -45 4 0 7 7 19 16 27 11 9 14 22 9 43 -3 17 -7 49 -8 72 -2 31 -9 47 -32 67 -44 38 -55 35 -55 -18 0 -31 5 -47 18 -54 15 -9 15 -12 2 -21 -19 -13 -37 -13 -45 0 -3 6 -13 10 -21 10 -19 0 -19 -91 0 -129 8 -15 18 -55 22 -89 3 -35 11 -65 15 -68 5 -3 9 -29 9 -57 0 -29 9 -78 20 -110 25 -72 25 -98 -1 -131 -17 -21 -18 -26 -5 -26 9 0 16 5 16 10 0 6 6 10 14 10 9 0 15 -22 19 -80 3 -45 9 -86 15 -93 5 -7 15 -29 21 -49 l13 -38 80 0 80 0 -7 28 c-4 15 -8 46 -8 70 0 28 -4 42 -12 42 -8 0 -15 -5 -17 -11 -6 -17 -48 7 -48 26 0 18 21 20 38 3 9 -9 12 -6 12 13 0 15 -15 40 -39 64 -23 23 -36 44 -31 50 8 11 14 73 11 115 l-2 25 -11 -23 c-12 -25 -36 -29 -44 -8 -3 8 -20 17 -37 20 l-32 7 45 40 c25 21 51 39 58 39 6 0 12 4 12 10 0 13 58 42 70 35 15 -9 12 -31 -5 -45 -16 -13 -21 -55 -7 -64 24 -15 52 46 52 116 0 20 -9 90 -20 155 -11 65 -20 134 -20 153 0 19 -7 44 -15 54 -11 15 -15 50 -15 138 0 83 -5 129 -15 155 -8 19 -15 58 -15 85 0 27 -5 58 -10 69 -7 13 -7 25 0 38 7 14 7 22 -1 27 -6 3 -9 19 -5 34 4 22 1 29 -14 33 -15 4 -20 14 -20 40 0 20 5 39 10 42 6 3 10 33 10 65 0 32 -4 62 -10 65 -5 3 -10 0 -10 -7 0 -26 -17 -40 -39 -33 -25 8 -29 50 -5 59 24 9 11 30 -22 36 -24 5 -29 10 -26 30 1 14 12 32 24 41 17 13 19 23 14 55 -3 21 -9 62 -12 89 -8 71 -11 80 -28 66 -19 -16 -44 -4 -61 30 -14 26 -13 31 5 61 24 40 27 123 5 152 -8 11 -15 37 -15 58 0 21 -4 38 -9 38 -14 0 -22 49 -11 69 7 13 6 22 -3 28 -20 16 -137 32 -222 32 -44 -1 -116 6 -160 14 -59 11 -94 12 -135 5 -30 -5 -72 -12 -94 -15 -27 -4 -40 -11 -43 -24 -4 -13 -11 -18 -24 -14 -11 3 -27 7 -38 10 -13 4 -25 -5 -42 -30 -27 -40 -49 -45 -49 -12 0 12 -6 31 -14 42 -7 11 -16 45 -20 75 -10 81 -46 167 -79 191 -20 15 -48 89 -33 89 8 0 56 -47 56 -54 0 -14 132 -181 143 -181 19 0 20 35 3 53 -39 41 -76 88 -76 98 0 6 -7 17 -15 24 -9 8 -13 21 -9 32 3 10 -1 30 -10 43 -9 13 -16 38 -16 54 0 17 -9 46 -20 66 -11 19 -17 41 -14 48 2 7 -7 24 -21 37 -17 16 -25 34 -25 56 0 17 -7 37 -15 44 -8 7 -15 25 -15 41 0 16 -4 29 -10 29 -14 0 -40 55 -40 83 0 14 -7 30 -15 37 -8 6 -17 21 -21 33 -4 12 -13 27 -20 35 -8 7 -14 24 -14 38 0 13 -4 24 -8 24 -5 0 -14 12 -21 27 -7 15 -16 22 -21 17 -5 -5 -11 -99 -13 -209 -4 -218 -21 -468 -39 -555 -5 -30 -13 -71 -15 -90 -3 -19 -12 -44 -19 -55 -9 -12 -14 -48 -14 -97 l0 -79 44 -42 c25 -23 65 -61 89 -84 l44 -42 6 -93 c5 -90 25 -165 54 -199 7 -8 13 -32 13 -52 0 -26 4 -37 15 -37 10 0 15 -10 15 -28 0 -32 25 -88 44 -99 7 -5 21 -26 32 -48 27 -56 77 -125 91 -125 6 0 18 -6 25 -12 27 -25 56 -37 77 -31 19 5 21 1 21 -33 0 -36 6 -44 71 -98 39 -33 76 -70 82 -83 5 -13 14 -23 19 -23 13 0 9 -27 -6 -40 -8 -6 -16 -28 -18 -48 -3 -32 -6 -37 -28 -37 -18 0 -26 6 -30 25 -4 22 -21 52 -68 125 -6 11 -15 27 -19 35 -4 8 -31 46 -61 83 -54 68 -54 68 -93 62 l-39 -7 0 41 c0 28 -5 44 -15 47 -8 4 -15 12 -15 19 0 7 -7 15 -15 19 -8 3 -15 10 -15 16 0 7 -13 25 -30 42 -16 16 -30 35 -30 42 0 23 -41 107 -55 112 -9 4 -11 17 -8 43 3 23 1 41 -6 45 -6 4 -11 25 -11 46 0 21 -4 41 -8 44 -4 2 -36 -24 -71 -60 -35 -35 -69 -64 -76 -64 -7 0 -15 -7 -19 -15 -3 -8 -15 -15 -26 -15 -11 0 -20 -4 -20 -10 0 -5 -11 -12 -25 -16 -13 -3 -29 -12 -36 -20 -6 -8 -22 -14 -34 -14 -12 0 -28 -7 -35 -15 -7 -8 -27 -15 -45 -15 -18 0 -38 -7 -45 -15 -18 -22 -342 -22 -360 0 -7 8 -24 15 -38 15 -14 0 -35 11 -49 26 -22 24 -23 28 -10 41 15 16 57 10 57 -8 0 -5 13 -9 29 -9 16 0 31 -6 35 -15 8 -22 280 -22 302 0 9 8 30 15 47 15 18 0 41 7 51 15 11 8 30 15 43 15 13 0 23 5 23 10 0 6 5 10 11 10 16 0 101 42 117 58 7 6 17 12 21 12 4 0 35 28 69 62 43 42 60 64 52 72 -7 7 -14 5 -22 -6 -7 -8 -34 -29 -59 -46 -25 -17 -51 -37 -58 -46 -8 -9 -24 -16 -36 -16 -12 0 -34 -9 -49 -21 -31 -25 -71 -22 -71 5 0 16 74 65 155 102 44 20 82 84 49 84 -16 0 -179 -81 -214 -106 -35 -26 -105 -54 -153 -61 -24 -4 -43 1 -72 21 -22 14 -46 26 -54 26 -18 0 -45 12 -111 48 -38 21 -51 34 -53 55 -3 24 -5 25 -23 14 -18 -10 -23 -8 -43 16 -12 15 -27 27 -33 27 -18 0 -24 -48 -13 -91 12 -45 7 -59 -21 -59 -22 0 -23 -6 -8 -49 7 -19 22 -36 35 -41 34 -13 30 -28 -12 -39 -32 -9 -40 -7 -64 12 -27 22 -50 61 -50 83 0 7 11 34 25 60 14 26 25 56 25 67 0 10 17 34 37 53 l37 34 -23 42 c-12 24 -26 50 -31 58 -5 8 -11 22 -14 30 -4 8 -15 29 -26 45 -11 17 -23 37 -27 45 -3 8 -17 29 -30 46 -13 17 -23 36 -23 42 0 6 -22 37 -50 69 -27 32 -50 63 -50 70 0 6 -13 26 -30 44 -16 18 -32 45 -35 61 -8 36 -49 111 -88 160 -28 37 -29 41 -26 140 3 90 1 103 -14 106 -10 2 -17 13 -17 27 0 13 -8 28 -17 34 -16 8 -17 24 -15 133 3 119 3 124 -21 146 -21 20 -25 21 -37 7z m1528 -580 c7 -14 12 -61 12 -103 1 -44 7 -94 16 -117 9 -22 20 -62 25 -90 5 -27 21 -96 35 -152 14 -56 23 -107 19 -112 -8 -14 11 -84 44 -156 58 -127 107 -251 116 -295 3 -19 12 -53 20 -75 25 -76 45 -147 45 -161 0 -9 -11 -14 -28 -14 -23 0 -33 8 -51 40 -13 23 -20 47 -18 54 9 23 -4 26 -33 9 -32 -19 -63 -11 -58 14 2 11 14 19 31 21 34 4 35 19 2 34 -14 6 -28 23 -32 37 -3 14 -21 57 -39 96 -26 56 -34 92 -44 185 -12 121 -31 176 -76 225 -13 15 -40 50 -59 78 -42 62 -45 103 -15 210 11 39 23 108 26 152 9 132 35 181 62 120z m-2148 -50 c0 -8 -6 -15 -14 -15 -17 0 -28 14 -19 24 12 12 33 6 33 -9z m713 0 c1 -5 -6 -11 -15 -13 -11 -2 -18 3 -18 13 0 17 30 18 33 0z m-2105 -23 c31 -40 -4 -57 -45 -23 -33 27 -30 49 5 43 15 -2 33 -11 40 -20z m392 -17 c0 -8 -7 -15 -15 -15 -8 0 -15 7 -15 15 0 8 7 15 15 15 8 0 15 -7 15 -15z m938 -23 c3 -18 -2 -22 -22 -22 -28 0 -34 18 -14 38 17 17 32 10 36 -16z m890 -120 c2 -7 -3 -12 -12 -12 -9 0 -16 7 -16 16 0 17 22 14 28 -4z m85 -196 c6 -15 -1 -26 -15 -26 -4 0 -8 9 -8 20 0 23 15 27 23 6z m-16 -62 c3 -8 1 -20 -5 -26 -15 -15 -43 8 -35 28 7 19 32 18 40 -2z m57 -32 c2 -4 1 -14 -4 -22 -7 -11 -11 -11 -24 -1 -9 7 -13 17 -10 22 7 11 31 12 38 1z m2108 -44 c68 -20 91 -106 60 -222 -11 -40 -6 -103 10 -123 5 -7 6 -18 2 -24 -8 -14 -34 15 -34 40 0 9 -14 34 -30 55 -17 22 -30 45 -30 52 0 17 -60 119 -99 168 -17 21 -31 42 -31 47 0 27 73 30 152 7z m-2054 -16 c19 19 25 1 11 -31 -16 -37 -31 -43 -75 -35 -24 4 -34 12 -34 25 0 22 49 49 71 38 9 -5 21 -3 27 3z m22 -257 c9 -11 10 -19 2 -27 -14 -14 -32 -1 -32 23 0 23 13 25 30 4z m225 -115 c0 -15 -6 -26 -16 -28 -19 -3 -31 21 -22 43 9 25 38 13 38 -15z m1905 -25 c0 -8 -4 -15 -10 -15 -5 0 -10 7 -10 15 0 8 5 15 10 15 6 0 10 -7 10 -15z m-2092 -62 c-5 -26 -38 -29 -38 -4 0 15 6 21 21 21 14 0 19 -5 17 -17z m222 2 c0 -8 -9 -15 -20 -15 -20 0 -26 11 -13 23 12 13 33 7 33 -8z m84 6 c7 -11 -14 -20 -31 -13 -7 2 -10 8 -7 13 7 12 31 12 38 0z m864 -2 c-2 -6 -8 -10 -13 -10 -5 0 -11 4 -13 10 -2 6 4 11 13 11 9 0 15 -5 13 -11z m1137 -569 c7 -12 -12 -40 -26 -40 -10 0 -12 34 -2 43 9 10 21 9 28 -3z m-685 -131 c0 -5 -7 -9 -15 -9 -15 0 -20 12 -9 23 8 8 24 -1 24 -14z m74 -261 c15 -18 30 -37 34 -43 4 -5 26 -34 49 -62 42 -54 113 -191 113 -220 0 -9 7 -21 15 -27 9 -7 12 -19 9 -34 -5 -18 -9 -20 -20 -11 -8 6 -14 17 -14 24 0 7 -7 15 -15 19 -8 3 -15 16 -15 28 0 13 -9 29 -19 35 -13 8 -18 19 -14 33 4 14 1 20 -11 20 -9 0 -16 -4 -16 -10 0 -5 -5 -10 -11 -10 -7 0 -9 9 -5 23 6 25 -25 84 -49 93 -8 4 -27 -1 -41 -11 -32 -21 -40 -14 -25 24 10 24 10 37 -5 78 -17 48 -15 83 5 83 5 0 21 -15 35 -32z m493 -174 c9 -23 -11 -38 -26 -20 -13 16 -7 36 10 36 5 0 12 -7 16 -16z"/>
        <path d="M2774 3499 c-10 -17 13 -36 27 -22 12 12 4 33 -11 33 -5 0 -12 -5 -16 -11z"/>
        <path d="M2450 3485 c0 -8 5 -15 10 -15 6 0 10 7 10 15 0 8 -4 15 -10 15 -5 0 -10 -7 -10 -15z"/>
        <path
                d="M2875 3471 c-4 -13 -2 -28 4 -34 6 -6 11 -19 11 -29 0 -15 -5 -17 -26 -12 -21 5 -26 2 -31 -16 -6 -21 -7 -22 -19 -6 -10 15 -16 16 -36 6 -39 -21 -58 -42 -58 -67 0 -20 5 -23 43 -23 51 0 60 -6 78 -47 14 -34 23 -40 34 -23 3 6 17 10 31 10 16 0 24 6 24 18 0 25 -16 47 -24 33 -4 -6 -11 -11 -15 -11 -13 0 -34 57 -26 69 9 16 45 13 51 -4 4 -8 12 -15 20 -15 16 0 54 35 54 50 0 16 -18 12 -28 -6 -15 -26 -32 -6 -32 36 0 22 -6 43 -13 47 -8 4 -18 17 -24 27 -10 18 -11 18 -18 -3z"/>
        <path d="M4737 3443 c-4 -3 -7 -12 -7 -20 0 -15 26 -18 34 -4 7 11 -18 33 -27 24z"/>
        <path d="M5355 3440 c-11 -17 62 -100 87 -100 31 0 20 33 -24 72 -46 40 -53 44 -63 28z"/>
        <path d="M3807 3433 c-16 -16 -4 -23 37 -23 53 0 69 15 25 24 -40 8 -54 8 -62 -1z"/>
        <path
                d="M1728 3356 c-6 -14 -18 -26 -25 -26 -8 0 -11 -5 -8 -11 4 -5 -1 -19 -10 -29 -14 -15 -15 -23 -6 -34 13 -15 -10 -34 -91 -74 -27 -12 -48 -27 -48 -32 0 -5 18 -13 41 -16 36 -6 40 -9 37 -32 -4 -32 -28 -41 -35 -13 -8 31 -65 29 -87 -3 -10 -16 -22 -23 -33 -20 -12 4 -26 -5 -41 -26 -25 -33 -21 -54 9 -45 14 5 21 0 29 -19 5 -14 14 -26 20 -26 5 0 10 -4 10 -10 0 -15 -36 -12 -50 5 -7 8 -21 15 -31 15 -11 0 -19 5 -19 12 0 9 -3 9 -12 0 -7 -7 -22 -12 -35 -12 -14 0 -23 -6 -23 -15 0 -8 -9 -19 -20 -25 -24 -13 -26 -45 -3 -54 15 -6 14 -8 -2 -20 -12 -8 -16 -20 -12 -35 4 -16 1 -21 -13 -21 -11 0 -22 4 -25 10 -6 10 -10 8 -73 -23 -18 -9 -39 -14 -47 -11 -21 9 -57 -30 -53 -58 3 -20 8 -23 39 -20 50 4 105 -20 122 -55 14 -27 81 -62 94 -49 4 3 1 18 -6 33 -11 23 -10 29 6 40 9 8 24 12 32 11 26 -5 23 -28 -6 -40 -27 -11 -27 -12 -5 -16 13 -2 26 -10 29 -18 5 -15 83 -21 83 -6 0 4 -18 34 -40 67 -43 64 -46 75 -28 93 6 6 8 15 3 19 -4 5 -10 2 -12 -4 -3 -7 -11 -13 -18 -13 -8 0 -16 -8 -20 -18 -3 -11 -16 -24 -30 -30 -21 -10 -26 -8 -34 7 -13 22 4 41 36 41 20 0 23 5 23 34 0 46 15 53 52 26 16 -12 30 -20 31 -18 1 1 12 17 25 35 12 18 22 35 22 39 0 6 39 54 93 114 13 14 26 33 30 43 3 9 13 17 21 17 8 0 16 4 18 8 9 23 76 57 112 57 36 0 44 -6 122 -93 46 -51 84 -96 84 -100 0 -4 15 -21 33 -39 17 -17 55 -54 83 -81 74 -73 212 -152 289 -165 54 -9 72 -8 124 8 34 10 66 24 72 32 10 11 -9 13 -109 13 -94 0 -122 3 -132 15 -7 8 -20 15 -30 15 -10 0 -23 7 -30 15 -7 8 -16 15 -21 15 -5 0 -24 15 -43 33 -18 17 -44 42 -57 53 -43 39 -139 141 -139 148 0 8 -18 31 -42 54 -10 9 -18 22 -18 28 0 7 -7 14 -15 18 -8 3 -15 13 -15 22 0 9 -13 33 -30 54 -16 21 -30 45 -30 54 0 9 -4 16 -9 16 -11 0 -71 116 -71 136 0 25 -20 25 -32 0z m2 -165 c0 -5 9 -11 20 -14 12 -3 20 -14 20 -26 0 -32 -42 -28 -57 6 -17 35 -16 43 2 43 8 0 15 -4 15 -9z m-374 -319 c-4 -3 -11 -1 -18 6 -8 8 -8 15 3 28 13 16 14 16 17 -5 2 -13 1 -25 -2 -29z m84 -22 c0 -13 -7 -20 -20 -20 -13 0 -20 7 -20 20 0 13 7 20 20 20 13 0 20 -7 20 -20z"/>
        <path d="M3090 3364 c0 -3 7 -12 15 -21 20 -19 32 -9 15 12 -12 15 -30 20 -30 9z"/>
        <path d="M3016 3311 c-9 -13 24 -71 40 -71 17 0 17 7 3 49 -10 30 -32 41 -43 22z"/>
        <path d="M4607 3295 c-3 -20 -1 -25 12 -23 9 2 17 13 19 26 5 31 -24 29 -31 -3z"/>
        <path d="M2270 3295 c0 -8 4 -15 9 -15 5 0 11 7 15 15 3 9 0 15 -9 15 -8 0 -15 -7 -15 -15z"/>
        <path d="M3280 3286 c-10 -13 -9 -17 4 -22 22 -8 49 3 44 19 -7 18 -33 20 -48 3z"/>
        <path d="M806 3251 c-3 -5 1 -12 10 -15 20 -8 29 -1 19 13 -8 13 -22 14 -29 2z"/>
        <path d="M1070 3251 c0 -13 50 -51 66 -51 22 0 16 15 -16 38 -31 23 -50 28 -50 13z"/>
        <path d="M1607 3254 c-14 -14 -6 -24 19 -24 16 0 24 5 22 13 -5 14 -31 21 -41 11z"/>
        <path d="M2754 3249 c-7 -12 12 -29 32 -29 19 0 24 28 8 34 -23 9 -32 7 -40 -5z"/>
        <path
                d="M474 3202 c-18 -12 -35 -50 -25 -57 5 -3 12 -1 16 5 11 17 82 12 89 -6 5 -13 16 -16 55 -12 39 4 52 1 65 -14 9 -10 27 -18 41 -18 14 0 25 -4 25 -10 0 -5 11 -12 24 -16 14 -3 27 -12 30 -20 7 -19 70 -18 86 1 7 8 18 15 24 15 7 0 23 11 36 25 19 20 21 27 11 39 -11 13 -16 13 -42 -6 -16 -12 -29 -28 -29 -36 0 -18 -56 -9 -80 13 -9 8 -22 15 -29 15 -7 0 -19 7 -27 15 -9 8 -26 15 -39 15 -13 0 -25 5 -27 11 -2 6 -27 14 -56 17 -28 2 -57 11 -63 18 -12 15 -66 19 -85 6z"/>
        <path d="M977 3204 c-11 -12 -8 -42 6 -47 20 -7 58 15 55 32 -3 17 -48 27 -61 15z"/>
        <path
                d="M1635 2990 c-3 -5 3 -10 15 -10 12 0 18 5 15 10 -3 6 -10 10 -15 10 -5 0 -12 -4 -15 -10z"/>
        <path
                d="M1245 2980 c-4 -6 -15 -8 -24 -5 -28 8 -48 -3 -61 -36 -7 -16 -11 -31 -9 -32 20 -14 59 -37 64 -37 3 0 5 8 5 19 0 10 7 24 15 31 8 7 15 18 15 25 0 7 9 15 20 18 11 3 20 10 20 16 0 14 -37 14 -45 1z"/>
        <path d="M4252 2974 c4 -21 22 -23 26 -1 2 10 -3 17 -13 17 -10 0 -15 -6 -13 -16z"/>
        <path d="M1016 2863 c-11 -11 -6 -23 9 -23 8 0 15 4 15 9 0 13 -16 22 -24 14z"/>
        <path
                d="M4178 2838 c-3 -20 -9 -23 -48 -24 -71 -1 -80 -3 -80 -19 0 -8 5 -15 10 -15 6 0 10 -7 10 -15 0 -8 -4 -15 -10 -15 -5 0 -10 -7 -10 -16 0 -11 6 -14 21 -9 16 5 27 0 45 -21 13 -16 23 -37 24 -46 0 -10 4 -18 9 -18 6 0 18 -13 27 -29 16 -26 19 -28 38 -16 25 16 85 8 93 -11 7 -19 63 -18 63 1 0 8 5 15 10 15 6 0 10 8 10 18 -1 16 -1 16 -14 0 -16 -22 -35 -23 -42 -3 -4 10 -20 14 -57 12 -40 -2 -52 2 -55 14 -1 9 8 20 21 26 19 9 28 8 40 -5 15 -14 17 -14 23 2 4 11 1 22 -7 27 -11 7 -9 13 11 28 20 16 22 21 11 35 -7 9 -19 16 -27 16 -7 0 -18 9 -24 20 -6 11 -20 20 -30 20 -15 0 -20 7 -20 25 0 33 -37 35 -42 3z m49 -74 c8 -22 -19 -95 -40 -108 -25 -16 -42 12 -21 35 18 20 18 48 -1 55 -8 4 -15 12 -15 20 0 21 69 19 77 -2z"/>
        <path d="M6770 2795 c0 -8 5 -15 10 -15 6 0 10 7 10 15 0 8 -4 15 -10 15 -5 0 -10 -7 -10 -15z"/>
        <path d="M3983 2765 c-8 -23 1 -27 30 -12 28 15 26 27 -5 27 -10 0 -21 -7 -25 -15z"/>
        <path
                d="M3966 2715 c23 -14 45 -32 48 -41 3 -8 10 -12 16 -9 18 11 11 35 -14 45 -13 5 -27 14 -31 19 -3 6 -18 11 -33 11 -25 0 -25 -2 14 -25z"/>
        <path
                d="M977 2714 c-4 -4 -7 -16 -7 -27 0 -17 -2 -18 -16 -6 -13 11 -19 8 -39 -17 -14 -16 -24 -32 -25 -36 0 -5 -9 -17 -20 -28 -22 -22 -27 -50 -7 -50 6 0 19 -5 27 -10 22 -14 -27 -63 -56 -56 -22 6 -42 -18 -25 -28 8 -5 101 17 120 28 20 12 24 -23 7 -58 -9 -19 -16 -39 -16 -45 0 -14 -15 -14 -70 3 -26 8 -46 20 -48 30 -5 22 -32 20 -32 -2 0 -24 -31 -52 -56 -52 -11 0 -35 14 -52 31 -26 26 -33 28 -38 15 -7 -18 -34 -22 -34 -6 0 6 7 13 15 16 8 4 15 14 15 23 0 13 -8 16 -40 13 -37 -4 -40 -2 -40 21 0 14 7 27 15 31 16 6 21 46 5 46 -8 0 -15 -6 -45 -43 -5 -7 -28 -39 -49 -72 -21 -33 -47 -72 -57 -87 -11 -15 -19 -35 -19 -44 0 -8 -9 -27 -20 -41 -11 -14 -20 -38 -20 -54 0 -15 -4 -31 -10 -34 -5 -3 -10 -23 -10 -43 0 -20 -5 -55 -11 -76 -8 -29 -8 -45 2 -62 9 -18 9 -29 -1 -53 -7 -17 -10 -43 -7 -58 3 -15 -1 -40 -9 -55 -10 -20 -14 -65 -13 -164 0 -98 -3 -139 -12 -145 -9 -5 -8 -15 4 -42 10 -19 17 -39 17 -45 0 -5 7 -12 15 -16 21 -8 19 -62 -2 -76 -17 -10 -17 -10 -1 -20 28 -17 24 -68 -7 -80 -33 -12 -32 -28 3 -36 51 -11 52 -12 52 -56 -3 -138 2 -208 15 -208 20 0 23 43 14 184 -11 178 -11 344 1 440 13 106 27 230 45 396 14 129 20 162 44 240 27 85 104 123 171 85 17 -10 57 -14 126 -15 107 0 143 10 180 51 34 38 99 78 113 69 21 -12 90 -10 130 4 20 8 56 20 81 27 71 20 170 79 170 100 0 5 -17 9 -38 9 -21 0 -43 5 -49 11 -8 8 -13 8 -17 0 -4 -6 -29 -11 -55 -11 -26 0 -56 -6 -67 -14 -11 -9 -30 -12 -46 -9 -21 4 -28 2 -28 -10 0 -9 5 -19 10 -22 13 -8 13 -25 0 -25 -6 0 -15 11 -20 25 -5 14 -18 29 -27 32 -10 4 -27 15 -38 25 -10 10 -25 16 -33 13 -7 -3 -18 -5 -23 -5 -5 0 -9 -7 -9 -15 0 -8 -9 -15 -20 -15 -11 0 -20 5 -20 11 0 6 9 13 20 16 20 5 25 19 21 61 -1 13 2 29 7 35 4 7 8 28 7 47 -1 26 -7 36 -21 38 -11 2 -23 0 -27 -4z m-27 -152 c0 -43 -6 -53 -26 -45 -13 5 -12 25 2 71 8 27 24 10 24 -26z m148 -134 c-7 -20 -48 -23 -48 -4 0 11 9 16 26 16 16 0 24 -5 22 -12z m-240 -86 c4 -14 -34 -16 -42 -3 -6 10 13 21 28 17 6 -1 12 -8 14 -14z"/>
        <path
                d="M3850 2686 c0 -26 -13 -35 -25 -16 -8 13 -25 13 -25 1 0 -12 59 -71 71 -71 5 0 9 12 9 28 0 15 1 38 2 52 2 17 -3 25 -14 28 -14 3 -18 -3 -18 -22z"/>
        <path
                d="M4427 2699 c-9 -6 -17 -21 -17 -35 0 -21 4 -24 20 -19 12 4 27 1 35 -5 11 -9 15 -9 15 -1 0 6 -4 11 -10 11 -5 0 -10 8 -10 18 0 29 -13 42 -33 31z"/>
        <path
                d="M3920 2673 c0 -5 9 -23 20 -41 17 -28 23 -32 35 -22 22 18 18 40 -5 40 -11 0 -23 7 -26 15 -6 15 -24 21 -24 8z"/>
        <path d="M4070 2655 c0 -9 5 -15 11 -13 6 2 11 8 11 13 0 5 -5 11 -11 13 -6 2 -11 -4 -11 -13z"/>
        <path
                d="M4010 2606 c0 -16 18 -37 52 -60 18 -13 19 -18 8 -31 -14 -17 -56 -20 -65 -5 -5 8 -11 7 -21 -1 -17 -14 -44 -5 -44 15 0 7 7 16 15 20 26 10 17 27 -11 20 -20 -5 -26 -2 -31 15 -3 11 -9 21 -14 21 -12 0 -12 -27 0 -34 5 -3 12 -21 15 -40 5 -25 13 -36 32 -40 14 -4 30 -4 35 0 6 3 22 -5 36 -17 l25 -24 15 23 c9 12 26 22 39 22 32 0 37 14 15 39 -11 12 -17 30 -14 41 4 15 0 20 -15 20 -11 0 -22 7 -26 15 -7 19 -46 20 -46 1z"/>
        <path d="M614 2600 c-18 -7 -40 -38 -32 -45 6 -6 78 27 78 35 0 13 -24 18 -46 10z"/>
        <path d="M4465 2597 c-4 -10 -5 -21 -1 -24 10 -10 18 4 13 24 -4 17 -4 17 -12 0z"/>
        <path
                d="M3720 2586 c0 -8 5 -18 10 -21 6 -3 10 3 10 14 0 12 -4 21 -10 21 -5 0 -10 -6 -10 -14z"/>
        <path d="M6290 2591 c0 -6 4 -12 9 -15 13 -8 42 4 35 15 -7 12 -44 12 -44 0z"/>
        <path
                d="M6545 2590 c-4 -6 5 -10 19 -10 14 0 26 5 26 10 0 6 -9 10 -19 10 -11 0 -23 -4 -26 -10z"/>
        <path
                d="M4263 2563 c-27 -5 -30 -19 -5 -27 9 -3 30 -32 47 -63 16 -32 48 -82 71 -110 23 -29 45 -66 49 -83 4 -16 10 -30 15 -30 10 0 24 31 21 48 -1 8 5 19 15 26 22 16 10 36 -22 36 -15 0 -24 6 -24 15 0 8 7 15 16 15 11 0 14 5 10 16 -3 9 -6 20 -6 25 0 5 -7 9 -15 9 -8 0 -15 -7 -15 -15 0 -10 -10 -15 -30 -15 -23 0 -30 4 -30 20 0 12 9 24 23 30 21 8 20 9 -10 15 -36 8 -42 19 -17 33 25 14 7 35 -23 27 -19 -4 -26 -1 -30 15 -3 11 -8 19 -12 19 -3 -1 -16 -4 -28 -6z"/>
        <path d="M5036 2558 c-32 -114 -32 -118 -2 -118 26 0 36 17 36 58 0 55 -24 96 -34 60z"/>
        <path d="M3727 2543 c-13 -12 -7 -23 13 -23 11 0 20 7 20 15 0 15 -21 21 -33 8z"/>
        <path d="M3653 2520 c-18 -27 -17 -30 12 -30 28 0 31 8 13 33 -12 16 -14 16 -25 -3z"/>
        <path d="M4470 2480 c0 -11 7 -20 15 -20 17 0 18 2 9 24 -9 23 -24 20 -24 -4z"/>
        <path
                d="M3881 2467 c8 -7 18 -20 22 -30 7 -20 28 -19 35 1 2 7 -3 12 -11 12 -8 0 -17 7 -21 15 -3 8 -13 15 -23 15 -16 -1 -16 -2 -2 -13z"/>
        <path
                d="M3710 2455 c0 -9 16 -30 35 -48 26 -24 35 -40 35 -64 0 -18 5 -33 10 -33 6 0 10 7 10 15 0 8 7 15 15 15 20 0 20 2 -15 57 -16 26 -30 53 -30 60 0 8 -12 13 -30 13 -20 0 -30 -5 -30 -15z"/>
        <path
                d="M4050 2404 c-14 -16 -40 -19 -40 -4 0 6 -4 10 -10 10 -5 0 -10 -7 -10 -15 0 -10 -10 -15 -34 -15 -49 0 -53 -16 -10 -36 36 -17 37 -17 55 7 15 20 26 24 64 23 36 -1 45 2 43 14 -5 23 -44 34 -58 16z"/>
        <path d="M5002 2409 c2 -6 8 -10 13 -10 5 0 11 4 13 10 2 6 -4 11 -13 11 -9 0 -15 -5 -13 -11z"/>
        <path d="M3678 2360 c-14 -16 -15 -19 -1 -24 26 -10 33 -7 33 19 0 29 -8 30 -32 5z"/>
        <path d="M4530 2329 c0 -18 38 -60 45 -50 11 19 -6 61 -26 61 -10 0 -19 -5 -19 -11z"/>
        <path
                d="M3851 2287 c-1 -22 -7 -40 -15 -43 -17 -6 -76 22 -76 36 0 6 -6 10 -14 10 -8 0 -16 5 -18 12 -7 19 -38 1 -38 -22 0 -15 5 -20 18 -17 23 5 72 -20 72 -37 0 -9 14 -13 45 -12 41 1 45 3 44 26 -1 14 -5 39 -9 55 -8 30 -8 30 -9 -8z"/>
        <path
                d="M4047 2313 c-10 -9 -9 -23 1 -23 5 0 17 7 28 15 19 14 19 14 -2 15 -11 0 -24 -3 -27 -7z"/>
        <path
                d="M174 2297 c-3 -9 -12 -17 -20 -17 -7 0 -16 -12 -20 -27 -3 -16 -10 -37 -14 -48 -5 -11 -19 -49 -30 -85 -12 -36 -25 -73 -31 -82 -5 -10 -9 -40 -9 -67 0 -28 -4 -52 -8 -55 -10 -6 -6 -236 5 -302 5 -28 17 -59 26 -68 9 -9 23 -39 31 -67 8 -27 19 -55 23 -62 14 -21 33 -99 43 -167 4 -36 10 -76 13 -90 10 -51 17 -118 21 -211 2 -53 9 -106 15 -117 6 -11 11 -36 11 -54 0 -19 6 -43 14 -54 8 -11 17 -45 21 -77 4 -31 12 -57 17 -57 6 0 7 -11 4 -25 -4 -14 -2 -33 3 -43 5 -9 11 -37 12 -62 4 -44 3 -45 -26 -45 -21 0 -30 5 -30 16 0 9 -6 23 -13 31 -14 18 -19 85 -8 109 4 10 1 22 -8 32 -9 9 -16 22 -16 31 0 8 -11 27 -24 43 -14 16 -28 42 -32 57 -3 15 -17 34 -30 43 -20 13 -28 13 -54 2 -18 -9 -30 -21 -30 -33 0 -11 -8 -28 -18 -39 -12 -15 -14 -21 -4 -24 14 -5 17 -63 2 -63 -5 0 -10 -4 -10 -9 0 -5 10 -7 21 -4 15 4 27 0 35 -12 7 -10 24 -23 36 -29 18 -9 24 -21 26 -59 3 -45 0 -51 -44 -97 -27 -28 -52 -46 -60 -43 -11 4 -14 -9 -14 -61 0 -63 1 -67 27 -77 15 -5 38 -9 52 -7 20 2 27 -2 29 -18 2 -11 -4 -27 -13 -34 -17 -14 -20 -46 -5 -55 5 -3 15 5 22 20 6 14 22 28 35 31 13 4 23 12 23 20 0 8 7 14 15 14 18 0 20 -36 3 -43 -8 -3 -7 -6 4 -6 9 -1 20 4 23 9 3 5 16 10 29 10 32 0 49 -37 45 -101 l-4 -53 39 -8 c25 -5 43 -5 50 2 13 13 76 13 76 0 0 -5 4 -10 8 -10 5 0 9 15 9 33 0 17 2 51 3 75 1 24 0 46 -4 49 -9 10 -45 -40 -46 -64 0 -33 -44 -31 -66 2 -18 27 -12 45 15 45 19 0 74 45 78 64 16 78 16 86 -5 86 -14 0 -22 -7 -24 -23 -2 -16 -9 -22 -28 -21 -14 1 -30 -6 -36 -14 -18 -24 -44 -7 -44 28 0 30 -2 31 -29 25 -33 -7 -49 8 -31 30 16 19 59 19 66 1 8 -20 85 -17 101 4 12 16 -2 36 -45 59 -22 12 -20 44 2 35 9 -4 13 9 12 45 -1 27 -5 53 -9 57 -15 15 -7 74 11 81 14 6 13 8 -8 13 -24 6 -25 10 -25 75 0 45 -4 73 -12 78 -30 19 -7 47 39 47 17 0 19 4 13 32 -9 40 -10 42 -29 35 -9 -4 -13 -13 -10 -22 5 -11 0 -18 -15 -22 -11 -3 -21 -9 -21 -14 0 -5 -8 -9 -17 -9 -17 1 -17 1 -1 14 20 15 23 56 13 206 -5 74 -11 100 -26 116 -13 14 -19 35 -19 65 0 24 -4 59 -10 78 -5 19 -6 40 -1 49 5 9 2 30 -9 56 -10 23 -21 58 -25 78 -5 27 -13 38 -29 40 -16 2 -22 11 -24 36 -3 31 -1 33 25 30 23 -2 29 1 31 20 2 13 -3 31 -10 40 -8 9 -19 29 -26 45 -8 19 -19 27 -36 27 -26 0 -76 44 -76 67 0 21 23 27 36 9 10 -14 16 -15 33 -6 24 13 26 37 6 64 -8 11 -15 32 -15 48 0 23 -4 28 -26 28 -22 0 -24 3 -19 23 4 12 16 37 27 56 11 19 17 44 14 55 -6 22 8 81 30 133 8 17 14 42 14 55 0 13 5 29 12 36 9 9 9 15 0 24 -9 9 -13 7 -18 -5z m-2 -1895 c2 -5 17 -15 33 -23 21 -10 31 -23 33 -42 3 -24 0 -27 -27 -27 -16 0 -41 -5 -55 -11 -20 -9 -29 -9 -41 1 -20 17 -19 32 8 74 21 34 42 45 49 28z m153 -217 c0 -5 -10 -11 -22 -13 -16 -2 -23 2 -23 13 0 11 7 15 23 13 12 -2 22 -7 22 -13z"/>
        <path
                d="M3650 2241 c0 -11 8 -22 18 -25 9 -3 26 -26 37 -51 13 -28 26 -45 38 -45 26 0 21 22 -16 66 -19 21 -36 47 -40 57 -9 23 -37 22 -37 -2z"/>
        <path d="M4460 2221 c0 -22 13 -41 29 -41 26 0 31 10 18 31 -12 19 -47 27 -47 10z"/>
        <path
                d="M3578 2199 c-35 -20 -11 -82 33 -87 28 -3 55 20 44 38 -4 7 -12 7 -25 0 -32 -17 -52 -12 -48 13 2 16 9 22 26 21 12 0 22 5 22 13 0 15 -28 17 -52 2z"/>
        <path
                d="M6505 2199 c-12 -18 6 -51 25 -46 12 3 22 -3 29 -19 6 -13 15 -24 21 -24 5 0 10 -9 10 -19 0 -11 5 -23 12 -27 8 -5 9 2 5 26 -4 18 -7 36 -7 41 0 5 -13 15 -30 24 -16 9 -30 22 -30 29 0 17 -27 29 -35 15z"/>
        <path
                d="M4522 2141 c-18 -11 -5 -59 19 -66 10 -4 19 -15 19 -25 0 -29 11 -50 26 -50 18 0 18 14 -1 30 -14 12 -14 15 0 30 21 23 19 26 -12 25 -24 0 -28 4 -28 27 0 32 -6 40 -23 29z"/>
        <path d="M3840 2121 c0 -11 4 -22 9 -25 11 -7 23 22 15 35 -9 16 -24 10 -24 -10z"/>
        <path d="M4643 2103 c9 -9 19 -14 23 -11 10 10 -6 28 -24 28 -15 0 -15 -1 1 -17z"/>
        <path d="M6980 2091 c0 -19 17 -38 25 -29 7 7 -7 48 -16 48 -5 0 -9 -9 -9 -19z"/>
        <path d="M3646 2068 c9 -31 12 -34 26 -20 8 8 8 15 -2 27 -19 22 -32 18 -24 -7z"/>
        <path
                d="M3743 2070 c-16 -6 -23 -18 -23 -35 0 -29 8 -32 25 -8 16 22 35 8 35 -27 0 -17 11 -40 30 -60 19 -20 30 -43 30 -61 0 -18 5 -29 14 -29 21 0 46 -28 46 -53 0 -12 14 -40 30 -61 17 -22 30 -52 30 -67 0 -22 6 -29 30 -34 27 -6 30 -10 30 -46 0 -25 5 -39 13 -39 16 0 42 -40 39 -61 -3 -20 43 -59 70 -59 14 0 17 -5 13 -23 -5 -19 1 -28 30 -48 19 -13 38 -34 41 -47 6 -22 7 -22 25 -6 27 24 50 3 27 -23 -12 -14 -13 -21 -5 -30 37 -38 67 -92 67 -120 0 -10 9 -24 20 -31 11 -7 20 -21 20 -32 0 -15 7 -20 24 -20 15 0 27 -7 30 -18 3 -10 19 -25 35 -35 23 -13 29 -24 28 -45 -2 -21 3 -28 21 -30 16 -2 27 -14 34 -33 7 -21 16 -29 34 -29 19 0 24 -5 24 -26 0 -17 6 -28 20 -31 14 -4 20 -14 20 -35 0 -32 36 -88 57 -88 7 0 19 -11 25 -25 6 -14 22 -28 35 -31 16 -4 26 -16 30 -35 3 -16 9 -29 14 -29 5 0 9 -7 9 -15 0 -8 -4 -15 -10 -15 -5 0 -10 -4 -10 -9 0 -6 20 -13 45 -17 38 -5 45 -10 45 -29 0 -12 8 -29 18 -38 23 -21 32 -21 32 -2 0 8 -4 15 -10 15 -5 0 -10 6 -10 14 0 8 -6 21 -12 28 -7 7 -19 27 -27 43 -36 79 -48 97 -92 147 -27 29 -56 70 -65 90 -9 21 -21 38 -26 38 -4 0 -8 7 -8 16 0 23 -43 77 -144 184 -114 120 -153 165 -173 203 -18 36 -80 126 -101 146 -7 8 -24 30 -37 50 -12 20 -30 43 -40 51 -9 8 -42 52 -73 99 -58 86 -72 108 -130 205 -19 31 -38 56 -43 56 -5 0 -14 11 -19 25 -5 14 -19 29 -31 34 -12 4 -27 22 -33 42 -9 26 -17 35 -38 37 -32 4 -38 31 -13 52 12 10 13 16 4 26 -8 10 -8 14 0 14 6 0 11 7 11 15 0 17 -50 20 -87 5z"/>
        <path
                d="M3580 2025 c0 -24 5 -35 14 -35 8 0 16 -10 18 -22 4 -31 21 -32 35 -3 10 23 9 25 -13 25 -21 0 -24 5 -24 35 0 24 -5 35 -15 35 -10 0 -15 -11 -15 -35z"/>
        <path d="M3682 1965 c7 -16 17 -24 26 -20 7 3 21 5 30 5 11 0 4 8 -16 20 -44 27 -54 25 -40 -5z"/>
        <path
                d="M3212 1955 c-12 -12 -22 -30 -22 -38 0 -8 -7 -20 -15 -27 -20 -17 -20 -60 0 -60 24 0 31 -31 10 -46 -16 -12 -17 -15 -2 -47 9 -18 27 -44 40 -58 13 -13 32 -38 41 -56 8 -17 25 -34 36 -38 23 -7 26 -30 5 -42 -13 -8 -12 -13 2 -46 10 -20 20 -37 24 -37 8 0 19 52 19 88 0 13 8 31 18 39 15 13 15 14 -11 10 -21 -3 -27 -1 -23 9 9 22 -26 75 -46 70 -22 -5 -24 10 -2 18 20 8 9 26 -17 26 -11 0 -19 -7 -19 -16 0 -9 -5 -14 -12 -12 -18 6 -21 28 -4 28 21 0 21 36 1 44 -12 4 -13 10 -6 25 8 15 5 24 -14 45 -33 36 -32 56 2 56 21 0 24 3 15 12 -23 23 -14 48 16 48 64 0 72 -8 72 -67 0 -39 4 -53 13 -50 7 2 12 21 12 43 0 32 3 39 20 39 14 0 21 -8 23 -25 2 -14 10 -29 18 -33 8 -4 14 -18 14 -31 0 -24 35 -64 46 -53 4 4 -1 18 -11 33 -9 14 -15 37 -12 49 3 17 -1 25 -16 29 -10 2 -17 10 -15 17 8 23 28 21 37 -3 5 -13 21 -34 35 -47 41 -39 35 -121 -10 -121 -28 0 -30 -7 -8 -31 14 -16 13 -19 -7 -38 -27 -25 -45 -27 -57 -5 -5 9 -17 14 -27 13 -26 -5 -24 -23 3 -27 14 -2 22 -10 22 -23 0 -30 48 -26 60 6 5 14 16 25 24 25 9 0 16 12 18 28 3 23 8 27 33 27 27 0 30 -4 33 -32 2 -18 7 -33 11 -33 5 0 20 -11 36 -26 15 -14 29 -23 31 -21 6 5 -20 57 -28 57 -5 0 -8 7 -8 14 0 8 -11 36 -25 62 -14 26 -25 55 -25 64 0 10 -7 21 -16 24 -11 4 -15 14 -12 31 4 20 1 25 -14 25 -10 0 -22 10 -28 24 -10 28 -83 66 -128 66 -17 0 -33 4 -36 9 -4 5 -25 9 -49 9 -31 0 -48 -6 -65 -23z"/>
        <path
                d="M3643 1918 c2 -7 10 -13 17 -13 7 0 15 6 18 13 2 7 -5 12 -18 12 -13 0 -20 -5 -17 -12z"/>
        <path
                d="M3711 1879 c-18 -15 -21 -23 -13 -31 7 -7 12 -23 13 -37 1 -24 2 -23 10 6 7 23 17 35 35 39 16 4 24 12 22 23 -5 23 -39 24 -67 0z"/>
        <path d="M7070 1806 c0 -26 4 -36 16 -36 11 0 14 8 12 32 -4 46 -28 49 -28 4z"/>
        <path d="M3730 1772 c0 -14 35 -42 53 -42 30 0 27 18 -4 34 -36 18 -49 20 -49 8z"/>
        <path d="M3343 1735 c-11 -26 -7 -30 21 -19 19 7 22 44 4 44 -7 0 -18 -11 -25 -25z"/>
        <path
                d="M3820 1730 c0 -10 -8 -24 -17 -29 -17 -10 -16 -12 7 -31 31 -24 47 -25 59 -2 7 13 5 28 -6 50 -17 35 -43 43 -43 12z"/>
        <path
                d="M3891 1619 c-14 -24 -71 -26 -71 -4 0 8 -7 15 -15 15 -12 0 -6 -13 19 -46 20 -26 47 -70 60 -98 13 -28 36 -64 50 -79 14 -15 26 -32 26 -37 0 -5 11 -18 25 -29 15 -11 37 -36 50 -56 14 -20 35 -47 48 -60 12 -14 31 -42 42 -62 11 -21 31 -54 46 -73 15 -20 35 -51 44 -70 14 -30 22 -35 56 -37 l40 -3 -7 48 c-3 26 -8 50 -11 55 -6 11 -53 9 -53 -3 0 -18 -18 -10 -23 10 -3 11 2 27 10 36 8 8 14 16 12 17 -2 2 -12 9 -21 16 -15 11 -21 11 -33 1 -13 -10 -18 -11 -28 -1 -9 10 -6 17 16 33 33 24 34 48 4 76 -29 27 -37 28 -37 2 0 -11 5 -20 10 -20 14 0 13 -27 -1 -36 -7 -4 -16 1 -21 10 -5 9 -16 16 -23 16 -22 0 -18 36 6 51 31 21 15 49 -26 49 -32 0 -34 2 -37 38 -3 34 -6 37 -35 40 -21 2 -34 10 -38 22 -3 11 -18 29 -33 41 -25 19 -26 22 -9 33 21 16 22 32 2 40 -17 6 -20 42 -5 51 16 10 12 22 -8 27 -12 3 -24 -2 -31 -13z"/>
        <path
                d="M3510 1611 c-19 -8 -36 -16 -38 -17 -1 -1 0 -9 4 -18 4 -11 13 -15 26 -10 14 4 24 -1 34 -15 9 -12 24 -21 36 -21 11 0 22 -8 25 -20 6 -23 43 -27 43 -5 0 8 -5 15 -11 15 -5 0 -19 19 -29 43 -26 58 -46 68 -90 48z"/>
        <path
                d="M3470 1504 c0 -13 -7 -15 -27 -11 -21 4 -36 -1 -60 -24 -18 -16 -33 -33 -33 -38 0 -22 22 -21 53 3 19 15 41 26 50 26 21 0 60 38 52 50 -10 16 -35 11 -35 -6z"/>
        <path d="M3977 1514 c-8 -8 1 -24 14 -24 5 0 9 7 9 15 0 15 -12 20 -23 9z"/>
        <path
                d="M3668 1470 c25 -11 30 -40 6 -40 -9 0 -23 8 -30 18 -11 14 -13 15 -14 1 0 -34 25 -68 54 -71 41 -4 44 -26 7 -39 -33 -12 -40 -24 -17 -32 8 -3 13 -14 10 -24 -5 -24 31 -67 51 -59 21 8 19 20 -11 49 l-26 27 26 10 c15 5 32 10 37 10 15 0 11 11 -18 48 -15 20 -29 52 -32 71 -5 31 -10 36 -36 38 -27 2 -28 2 -7 -7z"/>
        <path
                d="M3563 1443 c-4 -10 -11 -21 -17 -25 -7 -5 -4 -8 7 -8 30 0 22 -49 -10 -61 -33 -12 -73 -48 -73 -65 0 -6 -7 -15 -16 -18 -14 -5 -13 -9 4 -33 13 -19 18 -38 15 -60 -3 -21 -1 -33 6 -33 6 0 11 9 11 19 0 11 9 23 21 26 16 5 19 12 15 31 -4 14 -3 30 1 37 4 7 13 30 18 52 9 36 13 40 40 40 40 0 49 40 12 54 -19 8 -23 15 -20 35 6 29 -4 35 -14 9z"/>
        <path
                d="M3443 1408 c-14 -31 -23 -34 -41 -16 -18 18 -27 0 -10 -19 9 -10 19 -28 22 -40 8 -25 14 -27 34 -14 9 5 12 25 10 62 -3 52 -4 53 -15 27z"/>
        <path d="M6857 1404 c-14 -15 -6 -34 14 -34 14 0 19 5 17 17 -3 18 -20 27 -31 17z"/>
        <path
                d="M6834 1281 c2 -33 9 -69 15 -80 6 -11 11 -32 11 -48 0 -38 35 -93 59 -93 11 0 23 -4 26 -10 3 -5 13 -10 21 -10 16 0 20 75 4 100 -7 11 -11 9 -19 -13 -6 -15 -15 -27 -20 -27 -23 0 -22 67 2 98 6 8 6 12 -2 12 -6 0 -11 -5 -11 -12 0 -9 -3 -9 -11 -1 -9 9 -9 19 0 42 15 34 0 74 -23 65 -9 -3 -17 3 -21 15 -3 12 -13 21 -21 21 -12 0 -14 -12 -10 -59z"/>
        <path
                d="M13 1304 c-3 -8 4 -25 16 -38 11 -12 21 -34 21 -49 0 -18 5 -27 16 -27 12 0 15 5 9 23 -4 12 -9 36 -10 52 -2 17 -3 36 -4 43 -2 17 -40 15 -48 -4z"/>
        <path
                d="M3810 1245 c0 -14 -4 -25 -9 -25 -6 0 -21 -10 -35 -23 -29 -27 -22 -48 24 -67 23 -10 34 -10 43 -1 6 6 19 11 29 11 22 0 24 23 3 40 -8 7 -20 30 -25 51 -12 44 -30 52 -30 14z"/>
        <path
                d="M5940 1236 c-7 -19 -17 -26 -35 -26 -14 0 -30 -9 -37 -20 -7 -11 -18 -20 -24 -20 -6 0 -17 -7 -24 -15 -11 -13 -6 -15 34 -15 44 0 46 1 40 24 -5 20 0 25 27 35 18 6 53 9 80 5 58 -8 74 10 26 30 -71 29 -76 29 -87 2z"/>
        <path d="M3593 1243 c-7 -3 -13 -9 -13 -14 0 -12 37 -12 44 0 7 11 -14 20 -31 14z"/>
        <path
                d="M3560 1190 c-17 -11 -15 -12 31 -28 47 -16 49 -16 49 9 0 16 -5 20 -19 16 -10 -2 -25 -1 -33 4 -7 4 -20 4 -28 -1z"/>
        <path
                d="M5978 1117 l-27 -32 -19 24 -20 24 -6 -21 c-4 -12 -12 -22 -17 -22 -5 0 -9 -6 -9 -14 0 -19 76 -18 92 1 7 8 23 19 36 24 14 6 22 16 20 26 -5 28 -22 25 -50 -10z"/>
        <path
                d="M3490 1116 c0 -8 5 -18 10 -21 6 -4 8 -16 5 -28 -6 -21 -6 -21 9 -3 13 16 20 18 40 8 28 -12 36 -7 36 24 0 32 -13 37 -35 11 l-18 -21 -15 22 c-17 25 -32 29 -32 8z"/>
        <path d="M2817 1093 c-11 -10 -8 -63 3 -63 6 0 10 16 10 35 0 36 -2 40 -13 28z"/>
        <path
                d="M2886 1091 c-9 -13 37 -47 66 -49 15 -1 28 5 32 13 5 14 -6 20 -28 16 -4 -1 -19 5 -32 14 -27 17 -31 18 -38 6z"/>
        <path
                d="M3620 1070 c0 -11 -8 -23 -17 -26 -10 -3 -29 -10 -43 -16 l-25 -11 25 -9 c16 -6 34 -28 50 -60 14 -29 35 -65 48 -80 13 -15 21 -32 17 -38 -8 -13 3 -50 16 -50 5 0 9 9 9 20 0 23 25 27 34 5 6 -18 -2 -45 -15 -45 -5 0 -9 -16 -9 -36 0 -21 4 -33 10 -29 6 3 10 15 10 25 0 10 9 22 20 25 15 5 20 15 20 45 0 21 5 42 10 45 15 9 12 51 -5 65 -8 6 -23 9 -36 5 -12 -4 -24 -3 -28 2 -3 5 -18 16 -33 26 -26 16 -28 22 -28 87 0 56 -3 70 -15 70 -8 0 -15 -9 -15 -20z"/>
        <path
                d="M3821 1061 c-39 -5 -44 -9 -47 -33 -2 -17 3 -31 13 -37 11 -5 14 -17 11 -35 -7 -37 5 -33 42 14 35 45 46 49 55 21 8 -27 -4 -71 -20 -71 -8 0 -16 -4 -19 -9 -4 -5 18 -9 49 -9 40 0 59 5 72 20 16 18 16 20 -20 53 -20 19 -37 43 -37 54 0 19 -28 43 -47 39 -4 0 -28 -4 -52 -7z"/>
        <path d="M5815 1050 c-8 -13 20 -24 42 -16 15 6 15 8 3 16 -20 13 -37 12 -45 0z"/>
        <path
                d="M3060 1025 c0 -21 -5 -25 -32 -25 -27 -1 -30 -2 -15 -11 22 -13 23 -49 1 -49 -13 0 -15 -7 -10 -31 3 -17 6 -35 6 -40 0 -5 5 -9 10 -9 6 0 10 7 10 15 0 8 9 19 20 25 12 6 20 21 20 35 0 21 5 25 31 25 24 0 30 4 27 18 -2 11 -11 16 -26 14 -19 -3 -22 1 -22 27 0 17 -4 31 -10 31 -5 0 -10 -11 -10 -25z"/>
        <path
                d="M27 1033 c-13 -13 -7 -53 8 -53 8 0 15 6 15 14 0 8 7 16 15 20 8 3 15 10 15 16 0 11 -43 14 -53 3z"/>
        <path d="M3700 1013 l-25 -25 30 4 c22 2 31 9 33 26 4 28 -6 27 -38 -5z"/>
        <path
                d="M2895 990 c-38 -25 -110 -27 -123 -4 -6 11 -11 13 -16 5 -11 -17 3 -31 30 -31 32 0 42 -27 18 -45 -17 -13 -17 -14 -2 -15 9 0 20 13 27 30 13 38 48 41 57 5 3 -14 10 -25 15 -25 17 0 22 30 8 46 -11 13 -9 14 13 9 28 -7 41 5 32 29 -8 21 -23 20 -59 -4z"/>
        <path d="M4340 996 c0 -18 17 -29 30 -21 8 5 7 11 -1 21 -15 18 -29 18 -29 0z"/>
        <path
                d="M67 963 c-12 -12 -7 -41 8 -47 8 -3 20 -17 25 -31 10 -28 40 -34 40 -9 0 9 -9 27 -20 41 -11 14 -20 32 -20 39 0 14 -22 19 -33 7z"/>
        <path d="M2715 950 c-8 -13 4 -32 16 -25 12 8 12 35 0 35 -6 0 -13 -4 -16 -10z"/>
        <path
                d="M4340 947 c-22 -6 -29 -12 -20 -15 8 -3 19 -11 23 -18 6 -10 12 -9 28 7 27 27 13 39 -31 26z"/>
        <path d="M400 910 c0 -19 3 -21 12 -12 9 9 9 15 0 24 -9 9 -12 7 -12 -12z"/>
        <path
                d="M4260 921 c0 -6 9 -20 20 -31 11 -11 20 -24 20 -29 0 -17 22 -24 31 -10 13 21 11 29 -10 29 -13 0 -21 8 -23 22 -3 23 -38 39 -38 19z"/>
        <path
                d="M4410 907 c0 -9 -9 -19 -20 -22 -26 -8 -26 -25 -1 -25 11 0 22 -4 26 -9 7 -12 -26 -31 -54 -31 -28 0 -27 -16 2 -31 12 -6 36 -27 53 -47 28 -32 33 -34 61 -25 28 10 30 10 25 -13 -3 -19 0 -24 16 -24 12 0 23 -4 26 -9 9 -14 -4 -41 -19 -41 -23 0 -27 -18 -8 -40 44 -50 74 -80 82 -80 4 0 17 -8 29 -18 12 -9 49 -37 82 -62 33 -25 63 -55 66 -67 3 -12 16 -24 29 -27 16 -4 25 -16 29 -40 6 -33 21 -46 52 -46 9 0 13 4 9 10 -3 5 -12 7 -20 3 -8 -3 -15 0 -15 6 0 6 7 11 15 11 20 0 40 49 25 64 -7 7 -10 3 -10 -12 0 -32 -32 -28 -58 8 -12 16 -22 35 -22 43 0 16 -31 47 -47 47 -20 0 -45 50 -34 64 8 10 7 22 -3 46 l-13 33 -13 -36 c-14 -43 -23 -46 -38 -12 -9 20 -19 25 -46 25 -21 0 -36 6 -40 15 -3 8 -12 15 -21 15 -9 0 -15 9 -15 25 0 20 5 25 26 25 16 0 36 -11 50 -25 13 -14 28 -25 34 -25 21 0 9 27 -25 56 -19 16 -35 35 -35 42 0 8 -12 31 -27 53 -25 35 -32 38 -68 36 -31 -2 -40 2 -43 16 -2 12 3 20 17 24 26 7 27 19 1 33 -11 6 -20 15 -20 21 0 6 -9 22 -20 36 -14 18 -20 21 -20 10z"/>
        <path d="M2920 889 c0 -24 23 -21 28 4 2 10 -3 17 -12 17 -10 0 -16 -9 -16 -21z"/>
        <path d="M2830 880 c0 -11 5 -20 10 -20 6 0 10 9 10 20 0 11 -4 20 -10 20 -5 0 -10 -9 -10 -20z"/>
        <path
                d="M4020 882 c0 -10 -5 -23 -11 -29 -8 -8 -8 -13 0 -17 16 -11 13 -36 -4 -36 -9 0 -18 -6 -21 -14 -3 -8 -15 -16 -26 -19 -25 -7 -19 -31 10 -35 12 -2 22 -10 22 -18 0 -10 5 -9 20 6 11 11 20 24 20 29 0 5 7 17 16 25 13 13 14 22 5 48 -6 17 -11 42 -11 54 0 13 -4 24 -10 24 -5 0 -10 -8 -10 -18z"/>
        <path d="M0 865 c1 -26 2 -28 11 -12 8 14 8 22 0 30 -8 8 -11 3 -11 -18z"/>
        <path d="M3864 848 c-9 -15 32 -49 51 -41 21 7 19 19 -7 37 -27 19 -35 20 -44 4z"/>
        <path d="M107 823 c-12 -11 -8 -23 8 -23 8 0 15 7 15 15 0 16 -12 20 -23 8z"/>
        <path
                d="M3220 778 c0 -18 6 -23 27 -25 22 -1 24 1 10 8 -9 6 -17 17 -17 24 0 8 -4 15 -10 15 -5 0 -10 -10 -10 -22z"/>
        <path
                d="M3837 732 c-9 -10 -17 -24 -17 -30 0 -6 -16 -16 -35 -23 -44 -16 -45 -27 -2 -31 28 -3 32 -7 35 -36 2 -24 10 -35 28 -42 13 -5 24 -15 24 -22 0 -7 14 -26 30 -41 17 -18 27 -35 23 -45 -3 -10 -1 -13 4 -7 16 20 65 37 77 25 13 -13 36 -13 36 0 0 6 -6 10 -12 10 -7 0 -21 14 -31 31 -14 25 -22 30 -43 26 -19 -3 -32 3 -50 22 -13 14 -24 30 -24 34 0 14 -28 37 -44 37 -23 0 -20 37 4 45 11 3 20 11 20 16 0 5 16 9 35 9 54 0 47 22 -11 34 -23 5 -34 2 -47 -12z m143 -215 c0 -8 -3 -17 -7 -20 -9 -9 -34 13 -27 24 8 14 34 11 34 -4z"/>
        <path d="M3210 703 c0 -32 4 -43 15 -43 19 0 19 20 0 56 l-15 29 0 -42z"/>
        <path d="M3776 732 c-3 -6 -1 -14 5 -17 15 -10 25 3 12 16 -7 7 -13 7 -17 1z"/>
        <path
                d="M4061 721 c-20 -15 -22 -21 -12 -39 7 -12 16 -22 21 -22 5 0 18 -10 30 -22 l20 -22 0 36 c0 40 -15 88 -27 88 -5 0 -19 -9 -32 -19z"/>
        <path d="M3105 688 c-4 -10 -4 -26 0 -35 6 -17 7 -17 16 0 7 11 7 23 0 35 -9 16 -10 16 -16 0z"/>
        <path d="M3255 689 c-10 -15 3 -25 16 -12 7 7 7 13 1 17 -6 3 -14 1 -17 -5z"/>
        <path d="M3135 630 c-8 -12 20 -24 35 -15 5 3 10 10 10 16 0 12 -37 12 -45 -1z"/>
        <path
                d="M4115 594 c-17 -13 -18 -16 -5 -24 8 -5 18 -10 23 -10 14 0 7 -29 -9 -38 -15 -8 -15 -11 1 -35 18 -27 35 -28 35 -1 0 8 7 17 15 20 12 5 12 9 -1 30 -10 15 -14 33 -10 49 5 20 3 25 -11 25 -10 0 -27 -7 -38 -16z"/>
        <path d="M4050 571 c0 -13 29 -35 37 -28 7 8 -15 37 -28 37 -5 0 -9 -4 -9 -9z"/>
        <path
                d="M3057 530 c-12 -15 -14 -26 -7 -42 8 -22 9 -22 9 5 1 17 6 27 16 27 16 0 20 15 7 24 -5 3 -16 -4 -25 -14z"/>
        <path d="M4200 498 c1 -18 37 -64 45 -56 11 11 -5 47 -26 58 -14 8 -19 7 -19 -2z"/>
        <path
                d="M4040 445 c0 -9 -10 -15 -26 -15 -22 0 -24 -3 -19 -22 12 -38 22 -41 35 -9 14 35 22 38 40 16 15 -18 30 -20 30 -4 0 11 -40 48 -52 49 -5 0 -8 -7 -8 -15z"/>
        <path
                d="M7251 426 c-7 -8 -22 -16 -34 -18 -17 -2 -23 -11 -25 -39 -2 -23 2 -40 12 -49 9 -7 16 -21 16 -32 0 -35 59 -159 79 -166 18 -6 13 56 -8 86 -23 32 -36 82 -21 82 12 0 13 119 1 138 -6 10 -10 10 -20 -2z"/>
        <path d="M4280 419 c0 -14 47 -59 61 -59 15 0 11 10 -18 41 -30 31 -43 36 -43 18z"/>
        <path d="M4230 407 c0 -16 37 -53 45 -45 3 2 -1 16 -8 31 -13 28 -37 37 -37 14z"/>
        <path
                d="M4093 366 c-4 -8 -19 -16 -33 -18 l-25 -4 27 -12 c33 -14 43 -29 29 -46 -9 -11 -5 -15 21 -18 23 -4 37 0 45 11 18 23 16 29 -9 33 -19 2 -23 8 -20 36 2 34 -19 45 -35 18z"/>
        <path
                d="M4350 332 c0 -13 -6 -22 -15 -22 -17 0 -18 -4 -16 -87 1 -50 -2 -63 -14 -63 -8 0 -15 -4 -15 -10 0 -13 4 -13 33 1 23 10 25 18 30 102 3 51 3 94 1 96 -2 2 -4 -5 -4 -17z"/>
        <path
                d="M4184 187 c-8 -21 42 -67 70 -66 17 1 18 2 4 6 -10 2 -18 8 -18 13 0 5 -11 21 -25 36 -21 22 -26 24 -31 11z"/>
        <path d="M6987 96 c-16 -42 -1 -106 22 -92 14 9 13 43 -3 81 -10 25 -13 27 -19 11z"/>
        <path d="M4294 80 c3 -14 6 -28 6 -32 0 -5 5 -8 10 -8 15 0 12 22 -7 45 -15 20 -15 19 -9 -5z"/>
        <path d="M82 64 c4 -21 22 -23 26 -1 2 10 -3 17 -13 17 -10 0 -15 -6 -13 -16z"/>
    </g>
</svg>