{
    "asset" : {
        "generator" : "Khronos glTF Blender I/O v1.6.16",
        "version" : "2.0"
    },
    "scene" : 0,
    "scenes" : [
        {
            "name" : "Scene",
            "nodes" : [
                0,
                1,
                2,
                3,
                4,
                5,
                6,
                7,
                8,
                9,
                10
            ]
        }
    ],
    "nodes" : [
        {
            "name" : "Camera",
            "rotation" : [
                0.7091279625892639,
                0.06055952608585358,
                -0.06136729568243027,
                0.6997886300086975
            ],
            "translation" : [
                1.8643767833709717,
                -0.13405868411064148,
                11.069587707519531
            ]
        },
        {
            "name" : "Point",
            "translation" : [
                -5.357100009918213,
                -0.8699465990066528,
                2.6935689449310303
            ]
        },
        {
            "name" : "Point.001",
            "rotation" : [
                -0.5190648436546326,
                -0.6948904991149902,
                0.45092374086380005,
                0.2106340527534485
            ],
            "translation" : [
                -1.6053063869476318,
                0.2818664312362671,
                -4.447484493255615
            ]
        },
        {
            "name" : "Point.002",
            "translation" : [
                -0.4415384531021118,
                6.354649543762207,
                0.6957096457481384
            ]
        },
        {
            "name" : "Point.003",
            "translation" : [
                5.6930155754089355,
                0.5997498035430908,
                1.766587734222412
            ]
        },
        {
            "name" : "Point.004",
            "translation" : [
                -3.500983715057373,
                -2.242079257965088,
                1.5567505359649658
            ]
        },
        {
            "mesh" : 0,
            "name" : "Cube.003",
            "scale" : [
                0.031866759061813354,
                0.031866759061813354,
                0.031866759061813354
            ],
            "translation" : [
                -0.9249554872512817,
                1.0615477561950684,
                0.25911274552345276
            ]
        },
        {
            "mesh" : 1,
            "name" : "Cube.005",
            "scale" : [
                0.02148870937526226,
                0.02148870937526226,
                0.02148870937526226
            ],
            "translation" : [
                0.9932774305343628,
                -1.148005485534668,
                -0.10059867054224014
            ]
        },
        {
            "mesh" : 2,
            "name" : "Cube",
            "translation" : [
                0,
                0,
                0.07048985362052917
            ]
        },
        {
            "mesh" : 3,
            "name" : "Text.005",
            "rotation" : [
                0.7071068286895752,
                0,
                0,
                0.7071068286895752
            ],
            "scale" : [
                0.7368162274360657,
                0.7368162274360657,
                0.7368162274360657
            ],
            "translation" : [
                -0.02862188220024109,
                -0.34956347942352295,
                0.308789998292923
            ]
        },
        {
            "mesh" : 4,
            "name" : "Cube.011",
            "translation" : [
                -0.34666913747787476,
                -0.39474207162857056,
                0.20887506008148193
            ]
        }
    ],
    "materials" : [
        {
            "doubleSided" : true,
            "name" : "Material.003",
            "pbrMetallicRoughness" : {
                "baseColorFactor" : [
                    0.710554301738739,
                    0.710554301738739,
                    0.710554301738739,
                    1
                ],
                "metallicFactor" : 0,
                "roughnessFactor" : 0.3987341821193695
            }
        },
        {
            "doubleSided" : true,
            "name" : "Material.001",
            "pbrMetallicRoughness" : {
                "baseColorFactor" : [
                    0.04681318998336792,
                    0.12594349682331085,
                    0.8000000715255737,
                    1
                ],
                "metallicFactor" : 0,
                "roughnessFactor" : 0.36075952649116516
            }
        }
    ],
    "meshes" : [
        {
            "name" : "Cube",
            "primitives" : [
                {
                    "attributes" : {
                        "POSITION" : 0,
                        "NORMAL" : 1,
                        "TEXCOORD_0" : 2
                    },
                    "indices" : 3,
                    "material" : 0
                }
            ]
        },
        {
            "name" : "Cube.010",
            "primitives" : [
                {
                    "attributes" : {
                        "POSITION" : 4,
                        "NORMAL" : 5,
                        "TEXCOORD_0" : 6
                    },
                    "indices" : 7,
                    "material" : 0
                }
            ]
        },
        {
            "name" : "Cube.001",
            "primitives" : [
                {
                    "attributes" : {
                        "POSITION" : 8,
                        "NORMAL" : 9,
                        "TEXCOORD_0" : 10
                    },
                    "indices" : 11,
                    "material" : 0
                }
            ]
        },
        {
            "name" : "Text.005",
            "primitives" : [
                {
                    "attributes" : {
                        "POSITION" : 12,
                        "NORMAL" : 13,
                        "TEXCOORD_0" : 14
                    },
                    "indices" : 15
                }
            ]
        },
        {
            "name" : "Cube.018",
            "primitives" : [
                {
                    "attributes" : {
                        "POSITION" : 16,
                        "NORMAL" : 17,
                        "TEXCOORD_0" : 18
                    },
                    "indices" : 19,
                    "material" : 1
                }
            ]
        }
    ],
    "accessors" : [
        {
            "bufferView" : 0,
            "componentType" : 5126,
            "count" : 508,
            "max" : [
                4,
                3.999999761581421,
                1
            ],
            "min" : [
                -4,
                -4,
                -1
            ],
            "type" : "VEC3"
        },
        {
            "bufferView" : 1,
            "componentType" : 5126,
            "count" : 508,
            "type" : "VEC3"
        },
        {
            "bufferView" : 2,
            "componentType" : 5126,
            "count" : 508,
            "type" : "VEC2"
        },
        {
            "bufferView" : 3,
            "componentType" : 5123,
            "count" : 2100,
            "type" : "SCALAR"
        },
        {
            "bufferView" : 4,
            "componentType" : 5126,
            "count" : 1016,
            "max" : [
                13.04224967956543,
                16.591920852661133,
                1
            ],
            "min" : [
                -4,
                -4,
                -2.6612186431884766
            ],
            "type" : "VEC3"
        },
        {
            "bufferView" : 5,
            "componentType" : 5126,
            "count" : 1016,
            "type" : "VEC3"
        },
        {
            "bufferView" : 6,
            "componentType" : 5126,
            "count" : 1016,
            "type" : "VEC2"
        },
        {
            "bufferView" : 7,
            "componentType" : 5123,
            "count" : 4200,
            "type" : "SCALAR"
        },
        {
            "bufferView" : 8,
            "componentType" : 5126,
            "count" : 273,
            "max" : [
                0.8385555744171143,
                1,
                0.08412576466798782
            ],
            "min" : [
                -0.8385555744171143,
                -1,
                -0.22320476174354553
            ],
            "type" : "VEC3"
        },
        {
            "bufferView" : 9,
            "componentType" : 5126,
            "count" : 273,
            "type" : "VEC3"
        },
        {
            "bufferView" : 10,
            "componentType" : 5126,
            "count" : 273,
            "type" : "VEC2"
        },
        {
            "bufferView" : 11,
            "componentType" : 5123,
            "count" : 948,
            "type" : "SCALAR"
        },
        {
            "bufferView" : 12,
            "componentType" : 5126,
            "count" : 6686,
            "max" : [
                0.498919814825058,
                0.04999999701976776,
                0.39650556445121765
            ],
            "min" : [
                -0.6723461747169495,
                -0.04999999701976776,
                -0.2734881341457367
            ],
            "type" : "VEC3"
        },
        {
            "bufferView" : 13,
            "componentType" : 5126,
            "count" : 6686,
            "type" : "VEC3"
        },
        {
            "bufferView" : 14,
            "componentType" : 5126,
            "count" : 6686,
            "type" : "VEC2"
        },
        {
            "bufferView" : 15,
            "componentType" : 5123,
            "count" : 28572,
            "type" : "SCALAR"
        },
        {
            "bufferView" : 16,
            "componentType" : 5126,
            "count" : 1024,
            "max" : [
                1.2955710887908936,
                1.507319688796997,
                0.06583736836910248
            ],
            "min" : [
                -0.6445462703704834,
                -0.49268031120300293,
                -0.6739029884338379
            ],
            "type" : "VEC3"
        },
        {
            "bufferView" : 17,
            "componentType" : 5126,
            "count" : 1024,
            "type" : "VEC3"
        },
        {
            "bufferView" : 18,
            "componentType" : 5126,
            "count" : 1024,
            "type" : "VEC2"
        },
        {
            "bufferView" : 19,
            "componentType" : 5123,
            "count" : 4056,
            "type" : "SCALAR"
        }
    ],
    "bufferViews" : [
        {
            "buffer" : 0,
            "byteLength" : 6096,
            "byteOffset" : 0
        },
        {
            "buffer" : 0,
            "byteLength" : 6096,
            "byteOffset" : 6096
        },
        {
            "buffer" : 0,
            "byteLength" : 4064,
            "byteOffset" : 12192
        },
        {
            "buffer" : 0,
            "byteLength" : 4200,
            "byteOffset" : 16256
        },
        {
            "buffer" : 0,
            "byteLength" : 12192,
            "byteOffset" : 20456
        },
        {
            "buffer" : 0,
            "byteLength" : 12192,
            "byteOffset" : 32648
        },
        {
            "buffer" : 0,
            "byteLength" : 8128,
            "byteOffset" : 44840
        },
        {
            "buffer" : 0,
            "byteLength" : 8400,
            "byteOffset" : 52968
        },
        {
            "buffer" : 0,
            "byteLength" : 3276,
            "byteOffset" : 61368
        },
        {
            "buffer" : 0,
            "byteLength" : 3276,
            "byteOffset" : 64644
        },
        {
            "buffer" : 0,
            "byteLength" : 2184,
            "byteOffset" : 67920
        },
        {
            "buffer" : 0,
            "byteLength" : 1896,
            "byteOffset" : 70104
        },
        {
            "buffer" : 0,
            "byteLength" : 80232,
            "byteOffset" : 72000
        },
        {
            "buffer" : 0,
            "byteLength" : 80232,
            "byteOffset" : 152232
        },
        {
            "buffer" : 0,
            "byteLength" : 53488,
            "byteOffset" : 232464
        },
        {
            "buffer" : 0,
            "byteLength" : 57144,
            "byteOffset" : 285952
        },
        {
            "buffer" : 0,
            "byteLength" : 12288,
            "byteOffset" : 343096
        },
        {
            "buffer" : 0,
            "byteLength" : 12288,
            "byteOffset" : 355384
        },
        {
            "buffer" : 0,
            "byteLength" : 8192,
            "byteOffset" : 367672
        },
        {
            "buffer" : 0,
            "byteLength" : 8112,
            "byteOffset" : 375864
        }
    ],
    "buffers" : [
        {
            "byteLength" : 383976,
            "uri" : "data:application/octet-stream;base64,"
        }
    ]
}
