<svg xmlns="http://www.w3.org/2000/svg" width="600" height="600" xmlns:v="https://vecta.io/nano"><style><![CDATA[.Bg{fill:#efefef}.Bh{fill:#d6d6d6}.Bi{fill:#e5e5e5}.Bj{fill:#dadada}.Bk{fill:#585858}.Bl{fill:#d3d3d3}.Bm{fill:#eee}.Bn{fill:#e1e1e1}.Bo{fill:#dcdcdc}.Bp{fill:#c4c4c4}.Bq{fill:#e3e3e3}.Br{fill:#8b8b8b}.Bs{fill:#a1a1a1}.Bt{fill:#ebebeb}.Bu{fill:#e4e4e4}.Bv{fill:#565656}.Bw{fill:#8e8e8e}.Bx{fill:#d4d4d4}.By{fill:#d0d0d0}.Bz{fill:#e6e6e6}.CA{fill:#cbcbcb}.CB{fill:#dedede}.CC{fill:#707070}.CD{fill:#4c4c4c}.CE{fill:#f1f1f1}.CF{fill:#cdcdcd}.CG{fill:#b4b4b4}.CH{fill:#c1c1c1}.CI{fill:#d9d9d9}.CJ{fill:#0b0b0b}.CK{fill:#717171}.CL{fill:#434343}.CM{fill:#040404}.CN{fill:#e7e7e7}.CO{fill:#f7f7f7}.CP{fill:#e9e9e9}.CQ{fill:#cacaca}.CR{fill:#e8e8e8}.CS{fill:#c3c3c3}.CT{fill:#494949}.CU{fill:#b1b1b1}.CV{fill:#3b3b3b}.CW{fill:#121212}.CX{fill:#f2f2f2}.CY{fill:#ededed}.CZ{fill:#404040}.Ca{fill:#d1d1d1}.Cb{fill:#1d1d1d}.Cc{fill:#474747}.Cd{fill:#bfbfbf}.Ce{fill:#b8b8b8}.Cf{fill:#c7c7c7}.Cg{fill:#c9c9c9}.Ch{fill:#151515}.Ci{fill:#b6b6b6}.Cj{fill:#dfdfdf}.Ck{fill:#ececec}.Cl{fill:#b2b2b2}.Cm{fill:#414141}.Cn{fill:#373737}.Co{fill:#1e1e1e}.Cp{fill:#343434}.Cq{fill:#727272}.Cr{fill:#686868}.Cs{fill:#a4a4a4}.Ct{fill:#424242}.Cu{fill:#737373}.Cv{fill:#aeaeae}]]></style><path d="M0 0h600v600H0V0z"/><path d="M350 68h3v19l5.813-.187C397.554 86.852 439.122 103.585 468 129l2.508 2.176C507.193 163.548 530.495 207.879 534 257v11h46v3h-46v11c-4.411 50.296-27.707 95.766-66.043 128.66C461.431 416 461.431 416 459 416l1.969 2.887 2.531 3.801 1.301 1.896c1.864 2.825 3.11 4.875 3.668 8.248C468 435 468 435 465 437c1.603 7.176 4.16 13.746 6.99 20.52 5.213 13.096 6.416 26.95 7.603 40.866 1.327 15.413 3.143 30.696 5.47 45.989 1.776 11.694 3.502 23.369 4.813 35.125l.364 3.197c.628 5.875.761 11.314.761 17.303H0c0-171 0-171 4-176 1.121-2.398 2.127-4.723 3.063-7.187l.782-2.006c1.689-4.396 3.185-8.816 4.417-13.365.845-2.796 1.877-5.506 2.915-8.235.837-2.244 1.626-4.499 2.401-6.765 3.09-9.025 6.332-17.917 10.079-26.691 1.571-3.716 2.834-7.332 3.78-11.25 1.322-4.76 3.917-7.56 7.309-11.07 3.365-3.628 6.181-7.628 9.078-11.633C50.036 322.954 52.412 320.5 55 318l2.688-2.812C60 313 60 313 62 313l.773-1.781c2.993-5.413 8.225-8.745 14.063-10.488 4.025-1.062 8.085-1.907 12.164-2.73l5-1.125 1.928-.41c1.837-.413 3.654-.911 5.466-1.422 6.005-1.505 12.145-1.996 18.293-2.605l3.881-.396c8.515-.839 17.001-1.383 25.549-1.698 10.669.226 10.669.226 19.883-3.344v-16h-46v-3h46v-16c.305-3.344.64-6.521 1.188-9.812l.406-2.523c4.354-25.732 14.115-50.082 28.403-71.929 1.264-2.185 1.769-4.231 2.004-6.735h2l-.254 2.152-.309 2.785-.316 2.777L202 171l1 1 .313 3.563c.348 3.136 1.008 5.325 2.563 8.063 2.683 4.868 3.484 10.081 4.512 15.496.315 2.763.315 2.763 1.613 3.879.041 2 .043 4 0 6-6.523-1.354-6.523-1.354-8.937-4.625L202 202c-1.188 3.429-.802 5.378.438 8.75l.871 2.422L204 215l1-3h2l.188 3.375c.644 5.449 3.181 9.886 5.813 14.625l2-5h2l-.035 1.977c-.05 4.8.041 9.301 1.035 14.023h-3l1 2h3l-.5-3.375c-.54-4.916-.647-9.809-.687-14.75l-.039-2.314c-.008-4.901.666-8.912 2.227-13.561h2l.313-3.625c.483-3.959 1.77-6.86 3.688-10.375.888-2.584.989-4.167.813-6.937C227 185 227 185 228.25 182.188c4.375-3.48 9.309-3.093 14.75-3.187l-4-2 7-4-1 3h5c1.125 1.75 1.125 1.75 2 4-.875 2.25-.875 2.25-2 4l3-1c1.219-2.504 1.219-2.504 2-5l2 1c.414 2.066.414 2.066.625 4.563l.227 2.504L258 188c4.778 1.017 4.778 1.017 9.438.063L269 187v-2l4-1v2l3.188-.562c3.498-.401 5.464-.191 8.813.563h3.5c3.035 0 5.567.289 8.5 1l1-6c3-1 3-1 5.043-.004l2.145 1.441 2.168 1.434L309 185l-1-2.312c-1.339-4.939-1.163-9.602-1-14.687 2.038 2.604 3.718 5.164 5.188 8.125l1.043 2.07C314 180 314 180 314 182h4l-.937-2.062c-1.196-3.307-1.653-6.453-2.062-9.937h2v2h2l.25 2.375c.478 2.772.478 2.772 2.813 3.938L324 179l-1.062-1.812C322 175 322 175 323 172l1 3 5 1 1 4 1.688-1c2.615-1.131 4.493-1.157 7.313-1v2l1.938.875C343 182 343 182 344 184l.75 5.5c.847 5.385 2.439 9.529 5.129 14.246 2.501 5.028 2.402 10.557 2.684 16.066l.131 2.389L353 228c1.855-1.855 1.222-5.076 1.313-7.562.301-5.92 1.181-11.501 2.625-17.25l.515-2.082c.8-3.024 1.299-4.856 3.548-7.105 2.125.375 2.125.375 4 1 .28 4.846-.1 8.809-1.375 13.5-1.307 4.832-2.082 9.595-2.625 14.563-.991 8.794-2.417 16.298-7 23.938l-1 21h177c-1.691-22.323-1.691-22.323-6-44l-.526-2.022C517.217 198.693 506.181 176.716 491 158l-1.351-1.674C460.724 120.72 419.311 98.558 374 92c-5.159-.517-10.31-.748-15.492-.859C355 91 355 91 353 90l1 35c-4.804-4.118-8.17-7.263-12-12l-5-5-3-3c5.014.152 7.334 2.927 10.645 6.309C346 113 346 113 346 115l3 1 1-26-12.312 1.375-3.81.419C326.856 92.592 319.933 93.63 313 95l-1 3c-1.937-.375-1.937-.375-4-1l-1-2h-3v-2c14.927-4.827 30.39-6.468 46-6V68z" fill="#fafafa"/><path d="M122 316c27.507 1.471 27.507 1.471 40 7l1 2c-6.244 10.217-13.226 16.688-23.301 23.109-2.349 1.645-3.875 3-5.574 5.266C132 356 132 356 129.152 356.832c-3.899 1.445-5.226 3.19-7.715 6.48-2.951 3.856-5.976 7.285-9.437 10.688l-8.25 8.75-4.328 4.609-1.919 2.046c-2.517 2.671-3.274 2.706-7.003 2.907-6.717.625-12.238 2.426-17.062 7.25-1.691 2.397-1.691 2.397-1.437 5.438h2v-3c2.695-.898 5.213-1.482 8-2l3.125-.625C88 399 88 399 91 400l1-2h3l2-4h3l.75-2.687c1.3-3.444 2.737-5.643 5.25-8.312h2l1-4h2l1-3 7-1c1.257 2.906 2 4.796 2 8h2a134.66 134.66 0 0 1 4.625 7l1.273 2.023L132 397c-1.834-3.754-3.896-7.356-5.977-10.977C125 384 125 384 125 382h-2l-1.562-4.25-.879-2.391c-.604-2.55-.406-3.913.441-6.359l3 5.875 1.688 3.305C127 381 127 381 127 383l3 1v2l2.313.688c3.263 1.593 4.15 3.076 5.688 6.313v2l4 2v2h2l2 2-1.066-1.328c-4.525-5.813-8.828-11.975-11.934-18.672l1-3 1 2c2.322.407 4.657.744 7 1 .563 1.938.563 1.938 1 4l-1 1 2 1 1-3v2l3 1 .875 1.938c1.516 2.779 3.184 3.134 6.125 4.063v2h2v2l1.688.688c2.974 1.688 5.033 3.779 7.313 6.313v2c6.179.686 6.179.686 11.93-1.113 1.406-1.242 2.744-2.56 4.07-3.887h2l1 2 2.75-1.687c5.581-2.392 10.722.028 16.25 1.688l6.188 1.438c3.767.916 6.991 2.05 10.438 3.813 4.916 2.32 9.171 2.134 14.375.75 3.205-1.609 3.205-1.609 6-4l3.438-2.625 2.027-1.543c3.872-2.798 7.881-5.391 11.904-7.965 6.538-4.264 12.155-9.397 17.737-14.832l2.041-1.982 4.117-4.062 2.029-1.955 1.798-1.769c2.429-1.611 4.053-1.505 6.909-1.266l1-3c2.857 4.285 2.389 8.666 2.479 13.664.17 4.751.943 7.259 3.521 11.336.371 3.086.371 3.086.438 6.375.331 5.88 1.263 8.816 4.563 13.625l2.063 4.188c1.112 2.276 2.148 4.091 3.688 6.125C312 421 312 421 312 424h2c3.06 3.264 4.898 6.698 6.789 10.684 1.958 3.746 4.358 7.204 6.723 10.703 1.486 2.61 2.089 4.657 2.488 7.613h-2l-.621 1.934-.816 2.504-.809 2.496C325 462 325 462 324 463c-.45 4.261-.45 4.261 1.5 7.875L327 472c1.211-2.421.946-3.483.563-6.125L327 462l3 1-.625-3.375L329 456l2-2 1 3 2.438.375L337 458l1 2c4.76 2.737 9.777 4.402 15 6l2.563.875c6.873.352 13.749-4.452 19.689-7.537C379.793 457 379.793 457 382 457c-1.444 3.614-3.154 5.041-6.437 7.063-2.858 1.775-5.276 3.46-7.562 5.938l5.813-2.375 3.27-1.336c3.025-1.237 3.025-1.237 5.918-3.289l3 1c-10.033 9.983-22.715 16.934-37.125 17.313-4.774-.145-9.275-1.068-13.875-2.312 6.462 4.297 18.054 2.758 25.395 1.348 10.558-3.293 20.596-8.711 28.605-16.348 2.513 2.513 2.638 4.234 3.375 7.688 1.353 5.701 2.879 10.567 7.125 14.813 2.489 2.489 3.883 5.378 5.5 8.5v3l1.813-.625C409 497 409 497 412 499l-1 4 1.781.648c3.775 2.299 5.306 6.246 7.438 10.016L422 516h4c1.276-2.91 1.276-2.91.313-5.562-1.556-2.89-2.381-3.135-5.312-4.437-2.192-1.542-4.024-3.159-6-5v-3h-3c-1.824-1.242-1.824-1.242-3.687-2.875l-1.887-1.617C405 492 405 492 405 490h-2c-1.437-1.977-1.437-1.977-3-4.625l-1.562-2.602c-1.49-2.874-2.443-5.697-3.437-8.773l-2.562-5.5c-2.511-5.885-3.098-11.208-3.297-17.566-.011-2.996-.011-2.996-1.141-5.934l-1.687-.812c-3.536-1.816-6.2-3.769-8.312-7.187-1.132-5.686-.123-10.702 1.465-16.187 1.561-5.544 2.247-10.893 2.66-16.625l.236-2.951c.796-10.398 1.261-20.815 1.639-31.236l4-2c3 5.625 3 5.625 3 9h2l.375 2.188c.827 3.722 2.275 7.021 3.813 10.5L398 392l-1 2h2v3l2 1-1 2h2c1.125 6.75 1.125 6.75 0 9l3 1-1 2a75.68 75.68 0 0 0 1 5h2c1.289 1.531 1.289 1.531 2.625 3.5l1.352 1.969L412 424h-3c-1.789-1.934-1.789-1.934-3.625-4.437l-1.852-2.496L402 415l-1-1 1.938 2.75c2.946 5.049 2.875 10.533 3.063 16.25h2c1.625 1.5 1.625 1.5 3 3v-3l7 2c-1.875 1.063-1.875 1.063-4 2l-2-1-1 5h-2l2 11 3 1a71.64 71.64 0 0 1 2.5 7.063l1.305 4.137L419 468l1.625 4.375a173.41 173.41 0 0 1 2.813 8c1.07 3.278 2.295 6.444 3.625 9.625 1.606 3.925 2.679 7.727 3.445 11.895.8 3.422 2.249 6.544 3.641 9.762 2.733 6.337 4.925 12.667 6.871 19.285 1.145 3.571 2.597 6.891 4.246 10.254C446 543 446 543 446 546h2l1.5 4.75.844 2.672C451 556 451 556 451 560l3-1 .586 1.898.789 2.477.773 2.461c.75 2.329.75 2.329 2.852 4.164v3h3v14l3-1v2h-2l3 5 2-2c1 2 1 2 1 9H0v-49h2v-3h5v2h3l1 3 2.063 2.063L15 557v2h2l-.105 1.863-.082 2.449-.105 2.426c.359 2.774 1.284 3.42 3.293 5.262l-.734-3.504c-2.505-12.345-4.306-24.714-5.782-37.217C11.871 512.77 11.871 512.77 5 497H4c-4.51-15.126-1.015-32.835 5.75-46.75L11 448c1.33 3.989.183 5.992-1 10a109.96 109.96 0 0 0-.5 4.125C9.066 465.49 8.427 467.956 7 471h3l1 10-5-2v3h2a90.35 90.35 0 0 1 4 4l1.688 1.438c1.782 2.121 2.102 3.827 2.313 6.563l-2 2v-2h-2c.776 3.075.776 3.075 3 5 2 2 2 2 3 5l-.062-2.875C18 498 18 498 19 496c.221-1.716.392-3.439.535-5.164l.264-3.152.264-3.309.275-3.238c.369-4.512.717-8.975.639-13.504.055-8.496 2.811-16.831 6.023-24.633h3l-1-3h2l.313-1.687c.828-2.784 2.065-4.911 3.688-7.312l2-1 1-3a90.35 90.35 0 0 1 4-4l-3-1 4.375-3.5 2.461-1.969C48 415 48 415 50 415v-2h3v-2c1.577-1.25 3.215-2.424 4.875-3.562 5.079-3.581 9.62-7.479 14.129-11.75C74 394 74 394 76 394l.125-1.812C77.46 388.85 79.778 388.432 83 387c6.821-3.663 12.716-8.127 18.703-13.02l2.014-1.637 4.004-3.293 1.889-1.539 1.687-1.392c1.884-1.238 3.503-1.698 5.704-2.12v-2h2v-2a136.5 136.5 0 0 1 5-3 163.44 163.44 0 0 0 4.625-3.625l2.613-2.121L134 349l2.918-2.348 2.895-2.34 2.645-2.137c3.281-2.808 6.289-5.829 9.23-8.988C153 332 153 332 155 332l-2-5c-3.375-.25-3.375-.25-7 0l-1.5 1.563L143 330c-5.505-.306-9.21-1.884-13.875-4.75l-3.43-2.047c-3.078-2.516-3.166-3.431-3.695-7.203z" fill="#020202"/><path d="M353 271h177c0 19.828 0 19.828-1.625 28.313l-.542 2.931C519.744 343.982 497.086 385.814 462 411l-5 3-1.871-2.676C447.622 400.655 440.209 390.264 430 382l-2.559-2.18c-8.184-6.895-16.235-12.58-26.175-16.596-9.482-3.864-14.591-7.487-20.267-16.225l-1.263-1.472c-4.425-5.338-5.005-10.92-5.862-17.653l-.883-6.383-.364-2.833c-.945-4.001-2.582-6.798-5.753-9.41-3.897-1.694-7.664-1.984-11.875-2.25-3.801-11.402-2-23.981-2-36z"/><path d="M336 213l4 3-17 5 4.313 1.313c3.319 1.01 5.587 1.852 7.688 4.688.512 2.262.512 2.262.688 4.688l.199 2.449L336 236c-3.902 2.409-7.907 4.561-12 6.625l-1.828.945c-3.4 1.715-6.457 2.706-10.172 3.43l-1 2c-3.344-.557-6.033-1.352-9-3l-1 7h32l-.09 13.732-.008 2.576-.016 2.65c-.114 2.036-.114 2.036 1.114 3.041-.094 2.066-.252 4.128-.437 6.188-.409 5.084-.612 10.087-.562 15.188l-.016 3.5c-.027 3.003-.027 3.003.219 5.5.047 2 .047 2-1.203 5.625-4.837 4.509-10.157 8.535-17 8.375l-2.062-.289c-2.461-.109-3.84.687-5.937 1.914l-1.625-1.5c-2.99-1.888-4.898-1.727-8.375-1.5h-2c-3.303 3.452-3.303 3.452-4 8-2.827 5.418-6.523 8.321-12 11h-2v2l-5 5-1 2-4.875-.437-2.742-.246C261 345 261 345 259 344a82.35 82.35 0 0 0-4.312.063c-3.7.018-6.494.004-9.687-2.062-3.498-4.997-3.6-10.08-4-16l-11-4-.909-17.822-.312-6.052-.439-8.743-.148-2.694a88.18 88.18 0 0 1 .62-15.513c.246-2.847-.156-5.407-.812-8.176l-3 1 1-4h2l.375-1.812C229 256 229 256 231 253c.142-2.602.188-5.091.125-7.687l-.027-2.127L231 238l-2-1v-15h4v-5c1.563 1.25 1.563 1.25 3 3-.312 2.188-.312 2.188-1 4h2v3h9l1-2c2.063-.625 2.063-.625 4-1v2l1.625-.625c3.23-.51 5.319.525 8.375 1.625 1.994.369 3.993.713 6 1v1c4.615 1.042 4.615 1.042 9 0v2l4.25-.437 2.391-.246c2.188-.293 4.231-.741 6.359-1.316 3.365-.821 4.64-1.12 8 0v-2h3l2-11 1 2 6.938-1.375 2.084-.411c3.64-.724 7.251-1.509 10.853-2.401 4.294-.958 8.762-1.588 13.125-.812z" fill="#050505"/><path d="M421 436.938c3.498 3.275 6.262 7.149 9 11.063l3.688-1.312c2.074-.738 2.074-.738 4.313-.687 4.835 3.669 6.715 8.157 8.875 13.625l1.027 2.521c5.011 12.42 9.55 25.001 13.723 37.726l5.313 15.441C478.94 549.698 478.94 549.698 481 560l-10 6v-2l-4 1v-2h2c1.765-3.088 2-4.233 2-8 2-2.25 2-2.25 4-4l-2.437-7.875-.697-2.262c-1.219-4.014-1.219-4.014-2.865-7.863l-1 4-2-1v7h-3c-.359 5.38.636 9.662 2.129 14.82 1.003 3.66 1.845 7.341 2.621 11.055l.797 3.742c.429 3.203.295 5.3-.547 8.383v1h1c1.405 6.12 2.233 11.717 2 18h-2l-1-7-3 2-.937-3.437c-.692-3.35-.692-3.35-2.062-4.562-1.179-4.452-2.115-9.771 0-14h-3l-2.437-4.25-1.371-2.391a23.37 23.37 0 0 1-2.191-6.359h-2c-3.444-9.41-3.444-9.41-3-14h-2l-3.812-10-1.08-2.832-7.607-20.23c-.953-2.568-1.984-4.999-3.125-7.5C429 502 429 502 428.625 498.75c-.582-3.489-1.412-5.616-2.937-8.75-2.684-5.606-4.141-11.253-5.645-17.266-1.287-4.608-3.044-8.884-4.992-13.246C414 457 414 457 413.48 454.73L413 453l-2-1c-1.933-3.759-2.195-6.809-2-11h2l1-5c3.999-1.238 5.413-1.379 9 .938z" fill="#f9f9f9"/><path d="M451.75 431.875l2.887.237 2.723.255 2.421.222c2.368.438 4.128 1.236 6.22 2.411h-4l.734 1.957c2.663 7.486 4.378 14.886 5.694 22.718l.446 2.395.367 2.149c.761 2.322.761 2.322 4.758 3.781l-1 9h2c.724 5.48 1.272 10.954 1.742 16.461.233 2.67.233 2.67.883 5.789.375 2.75.375 2.75-.187 6.5L477 509l2 2a128.65 128.65 0 0 1 1.125 8.563l.262 2.346c.412 3.923.636 7.738.543 11.682-.045 3.693.563 6.765 1.558 10.303.985 4.052 1.221 8.211 1.575 12.357l.473 5.266.199 2.321c.363 2.959.93 5.493 2.265 8.163.07 1.54.085 3.083.063 4.625l-.027 2.477L487 581h-2l1 5h2c1.292 4.12 2.263 7.668 2 12-2-3-2-3-2-6l-2 1 .063 2.938C486 599 486 599 485 600c-4.668.144-9.329.042-14 0l-3-17-2 1 1.043-2.164c1.093-3.239.926-4.885.27-8.211l-.602-3.16L466 567l-1.169-5.856-1.147-5.601c-1.937-10.037-1.937-10.037-.684-12.543h3v-7l3-1-3-1 4-2 2.438 7.188.697 2.041c2.437 7.24 2.437 7.24 2.865 10.771-1.312 1.813-1.312 1.813-3 3h-2l.688 2.313c.313 2.688.313 2.688-1 4.5C469 563 469 563 467 563v2l1.875-.5C471 564 471 564 473 564a62.86 62.86 0 0 0 3.625-2l3.375-2c-3.583-20.027-12.118-40.115-19.146-59.14-1.766-4.797-3.441-9.603-4.986-14.476-2.747-8.621-5.998-17.013-9.43-25.384l-1.392-3.495-1.362-3.255-1.201-2.922c-1.845-2.898-3.178-3.525-6.482-4.328-3.255.779-3.255.779-6 2l-5.437-6.312-1.564-1.803-1.494-1.748-1.381-1.603C419 436 419 436 418 433c10.487-4.028 22.765-2.062 33.75-1.125z" class="CM"/><path d="M259 114l3 1-2 2-2 4-2-2-3 4c.833 2.167.833 2.167 3 3l-2 2 2.438-.062C259 128 259 128 260 129l.75-1.875c1.456-2.476 2.628-3.076 5.25-4.125v3l4-2 1 3h-2l-1 9h-2v3h-3v3h3l1-3c4.333-3 4.333-3 7-3l1 7 3-6h2c.075 3.885-.028 7.249-1 11l1 2c.704-5.029 1.11-9.99 1.375-15.062.35-5.341 1.061-9.255 3.625-13.937h1c.125 5.75.125 5.75-1 8h2l1-3 1 6 3-3 1 2v-5h3v-2l2-1 1-2c2.5 1.75 2.5 1.75 5 4v4l-2-4-4 1v7l3-2v5l4 1-2-7 3 1v2h2v2l2-1v-4c3 1 3 1 4 3l1-3h2l1.75 1.938c2.734 2.506 4.618 2.732 8.25 3.063v-2h2l.184 1.934.254 2.504.246 2.496c.106 2.053.106 2.053 1.316 3.066l1-5h4v2l7 2v3l3-1 2 7-5 1v2c-2.375-.187-2.375-.187-5-1-1.312-2.562-1.312-2.562-2-5l-3 1v4h-2l-1-3c-1.74-1.186-1.74-1.186-4-1-2.687 2.271-2.687 2.271-5 5l-2 2-2 3v-2h-2l-1 3-2-1 1-2-7-2c-2.932 5.629-3.202 8.772-2 15l-2-1c-1.299-4.288-1.075-8.565-1-13h-2l-2 4-1.687-.437c-2.426-.59-4.862-1.086-7.312-1.562v6l-2 1c-2.125-.937-2.125-.937-4-2l-3 3-1-4-3 1c-3-2-3-2-4-5v3h-2c-1.075-2.652-2.095-5.284-3-8h-2l1 3-9 2 .438-2.371.563-3.066.563-3.059c.466-2.244.466-2.244.438-3.504h-3l-1 4h-3l-1-3c1.281-1.707 2.618-3.374 4-5l1-3 1-1-4 4v-2c-3.113.669-3.113.669-4.187 3.063L247 145l-3-3-1 3-2-5-1 1h-5l6-8-1-1-1.25 2.375C237 137 237 137 234.875 138L233 139c-.663 2.484-.663 2.484-1 5l-2 2-3-1c-1.743 2.297-3.399 4.599-5 7l1-7-3 4c.551-3.949 1.389-7.349 3-11l3 3 1.18-1.906c4.341-6.641 9.153-11.73 15.82-16.094h2l1.625-1.812c2.735-2.519 5.081-3.357 8.57-4.477 2.015-.655 2.015-.655 3.805-2.711z" class="Bg"/><path d="M200 173l2 1 .582 4.891c.649 3.276 2.112 6.11 3.578 9.094C207 190 207 190 207 193l-3.437.438c-3.37.174-3.37.174-4.562 1.563-.431 6.455.785 11.674 2.688 17.813l1.648 5.547.843 2.826c1.295 4.437 2.47 8.904 3.634 13.377l.626 2.396L210 243l.624 2.14C211 247 211 247 210 248.563c-2 1.438-2 1.438-5.437 2.813-3.989 1.819-5.335 2.886-7.562 6.625l-3 10h-22c-1.332-32.85 9.472-66.449 27-94l1-1z" fill="#010101"/><path d="M122 316c27.507 1.471 27.507 1.471 40 7l1 2c-6.244 10.217-13.226 16.688-23.301 23.109-2.349 1.645-3.875 3-5.574 5.266C132 356 132 356 129.152 356.832c-3.899 1.445-5.226 3.19-7.715 6.48-2.951 3.856-5.976 7.285-9.437 10.688l-8.25 8.75-4.328 4.609-1.919 2.046c-2.517 2.671-3.274 2.706-7.003 2.907-6.717.625-12.238 2.426-17.062 7.25-1.691 2.397-1.691 2.397-1.437 5.438h2v-3c2.695-.898 5.213-1.482 8-2l3.125-.625C88 399 88 399 91 400l1-2h2v2l2 1-3 2-3-1v2h2l-1 3h-4l1 3c-6.75 3-6.75 3-9 3l-1 3c-1.562 1.688-1.562 1.688-3 3l6 1v2l4 1h-2c1.392 2.784 3.156 2.979 6 4l1-2 2 1v2h-2v2c-3.689 1.156-7.214 1.167-11.062 1.188l-3.723.043C72 431 72 431 69 429v-2l-3-1 2-6c-2.491-1.245-3.411-.777-6 0v3h-2l-2 5 7 2v1l-5 1 1 2h2l-1 7c-3 1-3 1-5.625.188C54 440 54 440 53 438l-2 3c-3.125.188-3.125.188-6 0v-2l-4 1-1-3h-5v-6l2-1 1-3a90.35 90.35 0 0 1 4-4l-3-1 4.375-3.5 2.461-1.969C48 415 48 415 50 415v-2h3v-2c1.577-1.25 3.215-2.424 4.875-3.562 5.079-3.581 9.62-7.479 14.129-11.75C74 394 74 394 76 394l.125-1.812C77.46 388.85 79.778 388.432 83 387c6.821-3.663 12.716-8.127 18.703-13.02l2.014-1.637 4.004-3.293 1.889-1.539 1.687-1.392c1.884-1.238 3.503-1.698 5.704-2.12v-2h2v-2a136.5 136.5 0 0 1 5-3 163.44 163.44 0 0 0 4.625-3.625l2.613-2.121L134 349l2.918-2.348 2.895-2.34 2.645-2.137c3.281-2.808 6.289-5.829 9.23-8.988C153 332 153 332 155 332l-2-5c-3.375-.25-3.375-.25-7 0l-1.5 1.563L143 330c-5.505-.306-9.21-1.884-13.875-4.75l-3.43-2.047c-3.078-2.516-3.166-3.431-3.695-7.203z" class="Bh"/><path d="M350 68h3v19l5.813-.187C397.554 86.852 439.122 103.585 468 129l2.508 2.176c33.061 29.174 58.895 70.868 62.116 115.766A294.33 294.33 0 0 1 533 256h-2v13l-69.964.052-32.483.024-28.302.019-14.995.012-14.097.007-5.19.006-7.054.001-3.997.003C352 269 352 269 351 268c-2.671-.141-5.324-.042-8 0-.145-3.122-.224-5.468 1-8.375.994-2.609 1.08-4.017 1-6.75 0-3.875 0-3.875 2-6.875 1.898-6.211 3.267-12.548 4-19h3l.078-2.719c.329-7.239 1.096-14.054 2.859-21.094l.515-2.082c.8-3.024 1.299-4.857 3.548-7.105 2.125.375 2.125.375 4 1 .28 4.846-.1 8.809-1.375 13.5-1.307 4.832-2.082 9.595-2.625 14.563-.991 8.794-2.417 16.298-7 23.938l-1 21h177c-1.691-22.323-1.691-22.323-6-44l-.526-2.022C517.217 198.693 506.181 176.716 491 158l-1.351-1.674C460.724 120.72 419.311 98.558 374 92c-5.159-.517-10.31-.748-15.492-.859C355 91 355 91 353 90l1 35c-4.804-4.118-8.17-7.263-12-12l-5-5-3-3c5.014.152 7.334 2.927 10.645 6.309C346 113 346 113 346 115l3 1 1-26-12.312 1.375-3.81.419C326.856 92.592 319.933 93.63 313 95l-1 3c-1.937-.375-1.937-.375-4-1l-1-2h-3v-2c14.927-4.827 30.39-6.468 46-6V68z" class="CN"/><path d="M207 341l4 1v2l2 1v6l5-1 1 2 7 1v2l3-1h3v-2c12.56-.883 24.703 1.739 37 4-2.34 2.488-3.558 3.411-7 3.75l-2.062.234C258 360 258 360 255 359c-3.15.883-3.15.883-6 2l-2-2c-1.713-1.785-1.713-1.785-4-3-3.192.226-3.192.226-6 1 0 2.463.855 3.852 2 6-6.625 3.125-6.625 3.125-10 2-2.341.278-4.676.605-7 1l-1 5-2.375-.5c-3.789-.722-6.837-.159-10.625.5-1.257-2.906-2-4.796-2-8l-1.125 3.375c-1.354 3.239-1.637 3.518-5.062 5.063L197 372h2v2l3 1 2 2h2l1-2-1 9-5-2-1 1h-2v-4h-2l-1 2h2l-1 3c-2.562 1.188-2.562 1.188-5 2v-3l-5 2-1.187-1.562L183 382a88.58 88.58 0 0 0-5 1l-2-2 3-2 1-2-2.375-.437C175 376 175 376 173 375c-1.879.087-3.755.242-5.625.438l-3.039.309L162 376v-2h-2v2h-3l1-3h3v-4c2 1 2 1 3 2l2-1 1 2c1.646-1.228 1.646-1.228 3-3-.228-2.163-.228-2.163-1-4h-3l-1-5 2 1v2l6-2v2h2v-3l2.117-.551 2.758-.762 2.742-.738c2.704-.816 2.704-.816 4.383-3.949l5 1-1 2h-3l1 5 1-2h3l1 2 2-1-1-2 1-2c2.145-.379 2.145-.379 4.813-.562 3.182-.23 6.113-.57 9.188-1.437l-1-7h-6l-1-5 4 1 1-3z" class="CO"/><path d="M351 255h1v14h179v-13l3 1v11h46v3h-46v11c-4.303 49.072-26.816 95.49-64.728 127.457-4.491 3.602-9.018 7.126-14.272 9.543v-2h-2l-.75-1.687c-1.228-2.45-1.228-2.45-3.312-4.812-1.804-2.328-2.514-3.644-2.937-6.5l1.875 1.063L450 406l2-1 5 8c34.942-22.433 58.752-62.078 68-102 .818-3.822 1.554-7.654 2.25-11.5l.495-2.693c1.464-8.676 1.729-16.863 2.255-25.807H352v22h-1l-.5-10.812-.145-3.104-.137-2.979-.127-2.745c-.158-4.058.088-8.002.408-12.048l.281-3.574L351 255z" class="Bt"/><path d="M201 161h2l-.254 2.152-.309 2.785-.316 2.777L202 171l1 1 .746 5.988A38.31 38.31 0 0 0 205 184c-2.797-2.068-3.027-3.144-3.687-6.687L201 174c-21.266 25.085-26.865 62.396-29 94h22c-5.807 13.551-5.807 13.551-9 17-3.394 1.116-6.452 1.238-10 1l-.316 1.875c-.955 2.968-2.853 3.721-5.516 5.121-3.236 1.498-6.547 2.78-9.875 4.059-2.444.941-2.444.941-5.105 2.633-2.404 1.443-4.429 1.918-7.187 2.313 2-3 2-3 4.625-3.687L154 298v-3l6.055-1.27c2.316-.654 2.316-.654 3.945-3.73l-4-1 6.152-.684c1.859-.135 1.859-.135 2.848-1.316v-16h-46v-3h46v-16c.305-3.344.64-6.521 1.188-9.812l.406-2.523c4.354-25.732 14.115-50.082 28.403-71.929 1.264-2.185 1.769-4.231 2.004-6.735z" fill="#e0e0e0"/><path d="M122 316c27.507 1.471 27.507 1.471 40 7l1 2c-6.244 10.217-13.226 16.688-23.301 23.109-2.349 1.645-3.875 3-5.574 5.266C132 356 132 356 129.152 356.832c-3.899 1.445-5.226 3.19-7.715 6.48-2.951 3.856-5.976 7.285-9.437 10.688l-8.25 8.75-4.328 4.609-1.919 2.046c-2.517 2.671-3.274 2.706-7.003 2.907-7.465.684-14.068 3.42-19.5 8.688l-.906 2.012c-1.565 2.844-3.95 3.477-6.805 4.785-3.414 1.794-6.262 4.191-9.258 6.602-2.237 1.764-4.555 3.196-7.031 4.602l-6 4-2-1 4.375-3.5 2.461-1.969C48 415 48 415 50 415v-2h3v-2c1.577-1.25 3.215-2.424 4.875-3.562 5.079-3.581 9.62-7.479 14.129-11.75C74 394 74 394 76 394l.125-1.812C77.46 388.85 79.778 388.432 83 387c6.821-3.663 12.716-8.127 18.703-13.02l2.014-1.637 4.004-3.293 1.889-1.539 1.687-1.392c1.884-1.238 3.503-1.698 5.704-2.12v-2h2v-2a136.5 136.5 0 0 1 5-3 163.44 163.44 0 0 0 4.625-3.625l2.613-2.121L134 349l2.918-2.348 2.895-2.34 2.645-2.137c3.281-2.808 6.289-5.829 9.23-8.988C153 332 153 332 155 332l-2-5c-3.375-.25-3.375-.25-7 0l-1.5 1.563L143 330c-5.505-.306-9.21-1.884-13.875-4.75l-3.43-2.047c-3.078-2.516-3.166-3.431-3.695-7.203z" fill="#070707"/><path d="M298 121c2.938 1.25 2.938 1.25 6 3 .875 2.188.875 2.188 1 4l-2 1-1-4-4 1v7l3-2v5l4 1-2-7 3 1v2h2v2l2-1v-4c3 1 3 1 4 3l1-3h2l1.75 1.938c2.734 2.506 4.618 2.732 8.25 3.063v-2h2l.184 1.934.254 2.504.246 2.496c.106 2.053.106 2.053 1.316 3.066l1-5h4v2l7 2v3l3-1 2 7-5 1v2c-2.375-.187-2.375-.187-5-1-1.312-2.562-1.312-2.562-2-5l-3 1v4h-2l-1-3c-1.74-1.186-1.74-1.186-4-1-2.687 2.271-2.687 2.271-5 5l-2 2-2 3v-2h-2l-1 3-2-1 1-2-7-2-.148-2.152-.227-2.785-.211-2.777L305 145l-2-1v-2h-4l-2 7h-2l-3-5-3-2 2-6-6-1 2-9c2 3 2 3 2 6l3-3 1 2v-5h3v-2l2-1v-2z" class="CP"/><path d="M469 532c2.315 3.472 3.529 7.009 4.813 10.938l.771 2.17c1.718 5.282 1.718 5.282.178 8.396C473 555 473 555 471 555l.688 2.313c.313 2.688.313 2.688-1 4.5C469 563 469 563 467 563v2l1.875-.5C471 564 471 564 473 564l1.875-1.562C477 561 477 561 479.063 561.125c2.157.974 3.393 2.099 4.938 3.875l1-2-.125 2.813c-.146 3.346-.146 3.346 2.125 6.188.195 2.262.195 2.262.125 4.688l-.055 2.449L487 581h-2l1 5h2c1.292 4.12 2.263 7.668 2 12-2-3-2-3-2-6l-2 1 .063 2.938C486 599 486 599 485 600c-4.668.144-9.329.042-14 0l-3-17-2 1 1.043-2.164c1.093-3.239.926-4.885.27-8.211l-.602-3.16L466 567l-1.169-5.856-1.147-5.601c-1.937-10.037-1.937-10.037-.684-12.543h3v-7l3-1-3-1 3-2z" fill="#171717"/><path d="M2 479h1l-.125 3.5c0 5.682.926 10.702 4.125 15.5 6.559 11.836 6.901 27.211 8.461 40.395.965 7.87 2.25 15.546 3.953 23.283.562 3.188.694 6.094.586 9.322l-3-1c-1.26-2.521-.919-3.854-.562-6.625l.309-2.477L17 559h-2l-.75-1.812c-1.414-2.474-2.901-3.621-5.25-5.187l1-2-2.875-.437C4 549 4 549 2 548v3H0l-.104-25.062-.047-11.639-.039-11.243-.022-4.278-.016-6.016-.013-3.452C.03 485.582.863 482.55 2 479z" fill="#f0f0f0"/><path d="M285 121h1v13h3v2h2l-.812 2.688c-.589 3.51-.589 3.51 2.25 6.063L295 147v2h2l1-13h1l1 5 3 1v2l3 1c.295 4.718.355 8.678-1.562 13.063-1.856 4.31-1.332 7.384-.437 11.938l-2-1c-1.299-4.288-1.075-8.565-1-13h-2l-2 4-1.687-.437c-2.426-.59-4.862-1.086-7.312-1.562v6l-2 1c-2.125-.937-2.125-.937-4-2l-3 3-1-4-3 1c-3-2-3-2-4-5v3h-2c-1.075-2.652-2.095-5.284-3-8h-2l1 3-9 2a128.64 128.64 0 0 1 2-7l2-1v3h2l1-4 1.688-.375c2.398-.598 2.398-.598 4.938-1.687C272 146 272 146 274 146l4-9h2c.075 3.885-.028 7.249-1 11l1 2c.704-5.029 1.11-9.99 1.375-15.062.35-5.341 1.061-9.255 3.625-13.937z" class="Bn"/><path d="M361 194c2.125.375 2.125.375 4 1 .28 4.846-.1 8.809-1.375 13.5-1.307 4.832-2.082 9.595-2.625 14.563-.991 8.794-2.417 16.298-7 23.938l-1 21h177v-10h1v11l-69.964.052-32.483.024-28.302.019-14.995.012-14.097.007-5.19.006-7.054.001-3.997.003C352 269 352 269 351 268c-2.671-.141-5.324-.042-8 0-.145-3.122-.224-5.468 1-8.375.994-2.609 1.08-4.017 1-6.75 0-3.875 0-3.875 2-6.875 1.898-6.211 3.267-12.548 4-19h3l.078-2.719c.329-7.239 1.096-14.054 2.859-21.094l.515-2.082c.8-3.024 1.299-4.857 3.548-7.105z" class="Bj"/><path d="M530 271h1l.184 2.563.254 3.438.246 3.375c.273 3.669.273 3.669.953 7.441.623 4.888-.269 9.333-1.262 14.121l-.564 2.793C521.762 348.208 496.677 392.038 459 417c-1.318.696-2.646 1.377-4 2v-2h-2l-.75-1.687c-1.228-2.45-1.228-2.45-3.312-4.812-1.804-2.328-2.514-3.644-2.937-6.5l1.875 1.063L450 406l2-1 5 8c34.942-22.433 58.752-62.078 68-102 2.84-13.265 4.636-26.44 5-40z" class="CP"/><path d="M207 341l4 1v2l2 1v6l5-1 1 2 7 1v2l3-1h3v-2c12.56-.883 24.703 1.739 37 4-2.34 2.488-3.558 3.411-7 3.75l-2.062.234C258 360 258 360 255 359c-3.15.883-3.15.883-6 2l-2-2c-1.713-1.785-1.713-1.785-4-3-3.192.226-3.192.226-6 1 0 2.463.855 3.852 2 6-6.625 3.125-6.625 3.125-10 2-2.341.278-4.676.605-7 1l-1 5-5-1-1-3 3-1v-5c-6.057-1.005-6.057-1.005-12 0h-4v-3c5.75-3 5.75-3 8-3l-1-7h-6l-1-5 4 1 1-3z" fill="#afafaf"/><path d="M457 489c2.793 5.26 4.641 10.935 6.686 16.515l2.238 6.05c2.456 6.66 4.733 13.304 6.475 20.194.738 2.754 1.739 5.352 2.777 8.004 2.432 6.605 4.444 13.339 5.824 20.238l-10 6v-2l-4 1v-2h2c1.765-3.088 2-4.233 2-8 2-2.25 2-2.25 4-4l-2.437-7.875-.697-2.262c-1.219-4.014-1.219-4.014-2.865-7.863l-1 4-2-1v7h-3l-1 2c-.934-3.01-1.044-3.867 0-7a70.39 70.39 0 0 0-1-4v-3c-.412-1.287-.875-2.557-1.375-3.812-2.155-5.454-3.88-10.2-3.855-16.137l.006-3.318.037-3.42.002-3.455c.045-8.435.045-8.435 1.186-11.857z" class="Bu"/><path d="M350 68h3v19l5.813-.187c8.544-.017 16.743 1.335 25.137 2.824L392 91c-3.359 2.239-4.516 2.246-8.437 2.188l-2.871-.02C378 93 378 93 376.112 92.507c-2.239-.538-4.289-.697-6.588-.788l-2.531-.113-5.258-.211-2.523-.113-2.303-.092C355 91 355 91 353 90l1 35c-4.804-4.118-8.17-7.263-12-12l-5-5-3-3c5.014.152 7.334 2.927 10.645 6.309C346 113 346 113 346 115l3 1 1-26-12.312 1.375-3.81.419C326.856 92.592 319.933 93.63 313 95l-1 3c-1.937-.375-1.937-.375-4-1l-1-2h-3v-2c14.927-4.827 30.39-6.468 46-6V68z" class="Bj"/><path d="M234 494l1 2c2.118 1.118 2.118 1.118 5 2 1.168 1.777 1.168 1.777 2.188 3.938l1.043 2.152C244 506 244 506 244 508h2l-2 6c2.395 2.899 4.312 3.502 8 4l-.687 1.813L251 522c1.292 1.793 1.292 1.793 3 3h1 5l-4 4-3-1-1 3 1 1 1 5 6-1 1 3-4-1v2l8-1-1 3 2 2c-.375 2.125-.375 2.125-1 4l-2.187-.062c-2.762.061-5.152.323-7.812 1.063l-1 2v-4l-2-1 2-4-2-1v-2l-3 1v-3l-4-1v-3l4 1 1-5h-2l-1 3-3-1v-4h-2l-1 3-1-5 3-2-1-7-1 1 1 3-3 2 2 1h-4c-1.114-7.658-1.114-7.658 0-11l-2-2-2 2-.375-3.437L232 505l-2-1c0-2 0-2 2-4h3l-1.062-1.875L233 496l1-2z" class="Bv"/><path d="M220 267l1 2-1 2 5-1 1 4h-2l.105 2.344c.152 5.832.009 10.422-2.371 15.766-1.251 3.219-1.429 6.466-1.734 9.891l-3 1c-1.219 2.504-1.219 2.504-2 5h-2l-4-15 .063 4.875c.063 4.875.063 4.875-1.062 7.125l2 1c-1.125 1.563-1.125 1.563-3 3-3.187-.312-3.187-.312-6-1l3-1-1-3h-2l-1 2a84.76 84.76 0 0 1 2-7h2l.586-2.59.789-3.348.773-3.34L207 287l2-1c.656-2.527.656-2.527 1-5h2c1.619-2.572 2.044-3.677 1.625-6.75L213 272l4 1 .375-1.875C218 269 218 269 220 267z" fill="#060606"/><path d="M281 391v2h2v4l4 2-3 3 3-1v2l3 1-1 1 4 1v2l3 1-1 2 2 1 1 2h-3v2l4-1-1 2h-2l1 3-3 1 2 2c2.603-.32 2.603-.32 5-1v3h-3l1 2-1 2h2l1-2 1 3h-2l-2 5 2.313-.187c2.688.188 2.688.188 4.5 1.688L306 438l-1 1 4 3h-2l1 3-1 4h2v2l-1 1 1 2-4 1c-3-3.75-3-3.75-3-6l-3-1 6-2v-4h-7v-5h-2v-2l-5-2 2-1-1-2-3-1 3-1-2.125-2c-1.875-3-1.875-3-1.695-5.113L290 415l-3 1-2-1v-2l-3-1-1-3h-2v-6l-3 1 1-2.375c1.119-2.468 1.119-2.468 1-4.625l1-1h-5l2-1-1-3c3-1 3-1 6-1z" fill="#535353"/><path d="M464 439c2.46 4.789 4.429 9.759 6.438 14.75l1.197 2.863c5.387 13.463 6.738 27.459 7.958 41.772 1.327 15.413 3.143 30.696 5.47 45.989 1.776 11.694 3.502 23.369 4.813 35.125l.364 3.197c.62 5.804.87 11.467.761 17.303h-6v-7l3-1 1 1-1-7h-2c-1.125-4.75-1.125-4.75 0-7 .341-5.33.341-5.33-2-10-.344-2.102-.344-2.102-.5-4.625-.384-5.122-.903-10.212-1.5-15.312l-.252-2.223c-.456-3.966-.456-3.966-1.279-7.867-.75-3.155-.802-6.37-.969-9.598l-.254-4.297-.125-2.107-.558-7.846-.184-2.305c-.256-2.063-.256-2.063-2.379-3.82l1-7c-.113-2.901-.484-5.75-.875-8.625l-.277-2.234c-.386-3.033-.814-5.99-1.48-8.977C474 480 474 480 475 477h-2c-1.033-2.788-1.045-3.868-.062-6.75L474 468l-4-1c-1.681-5.763-3.21-11.557-4.687-17.375l-.721-2.77-.666-2.629-.612-2.388L463 440l1-1z" class="CQ"/><path d="M187 354l5 1-1 2h-3l-1 5-3 1c-2.193.858-2.193.858-3.187 3.188-.957 3.312-.586 5.488.188 8.813l3.313-1.062C188 373 188 373 191 374v-2l2 1h1 3l2 4-4 4h2l-1 3c-2.562 1.188-2.562 1.188-5 2v-3l-5 2-1.187-1.562L183 382l-5 1-2-2 3-2 1-2-2.375-.437C175 376 175 376 173 375l-5.625.438-3.039.309L162 376v-2h-2v2h-3l1-3h3v-4c2 1 2 1 3 2l2-1 1 2c1.646-1.228 1.646-1.228 3-3-.228-2.163-.228-2.163-1-4h-3l-1-5 2 1v2l6-2v2h2v-3l2.117-.551 2.758-.762 2.742-.738c2.704-.816 2.704-.816 4.383-3.949z" class="Bo"/><path d="M259 114l3 1-2 2-2 4-2-2-3 4c.833 2.167.833 2.167 3 3l-2 2c.319 2.108.319 2.108 1 4l-3 2c-1.449 1.449-2.106 3.16-3 5l-2 4h-2l-1-1-1 3-2-5-1 1h-5l6-8-1-1-1.25 2.375C237 137 237 137 234.875 138L233 139c-.663 2.484-.663 2.484-1 5l-2 2-3-1-5 7 1-7-3 4c.551-3.949 1.389-7.349 3-11l3 3 1.18-1.906c4.341-6.641 9.153-11.73 15.82-16.094h2l1.625-1.812c2.735-2.519 5.081-3.357 8.57-4.477 2.015-.655 2.015-.655 3.805-2.711z" fill="#919191"/><path d="M119 365h1c1.171 5.651 2.253 11.276 3 17h2l1.207 2.266 1.605 2.984 1.582 2.953A53.89 53.89 0 0 0 134 397l-1 2c-10-12.575-10-12.575-10-16h-2c-1.257-2.906-2-4.796-2-8-3.278.752-3.278.752-5 4l-2-2-1 2h-2l-.687 2.75C107 385 107 385 104.5 386.938c-3.24 2.673-3.647 5.032-4.5 9.063l-1-2-2.562 2.438C93.066 399.241 90.406 399.696 86 400l-4.437.563L78 401v2l-4-1v3h-2l-1-3c3.522-5.518 7.73-8.186 14-10a112.69 112.69 0 0 1 5-.187c5.687-.37 8.205-3.227 11.898-7.332L104 382l1.977-2.199c2.56-2.86 4.992-5.76 7.336-8.801l1.688-2h2l2-4z" fill="#dbdbdb"/><path d="M467 569l1 2 2.375-.125C473 571 473 571 475 573l2-2 2.066 5.527 2.023 5.102c2.577 6.448 3.312 11.431 2.91 18.371h-13l-3-17-2 1 1.063-1.875c1.349-4.495.597-8.535-.062-13.125z" fill="#0c0c0c"/><path d="M201 161h2l-.254 2.152-.309 2.785-.316 2.777L202 171l1 1 .746 5.988A38.31 38.31 0 0 0 205 184c-2.797-2.068-3.027-3.144-3.687-6.687L201 174c-18.684 22.04-24.974 54.21-28 82h-1l-1-6h-1c.997-28.662 12.692-57.868 28.539-81.477 1.486-2.567 2.071-4.601 2.461-7.523z" class="Bt"/><path d="M3 529l5 2 .375 3.438L9 538l2 1v2h3v-6h1l.332 2.754c1.018 8.069 2.34 15.962 4.082 23.906.56 3.194.694 6.106.586 9.34l-3-1c-1.26-2.521-.919-3.854-.562-6.625l.309-2.477L17 559h-2l-.75-1.812c-1.414-2.474-2.901-3.621-5.25-5.187l1-2-2.875-.437C4 549 4 549 2 548v3H0l-.187-8.187-.076-2.33C-.324 535.78.036 532.882 3 529z" fill="#ccc"/><path d="M399 411c5.46 5.04 10.173 10.692 12 18 2.167-.833 2.167-.833 3-3l4 1-1-3 2-1v2c4.702.889 4.702.889 9.406.469 2.958-.535 4.988-.193 7.906.469l2.676.59L441 427v-2l2.375.625L446 426l2-2 2 5-1.937.375L446 430l-1 2-1.833-.016-8.292-.047-2.883-.025c-4.782-.017-9.29.083-13.992 1.088v2l-7-2v3l-3-1v-2h-2l-.262-2.344c-.85-6.3-1.943-10.965-5.715-16.133C399 413 399 413 399 411z" class="CR"/><path d="M0 583l8 2v3l6-2 1 2h4c1.125 7.5 1.125 7.5 0 12H0v-17z" class="Bg"/><path d="M298 121c2.938 1.25 2.938 1.25 6 3 .875 2.188.875 2.188 1 4l-2 1-1-4-4 1v7l3-2v5l4 1-2-7 3 1v2h2v9l-2-1-1 3h-2v-2h-4l-2 7h-2l-3-5-3-2 2-6-6-1 2-9c2 3 2 3 2 6l3-3 1 2v-5h3v-2l2-1v-2z" class="CS"/><path d="M218 471h3v7l4 1-1-4h3v2h2c1.125 3.75 1.125 3.75 0 6l4-2 1 3-3 1 7 1-1 4-2-1v3h-4l1 4-2.437.813L227 498l-1 3-2-6 1-2-2-1v-2l-1-3-2 1v-3l-2-1.375-2-1.625v-5l-2-2 3-2 1-2z" fill="#111"/><path d="M77.063 411.938L80 412c-1.293 2.884-2.659 4.872-5 7l6 1v2l4 1h-2c1.392 2.784 3.156 2.979 6 4l1-2 2 1v2h-2v2c-3.689 1.156-7.214 1.167-11.062 1.188l-3.723.043C72 431 72 431 69 429v-2l-3-1 1.125-2.75c1.179-3.131 1.179-3.131 0-5.625L66 416l3.438-1.437c5.905-2.59 5.905-2.59 7.625-2.625z" class="Bj"/><path d="M481.832 563.828L484 565l1-2-.125 2.813c-.146 3.346-.146 3.346 2.125 6.188.195 2.262.195 2.262.125 4.688l-.055 2.449L487 581h-2l1 5h2c1.292 4.12 2.263 7.668 2 12-2-3-2-3-2-6l-2 1v6l-2 1-.043-1.695c-.41-6.9-2.345-12.764-4.801-19.203-.886-2.378-1.62-4.629-2.156-7.102l-3 2-1-2c-2.025-.652-2.025-.652-4-1v-2c2.012-1.578 2.012-1.578 4.688-3.25l2.637-1.703C479 563 479 563 481.832 563.828z" class="Bw"/><path d="M232 352c12.56-.883 24.703 1.739 37 4-2.34 2.488-3.558 3.411-7 3.75l-2.062.234C258 360 258 360 255 359c-3.15.883-3.15.883-6 2l-2-2c-1.713-1.785-1.713-1.785-4-3-3.192.226-3.192.226-6 1 0 2.463.855 3.852 2 6-6.625 3.125-6.625 3.125-10 2-2.638.394-2.638.394-5 1l2-1v-2l-2-1c2.375-.625 2.375-.625 5-1l2 2h3l-3-2h2c-1.893-2.419-2.77-2.965-5.875-3.437-3.694-.665-5.387-2.066-8.125-4.562h7v2l3-1h3v-2z" class="Bx"/><path d="M263.82 261.887c9.806-.233 16.384.942 24.18 7.113l-2 2-3-1 5 5c-2.446-.956-4.852-1.929-7.219-3.07-6.863-3.173-13.282-4.152-20.781-2.93-3.394 1.374-6.477 2.939-9.637 4.785L248 275l-2-1 7-5-7 2-1-2c6.423-4.762 10.742-6.789 18.82-7.113z" class="CT"/><path d="M172 271h20c-3.625 10.876-3.625 10.876-7 14-4.078 1.297-7.692 1.621-12 2l-1-16z" fill="#010101"/><path d="M530 271h1l.184 2.563.254 3.438.246 3.375c.273 3.669.273 3.669.953 7.441.623 4.888-.269 9.333-1.262 14.121l-.559 2.784C527.751 319.495 523.003 333.177 517 347h-3l-1-2c.781-1.988 1.655-3.941 2.563-5.875C525.114 317.714 529.373 294.349 530 271z" class="Bn"/><path d="M278 137h2c.125 6.383.125 6.383-.469 9.313-.626 3.167-.866 6.28-1.094 9.5l-.254 3.52L278 162l-3 1c-3-2-3-2-4-5v3h-2l-3-8h-2l1 3-9 2 2-7 2-1v3h2l1-4 1.688-.375c2.398-.598 2.398-.598 4.938-1.687C272 146 272 146 274 146l4-9z" fill="#eaeaea"/><path d="M391 464c3.314 4.971 7 11.883 7 18l2 1c3 4.5 3 4.5 3 7h2l1.813 2.313c2.21 2.716 4.12 4.069 7.188 5.688l2-2-.27 2.285c-.014 2.829-.014 2.829 2.133 4.523l2.449 1.629c4.028 2.888 5.993 4.931 7.688 9.563h-2v2l-4 1-1.137-1.793c-3.452-5.379-3.452-5.379-7.801-10.02L411 503c.188-2.312.188-2.312 1-4-3.053-.981-4.947-.981-8 0l-.312-3.25c-.674-3.674-1.346-5.002-3.687-7.75v-2l-1.812-.625c-5.729-3.601-6.321-11.511-7.734-17.645L390 465l1-1z" class="By"/><path d="M205 184c3.113 3.452 3.774 6.674 4.625 11.188.475 4.23.475 4.23 2.375 7.813.041 2 .043 4 0 6-6.523-1.354-6.523-1.354-8.937-4.625L202 202c-1.188 3.429-.802 5.378.438 8.75l.871 2.422L204 215l1-3h2v8h-4l-2.5-8-.723-2.254c-1.55-5.093-2.198-9.418-1.777-14.746 2-2 2-2 5.625-2.125L207 193l-2-9z" class="Bi"/><path d="M220 267l1 2-1 2 2 1-3 1c-.588 1.71-1 3.185-1 5v2l-2 1c-1.242 1.9-1.242 1.9-2 4l1 2-3.809 4.395c-2.037 2.746-2.191 4.772-2.191 8.168 0 3.438 0 3.438-1 5.438l2 1c-1.125 1.563-1.125 1.563-3 3-3.187-.312-3.187-.312-6-1l3-1-1-3h-2l-1 2 2-7h2l.586-2.59.789-3.348.773-3.34L207 287l2-1c.656-2.527.656-2.527 1-5h2c1.619-2.572 2.044-3.677 1.625-6.75L213 272l4 1 .375-1.875C218 269 218 269 220 267z" fill="#444"/><path d="M465 561h1l1.563 7.188.459 2.041c.822 3.917 1.076 6.911-.021 10.771v1h1c1.405 6.12 2.233 11.717 2 18h-2l-1-7-3 2-.937-3.437c-.692-3.35-.692-3.35-2.062-4.562-1.376-4.74-1.667-10.118-1-15a94.14 94.14 0 0 1 3-4c.725-3.653.725-3.653 1-7z" class="Bz"/><path d="M239 114h4v4l-4 1v2 1h2v2h-3v3h-3l-1 3h-4l-.875 2.813C228 136 228 136 226 139l-1-6c-2.153 1.776-2.153 1.776-2.375 4-.625 2-.625 2-2.687 3.25L218 141v-3l2-1 .875-2.312c1.271-3.035 2.813-4.376 5.125-6.687 1.859-2.896 3.461-5.922 5-9h-3v-2l7-2-.062 2.438c-.234 2.496-.234 2.496 1.063 3.563l.375-1.812C237 117 237 117 239 114z" class="CU"/><path d="M281 391v2h2v4l4 2-3 3 3-1v2l3 1-1 1 4 1v3l-3 1-1 2-4 3v-2l-3-1-1-3h-2v-6l-3 1 1-2.375c1.119-2.468 1.119-2.468 1-4.625l1-1h-5l2-1-1-3c3-1 3-1 6-1z" fill="gray"/><path d="M44 342l2 1-1.215 1.563c-9.499 13.44-14.168 30.399-18.617 46.098C22.881 400.06 22.881 400.06 19 402l3-11h2l.332-2.055c2.719-15.962 2.719-15.962 6.191-21.277 1.846-3.335 2.206-6.209 2.664-9.98l.48-3.801L34 351h3l.25-1.875C38 347 38 347 39.938 345.938L42 345l2-3z" fill="#171717"/><path d="M457 500c2 1 2 1 3 3.813l1 3.188 1.125 2c1.187 2.714 1.008 5.074.875 8h2c1.591 4.177 2.213 7.532 2 12l-2 1-1-2-2 1c-3.863-2.575-4.216-4.443-5.434-8.785-1.116-6.333-.967-12.811-.566-19.215l1-1z" fill="#878787"/><path d="M64 410c1 3 1 3-.437 6.188L62 419h-3l-1 5 2 1-2 3 7 2v1l-2.375.313c-2.955.463-2.955.463-4.625 3.688-2-3-2-3-3-6l1-2-2.117-.332-2.758-.48-2.742-.457C46 425 46 425 44 422l2-1 1 1v-2l2.375-.25L52 419l2-4 6-4 1 1 3-2z" fill="#aaa"/><path d="M97 392c-.739 3.26-1.179 5.025-4 7-3.187.625-3.187.625-7 1l-4.437.563L78 401v2l-4-1v3h-2l-1-3c6.2-9.713 15.176-10.659 26-10z" class="Bg"/><path d="M39 430l1 4 3.688-.125c3.531-.013 6.113.525 9.313 2.125l1-5h4v3h5l-1 7c-3 1-3 1-5.625.188C54 440 54 440 53 438l-2 3c-3.125.188-3.125.188-6 0v-2l-4 1-1-3h-5v-6c2-1 2-1 4-1z" fill="#8d8d8d"/><path d="M290 526h2l1 5 3 1 1 2v-2h2l.25 2.375L300 537l2 .938 2 1.063c.75 3.125.75 3.125 1 6l3 1 2 1-2 4-1-2c-1.895-.465-1.895-.465-4.062-.625L299 548c0-2 0-2 1-3l-3-1v-4h-5l-1-3 2-1-4-1-1-7h2v-2z" class="CV"/><path d="M245 126l-3 4h-2l-.687 2.875L238 136l-2.562 1-2.437 1c-.747 2.98-.747 2.98-1 6l-2 2-3-1-5 7 1-7-3 4c.551-3.949 1.389-7.349 3-11l3 3 1.32-2.012c7.722-11.449 7.722-11.449 13.93-13.863C243 125 243 125 245 126z" fill="#d5d5d5"/><path d="M234 494l1 2c2.118 1.118 2.118 1.118 5 2 1.168 1.777 1.168 1.777 2.188 3.938l1.043 2.152C244 506 244 506 244 508h2c-1.437 4.67-1.437 4.67-3.812 6.063-3.298-.094-4.827-1.898-7.187-4.062l-2 2-.375-3.437L232 505l-2-1c0-2 0-2 2-4h3l-1.062-1.875L233 496l1-2z" fill="#292929"/><path d="M484 548c3.031 3.031 2.816 6.753 3.289 10.848l.328 2.684.67 5.641 1.033 8.559.656 5.49.312 2.558c.626 5.443.801 10.74.711 16.219h-6v-7l3-1 1 1-1-7h-2c-1.125-4.75-1.125-4.75 0-7 .341-5.33.341-5.33-2-10-.227-2.268-.227-2.268-.195-4.887l.02-2.842.051-2.959.027-2.994L484 548z" class="Bp"/><path d="M191 372l2 1h1 3l2 4-4 4h2l-1 3c-2.562 1.188-2.562 1.188-5 2v-3l-5 2-2.5-3.375-1.406-1.898C181 378 181 378 181 376c2.391-2.391 3.696-2.597 7-3l3 1v-2z" class="CA"/><path d="M178 210h3c-.657 6.32-1.946 12.329-3.437 18.5-2.153 9.142-3.665 18.15-4.562 27.5h-1l-1-6h-1c.48-13.792 3.754-26.909 8-40z" class="CB"/><path d="M11 448c1.33 3.989.183 5.992-1 10a109.96 109.96 0 0 0-.5 4.125C9.066 465.49 8.427 467.956 7 471h3l1 10-5-2v3h2l2 4-3-1v-2l-4-1c-1.006-11.627 2.146-23.965 8-34z" fill="#161616"/><path d="M91 398h3v2l2 1-3 2-3-1v2h2l-1 3h-4l1 3-5 2-2-1-1-5-5-1-1-3c2.695-.898 5.213-1.482 8-2l3.125-.625C88 399 88 399 91 400v-2z" class="CC"/><path d="M233 217c1.563 1.25 1.563 1.25 3 3-.375 1.938-.375 1.938-1 4 .379 2.187.379 2.187 1 4h-2v4l3 1 1 7-4 1 1-3h-2v11h-1l-.148-2.371-.227-3.066-.211-3.059L231 238l-2-1v-15h4v-5z" fill="#ccc"/><path d="M338 116l3 1c.903 2.024 1.454 4.058 2.059 6.188.792 2.027.792 2.027 3.039 2.563L348 126v-2c3.161 1.37 3.993 1.989 6 5-.375 2.188-.375 2.188-1 4h-3v2l-3 1 .621 2.047.816 2.703.809 2.672L351 150l-2-1v-2h-2l-.332-1.793c-.758-3.779-1.361-6.714-3.418-10.02L342 133l1.102-1.82L344 129c-1.078-2.574-1.078-2.574-2.875-5.062C338 119.278 338 119.278 338 116z" class="Bo"/><path d="M305 121h2v2h3l-2 6 2-1 1-3 2 1v4h2v5l-5-5 1 4-3 1v-2h-2v-2l-2 1 1 5-4-1-1-4-3 3c-.367-6.483-.367-6.483 1.375-8.937C300 125 300 125 302 125l2 3 1-2-2-1v-2h2v-2z" class="CW"/><path d="M234 415l5 1v2l-2 2 1 2 2 .438 2 .563 1 3 1 1 1 2h-3l2 1v3l3-1-1-3h3v2l2 2-3 1v2c-5.395.49-5.395.49-8.312-1.875C238 432 238 432 237 430c-1.815-3.301-2.805-4.87-6-7l1-4h2v-4z" fill="#444"/><path d="M285 121h1v13h3v2h2l-1 6h-2l-1 7-5-2c-1.553-9.146-1.271-17.643 3-26z" fill="#f9f9f9"/><path d="M274 136l1 10-3.375.875c-3.628.817-3.628.817-5.625 3.125h-3l-1 3h-2l-1 2v-4l-2 3c.547-6.194 4.619-9.93 9.125-13.75C271.556 136 271.556 136 274 136z" class="CX"/><path d="M270 500l2 1v2l4 2v2h2c5 5.476 5 5.476 5 8l3 1v3l2 1v3l2 3h-3l-1 2v-2l-3-1c-1.832-2.849-2.447-5.684-3-9-2.947-1.158-2.947-1.158-6-1l2-4-2.5-1.875L271 507v-2l-7-3c3.75-1.125 3.75-1.125 6 0v-2z" class="CD"/><path d="M218 471h3v7l4 1-1-4h3v2h2c1.125 3.75 1.125 3.75 0 6l4-2 1 3-3 1 2 2-4 3-2-1v-7l-1.687 1c-2.665 1.152-4.436 1.303-7.312 1l-2-2v-5l-2-2 3-2 1-2z" class="Bv"/><path d="M469 532c1.979 2.969 3.027 5.516 4.188 8.875l1.105 3.117c.736 3.131.592 4.952-.293 8.008l-4-1c.506-2.169 1-4 2-6h-4l1 3-1 3-6-1 1-7h3v-7l3-1-3-1 3-2z" class="Bk"/><path d="M333 447h2l.805 2.047 1.07 2.703 1.055 2.672L341 461l-4-1v-2l-2.437-.375L332 457l-1-2c-.597 2.763-1 5.16-1 8l-2 1v6l2 1h-2l-1 2c-2.874-2.335-3.925-3.374-4.375-7.125C323 463 323 463 325 461l.938-2.937c1.294-3.729 2.574-5.318 6.063-7.062.652-2.025.652-2.025 1-4z" class="CE"/><path d="M462 420c1.801 2.012 1.801 2.012 3.313 4.688l1.551 2.637c1.214 2.859 1.612 4.61 1.137 7.676l-3 2-2 3-.187-2.75c-1.011-4.042-2.639-4.727-5.812-7.25-.312-2.75-.312-2.75 0-5l-3-1 1-3c2.599-1.3 4.12-1.397 7-1z" class="CY"/><path d="M262 111h2v3l3 1-1 3h-2l2 5-1.937.688c-2.334 1.165-2.334 1.165-2.812 3.938L261 130l-8-2 2-2-3-2c1.37-3.161 1.989-3.993 5-6l1 1 1.375-2 1.625-2h2l-1-4z" fill="#2c2c2c"/><path d="M387 460l1 3 2 1c-11.765 10.787-25.653 18.348-41.937 18.375l-2.303.074c-5.912.03-9.645-1.505-14.76-4.449l2-1 5 2c14.346 3.336 26.53-1.335 39.125-8.121 3.05-1.994 5.394-4.221 7.875-6.879l-5 1v-2h2v-2l5-1z" fill="#c2c2c2"/><path d="M471 402l2 1c-4.938 6.401-10.486 12.66-18 16v-2h-2l-.75-1.687c-1.228-2.45-1.228-2.45-3.312-4.812-1.804-2.328-2.514-3.644-2.937-6.5l1.875 1.063L450 406l2-1 5 8c5.117-3.198 9.527-6.958 14-11z" class="Bt"/><path d="M480 566h3v4h-2v2h3v-2h2c1.203 2.405 1.101 3.95 1.063 6.625l-.027 2.477L487 581h-2l1 5h2c1.292 4.12 2.263 7.668 2 12-2-3-2-3-2-7l-3-1c-4.655-7.723-5.707-15.145-5-24z" fill="#0c0c0c"/><path d="M5 544l5 1v4l3 1v-4l3-1 2 9.625.578 2.738c.944 4.619 1.674 8.893 1.422 13.637l-3-1c-1.26-2.521-.919-3.854-.562-6.625l.309-2.477L17 559h-2l-.75-1.812c-1.414-2.474-2.901-3.621-5.25-5.187l1-2-2.937-.375L4 549l-1-2h2v-3z" fill="#b9b9b9"/><path d="M57 426l-1.437 3.875-.809 2.18L53 436c-4.379-.52-8.688-1.057-13-2l-1-4h3v-3l1 2h2v-2c4.412-1.471 7.483-2.369 12-1z" fill="#f6f6f6"/><path d="M296 409l-1 2 2 1 1 2h-3v2l4-1-1 2h-2l1 3-3 1 .563 2.313C295 426 295 426 294 429l-5-5c0-3.112.456-5.942 1-9h-4c.375-1.937.375-1.937 1-4l2-1 1.938-1.125C293 408 293 408 296 409z" class="CZ"/><path d="M240 353c9.995-.52 19.251 1.06 29 3-2.213 2.573-3.625 3.418-7 3.75l-2.062.234C258 360 258 360 255 359c-3.15.883-3.15.883-6 2-2-2-2-2-3.375-4-1.749-2.153-3.144-2.857-5.625-4z" fill="#080808"/><path d="M73 407c3.204 0 5.094.743 8 2v2l2 1c-3 1-3 1-6.062.938-3.063-.274-3.063-.274-4.937 2.063l-5 1-1 3c-2.062.688-2.062.688-4 1v3l-5 2 2-6h3l.875-2.812c1.21-3.427 2.559-5.621 5.125-8.187l1 2h2l1-2 1-1z" fill="#f8f8f8"/><path d="M207 341l4 1v2l2 1c.236 5.773-.391 10.782-3 16-6.429 1.286-6.429 1.286-9 0 .563-1.875.563-1.875 2-4 3.625-1.25 3.625-1.25 7-2l-1-7h-6l-1-5 4 1 1-3z" class="Ca"/><path d="M478 550c2.951 6.137 2.951 6.137 3.125 9.188-2.231 3.595-6.438 4.969-10.125 6.813v-2l-4 1v-2h2c1.765-3.088 2-4.233 2-8 4.318-5 4.318-5 7-5z" fill="#606060"/><path d="M259 114l3 1-2 2-2 4-2-2-3 4 1 2-4 4v-4c-1.144 1.074-1.144 1.074-2.25 2.938-2.05 2.416-3.772 3.097-6.75 4.063l-1-2h2l1-4-3-1 2.25-.75c2.809-1.065 2.809-1.065 4.563-3.187 2.62-2.47 4.998-3.266 8.383-4.352 2.015-.655 2.015-.655 3.805-2.711z" class="Bk"/><path d="M203 356l-1 7-2.687.438L191 365l-1 3-8-1v-5c3.01-.934 3.867-1.044 7 0l1-2h3l1 2 2-1-1-2c1-2 1-2 2.875-2.625C200 356 200 356 203 356z" class="Bq"/><path d="M77.063 411.938L80 412c-1.293 2.884-2.659 4.872-5 7l3 1-2 2h-4v3l-2 1-1 2-3-3 1.125-2.25c1.17-2.693 1.17-2.693 0-5.062L66 416l3.438-1.437c5.905-2.59 5.905-2.59 7.625-2.625z" fill="#9e9e9e"/><path d="M342 331l-8.312 4.063c-1.869.831-1.869.831-2.687 2.938h-2v3l-5 2v-5l-2.25 1.5C319 341 319 341 315 341c.75-5.75.75-5.75 3-8l3 2c5.713.338 10.358-1.329 15.176-4.258 2.311-.94 3.512-.549 5.824.258z" fill="#242424"/><path d="M413 500c6.807 3.737 11.798 6.585 15 14h-2v2l-4 1c-9-13.107-9-13.107-9-17z" class="CP"/><path d="M66 418l3 2v3h-2v3l2 1v2l3 1v2h-7l-1-2h-6c.875-4.75.875-4.75 2-7h2v-3l4-2z" fill="#2b2b2b"/><path d="M530 271h1l.184 2.563.254 3.438.246 3.375c.277 3.678.277 3.678.941 7.5.589 4.56-.152 8.653-1.062 13.125l-.447 2.348L530 309l-2-2-2 3 .938-7.625.264-2.16c.381-3.079.783-6.129 1.33-9.184.613-3.961.824-7.906 1.031-11.906l.131-2.375L530 271z" class="Bh"/><path d="M3 529l5 2 .375 3.438L9 538l2 1v2h3v-6h1v7l-6 2-1-4-2.437.063C3 540 3 540 2 539l-2 1c-.326-4.675.294-7.167 3-11z" fill="#dbdbdb"/><path d="M343 271h7v23c-2.642-3.523-3.389-4.571-4.168-8.547l-.518-2.559-.502-2.645-.537-2.691L343 271z" fill="#060606"/><path d="M119 365h1c1.171 5.651 2.253 11.276 3 17h2l1.207 2.266 1.605 2.984 1.582 2.953A53.89 53.89 0 0 0 134 397l-1 2c-10-12.575-10-12.575-10-16h-2c-1.257-2.906-2-4.796-2-8h-2c-2-3-2-3-2-6h2l2-4z" class="Bg"/><path d="M309 550c3 2 3 2 4 5 2 1.209 2 1.209 4 2v2h2c1.625 1.375 1.625 1.375 3 3v2c-3.669 1.223-4.554.414-8-1l-2 1v-3l-5 1-1-2 1-2h2l-.562-2.312C308 553 308 553 309 550z" fill="#3a3a3a"/><path d="M441 448c-3.75 2-3.75 2-6 2v2l6 1 .402 1.734c.591 2.242 1.331 4.351 2.16 6.516l.816 2.141L445 465h-3v-2h-2l-1-4h-5v-6l-2-1-3-2c1-2 1-2 3.75-3.25 3.643-.841 5.009-.466 8.25 1.25z" fill="#bbb"/><path d="M401 397h2l.297 2.16c.961 6.158 2.241 10.647 5.703 15.84l2-1 4 3c-.588 3.024-1.227 6.018-2 9-3.558-1.779-4.787-5.362-6-9h-2l-2-6 1-1-2-1v-9h-2l1-3z" class="Bh"/><path d="M271 562h2v2l2 1 1 2h4l-1 4h3l-1 6-5 1v-3c-3.049-1.011-3.049-1.011-6 0l2-8-4-2 1-2 2 1v-2z" class="Cb"/><path d="M468 529l1-2c.625 2.375.625 2.375 1 5l-2 2v3l-2-1v7h-3l-1 2c-.934-3.01-1.044-3.867 0-7l-1-4v-3l-1-3c3.623-1.208 4.641-.543 8 1z" class="CF"/><path d="M229 357l4 2v2l3 2c-2.312.625-2.312.625-5 1l-3-2-2 1v2l-4 1-1 5-5-1-1-3 3-1v-5c3.01-.934 3.867-1.044 7 0v-2h4v-2z" class="CG"/><path d="M220 267l1 2-1 2 2 1-3 1c-.588 1.71-1 3.185-1 5v2l-2 1c-1.242 1.9-1.242 1.9-2 4l1 2-5 6-2-2 1-1.625c1.227-2.914 1.142-5.244 1-8.375h2c1.619-2.572 2.044-3.677 1.625-6.75L213 272l4 1 .375-1.875C218 269 218 269 220 267z" class="Br"/><path d="M258 552l5.375.25 3.023.141c2.602.609 2.602.609 3.883 2.516L271 557l1.125 2.25L273 561h-2v-2h-2l1 3h-3l-1-3-2 4c-5.604-5.173-5.604-5.173-6-9v-2z" fill="#363636"/><path d="M321 143l2 1c-.568 5.541-2.629 10.037-5 15l-1-2h-2l-1 3-2-1 1-2-2-1 1-7 3-1 2 1 1-2 3-4z" class="CH"/><path d="M471 468h3l-1 9h2l1 12-3 1-3-3 2-5h-4l1-3.125c.978-3.364 1.084-6.366 1-9.875l1-1z" fill="#555"/><path d="M287 126c2 3 2 3 2 6l3-3c2.014 5.413 2.014 5.413 1.938 8.625-.164 2.475-.164 2.475 1.563 4.375 1.868 2.49 1.753 3.961 1.5 7h-2l-3-5-3-2 2-6-6-1 2-9z" fill="#c5c5c5"/><path d="M224 263h4c1.996 5.518 2.454 10.243 1 16l-2 2-2-10h-5c1.75-5.75 1.75-5.75 4-8z" class="Bz"/><path d="M349 252h1v16h-7c-.557-5.575 1.135-9.357 4-14l2-2z" fill="#020202"/><path d="M253 523l2 4v-2h5l-4 4-3-1-1 3 1 1c1.044 3.133.934 3.99 0 7l2 1-3 1v-2l-3 1v-3l-4-1v-3l4 1 .438-3.437C250 527 250 527 251 526l-3-2c3-1 3-1 5-1z" class="CT"/><path d="M306 437l-1 2 4 3h-2l1 3-1 4h2v2l-1 1 1 2-4 1c-3-3.75-3-3.75-3-6l-3-1 6-2v-4h-7v-4c2.709-1.354 5.009-1.065 8-1z" class="CD"/><path d="M64 410c1 3 1 3-.437 6.188L62 419h-3v2H49l1-2h2l.625-1.75c1.873-3.064 4.345-4.405 7.375-6.25l1 1 3-2z" class="Cc"/><path d="M0 513c3 3 3 3 4 6l2 2v6l1 2H3l-2 5H0v-21z" class="CE"/><path d="M56 414c-1.419 2.838-3.442 4.173-6 6h-3l1 4-3-1 7 2c-3 2-3 2-7 2v2h-3v3l-4-2c0-3 0-3 2-5.062L42 423v-2l6-4 2.688-1.75C53 414 53 414 56 414z" fill="#e2e2e2"/><path d="M70 400c0 2.25 0 2.25-1 5l-5.676 2.832c-3.46 1.739-6.287 4.147-9.293 6.566-2.237 1.764-4.555 3.196-7.031 4.602l-6 4-2-1 4.375-3.5 2.461-1.969C48 415 48 415 50 415v-2h3v-2c1.721-1.377 3.504-2.678 5.313-3.937 3.885-2.665 3.885-2.665 7.355-5.816C67 400 67 400 70 400z" fill="#191919"/><path d="M340 141l3 1v3l3-1 2 7-5 1v2l-5-1-1-9h3v-3z" class="Bi"/><path d="M223 111h3l1 3h-2l1 3c-1.25 2.625-1.25 2.625-3 5l-3 1-.187 2.25c-1.054 3.569-2.812 4.672-5.812 6.75.291-5.97 3.028-8.895 7-13l-2-3c1.813-2.5 1.813-2.5 4-5z" fill="#bababa"/><path d="M248 124l3 1c-.981 2.944-1.587 4.675-4.062 6.625-3.16 3.874-2.77 8.515-2.937 13.375l-2-1c-.625-2.062-.625-2.062-1-4l-1 1a99.22 99.22 0 0 1-5 0l1.242-1.645 1.633-2.168 1.617-2.145c1.216-1.648 2.372-3.339 3.508-5.043l2.625-1.5L248 127v-3z" class="Bp"/><path d="M433 536c6.708 6.302 13.629 13.883 16 23-.406 2.262-.406 2.262-1 4l-1.375-3.25L445 556l-.937-2.187c-1.365-2.329-3.128-3.934-5.062-5.812l-2.125-2.75L435 543h-2v-7z" class="Bq"/><path d="M116 375h3l1 4h-5l1-4zm-5 1h3l2 5-3 1v2l-5 3-1 2h-5l4-6h2l1-4h2v-3z" fill="#757575"/><path d="M170 367l2 1v2l4 2-1 2-2-1v2l-11 1v-2h-2v2h-3l1-3h3v-4c2 1 2 1 3 2l2-1 1 2c1.542-1.375 1.542-1.375 3-3v-2z" class="Cd"/><path d="M201 201c2 1.313 2 1.313 4 3v3l8 2-1 2-7 1v6c-3.03-4.544-5.251-9.539-4.687-15.062L201 201z" fill="#101010"/><path d="M468 521c2.388 2.388 2.637 3.876 3.438 7.125.888 3.458 1.84 6.757 3.188 10.063 1.549 3.917 2.001 7.626 2.375 11.813l-2 1-.519-1.912-2.356-8.526-.816-3.01-.801-2.861-.73-2.65c-.585-2.227-.585-2.227-2.778-3.041-.042-2.333-.041-4.667 0-7l1-1z" class="By"/><path d="M412 436h5v3h-2v9h-2v4h-2c-1.802-3.83-2.196-6.781-2-11h2l1-5z" fill="#b7b7b7"/><path d="M168 288l1 2 3 1c-3.997 2.665-8.183 4.298-12.637 6.02-2.503.971-2.503.971-5.176 2.668-2.404 1.443-4.429 1.918-7.187 2.313 2-3 2-3 4.625-3.687L154 298v-3l6.055-1.27c2.316-.654 2.316-.654 3.945-3.73l-4-1 8-1z" fill="#a7a7a7"/><path d="M20 485l.063 5.188.035 2.918c-.139 4.113-1.069 7.926-2.098 11.895l-1.312-2.875C15.207 498.8 15.207 498.8 12 497v-3h3l-.25-2.25c.25-2.75.25-2.75 2.188-5.062C19 485 19 485 20 485z" class="Bx"/><path d="M181 366l8 1c0 4 0 4-2 7-3 2-3 2-5.187 1.625L180 375c-.625-2.812-.625-2.812-1-6l2-3z" class="CO"/><path d="M434 449h8l6 14-3 2c-2-2-2-2-2.5-5.062L442 457l-2-1 1-3-4 1v-2h-2l-1-3z" class="Bu"/><path d="M391 375c2.375 1.063 2.375 1.063 5 3 1.25 3.563 1.25 3.563 2 7l1 2h2v10h-2v-3h-2l-.375-2.125c-1.236-5.987-1.236-5.987-4.625-10.875.375-2.125.375-2.125 1-4h-2v-2z" fill="#b5b5b5"/><path d="M240 131l2 2-5 7 5-1-1 7c-3.998-.718-5.167-1.167-8-4l-1-4 2.313-.687c3.235-1.58 4.104-3.145 5.688-6.312zm-8 11l1 3-2-1 1-2z" fill="#1b1b1b"/><path d="M469 582c1.405 6.12 2.233 11.717 2 18h-2l-1-7-3 2-2-7h2l-1-3c3.875-3 3.875-3 5-3z" fill="silver"/><path d="M457 500c2 1 2 1 3 3.813l1 3.188 1.125 2.125C463 511 463 511 463 515h-2l-1 2-1-3v2h-3l-.062-7.437-.025-2.143L456 501l1-1z" class="Ce"/><path d="M286 404l2 3 1-2 4 1v3l-3 1-1 2-4 3v-2l-3-1-1-3h-2v-2h3l1-2 3-1z" fill="#5b5b5b"/><path d="M129 381l1.813 1.5c2.158 1.783 2.158 1.783 5.188 1.5l1.066 2.125C140.39 392.512 143.99 397.827 149 403l-1 2a90.35 90.35 0 0 1-4-4v-2h-2c-2.57-2.834-4.673-5.425-6.562-8.75-1.631-2.554-2.76-2.995-5.437-4.25-1.75-2.125-1.75-2.125-3-4l2-1z" class="Bl"/><path d="M245 126l-3 4h-2l-.562 2.875C238 136 238 136 234.375 137.375L231 138c1.203-6.135 2.808-8.469 8-12 3.375-1.312 3.375-1.312 6 0z" class="Cf"/><path d="M39 430l1 4 2.375-.125C45 434 45 434 47 436v3l3 1-5 1v-2l-4 1-1-3h-5v-6c2-1 2-1 4-1z" fill="#9c9c9c"/><path d="M399 411c5.46 5.04 10.173 10.692 12 18h2v2c-1.937.563-1.937.563-4 1l-1-1-2 2-.262-2.344c-.85-6.3-1.943-10.965-5.715-16.133C399 413 399 413 399 411z" fill="#b0b0b0"/><path d="M262 408c3.366 1.443 5.51 3.333 8 6l-6 2v3h-6l-1-2 2-5h2l1-4z" fill="#454545"/><path d="M265 123l1 3 4-2 1 3h-2l-1 9-2-2-2 1v-2l-2-1c-.875-2.312-.875-2.312-1-5 1.938-2.312 1.938-2.312 4-4z" class="Bo"/><path d="M489 386l1 2c-5.918 7.085-12.431 13.528-19 20l-3-1 21-21z" class="Bm"/><path d="M323 233l4 1-1 5c-5.255 1.752-9.489 1.648-14.5-.5L309 237l1-3c3.875 1.875 3.875 1.875 5 3 2.415.417 2.415.417 5 0 1.843-1.9 1.843-1.9 3-4z" class="Bu"/><path d="M484 548c4.787 4.787 4.125 15.36 4.125 21.875L488 574c-2.437-2.24-3.869-4.054-4.33-7.381-.063-2.819-.018-5.613.08-8.431l.055-2.967L484 548z" class="Bh"/><path d="M320 90l4 3-11 2-1 3c-1.937-.375-1.937-.375-4-1l-1-2h-3v-2l5.188-1.5 2.918-.844c2.833-.642 5.011-.996 7.895-.656z" class="Cg"/><path d="M246 437l3 1c-1 3-1 3-2 4h-2v2l2 1-2 3-2-1 2 7h2l-1 2-4-2v-2l-4-1h2l1-8h2l.375-2.437L244 438l2-1z" fill="#5a5a5a"/><path d="M201 161h2l-.254 2.152-.309 2.785-.316 2.777L202 171l1 1 .746 5.988A38.31 38.31 0 0 0 205 184c-2.797-2.068-3.027-3.144-3.687-6.687L201 174l-1.812 1.438C197 177 197 177 194 178a47.82 47.82 0 0 1 4.063-8.5c1.652-2.806 2.541-5.229 2.938-8.5z" fill="#bbb"/><path d="M78 421v2l4 1-1 3h-4v3c-3.242-.35-4.615-.562-6.812-3.062L69 425h3v-3c2.076-.553 3.844-1 6-1z" fill="#f3f3f3"/><path d="M233 217c1.563 1.25 1.563 1.25 3 3-.125 2.125-.125 2.125-1 4l-3 1 1 9h-2l-1 2c-1.05-3.149-1.101-5.388-1.062-8.687l.027-3.012L229 222h4v-5z" class="Ch"/><path d="M234 494l1 2c2.118 1.118 2.118 1.118 5 2l1 3-3 2c-.25 2.584-.25 2.584 0 5l-1.875-.562c-2.167-.674-2.167-.674-4.125.563v-3l-2-1c0-2 0-2 2-4h3l-1.062-1.875L233 496l1-2z" fill="#4f4f4f"/><path d="M171 271h1l.402 3.176.535 4.137.264 2.092c.391 2.997.84 5.72 1.799 8.596-1 1-1 1-3.562 1.063L169 290l-.062-5.437-.035-3.059C169 279 169 279 170 278l1-7z" class="Bq"/><path d="M147 337l2 1-3 2 1-3zm-4 4l2 1c-2.25 4.499-4.844 6.286-9 9l-2 2.75c-2 2.25-2 2.25-5.25 2.563L126 356l2.105-1.641c3.182-2.594 6.196-5.322 9.207-8.109l1.666-1.535L143 341z" class="CW"/><path d="M333 447h2l.805 2.047 1.07 2.703 1.055 2.672L341 461l-4-1v-2l-2.437-.375L332 457l-1-2-2 1c.375-1.937.375-1.937 1-4l2-1c.652-2.025.652-2.025 1-4z" fill="#9b9b9b"/><path d="M299 539l5 1 1 5 3 1 2 1-2 4-1-2c-1.895-.465-1.895-.465-4.062-.625L299 548v-2h2l-2-7z" fill="#818181"/><path d="M226 481l2 2c-.023 2.602-.023 2.602-.375 5.625l-.336 3.039L227 494l-4-2v-2l-1-3-2 1c0-3 0-3 2-5l4-2z" fill="#2f2f2f"/><path d="M464 439c3.929 7.546 7.734 15.375 7 24 .429 2.31.429 2.31 1 4l-3-1c-.676-1.747-.676-1.747-1.098-4.008l-.49-2.492-.475-2.625-.973-5.07-.473-2.462c-.666-3.173-1.546-6.242-2.492-9.343l1-1z" class="Ci"/><path d="M302 246c3.147.699 6.026 1.761 9 3l1-3c2 3.75 2 3.75 2 6l-7-1v2h-6l1-7z" class="CU"/><path d="M234 415l5 1v2l-2 2 1 2h2v2h-2l-2 4c-2.562-2.25-2.562-2.25-5-5 .188-2.312.188-2.312 1-4h2v-4z" fill="#5d5d5d"/><path d="M163 368l-2 1v4l-3 1-1 2-3-1h-3v-2l3-2v-3c3.069-1.534 5.701-.55 9 0z" class="Bj"/><path d="M91 398h3v2l2 1c-3 2-3 2-6 2l-2 2-6 1v-6c5.625-1.125 5.625-1.125 9 0v-2z" fill="#939393"/><path d="M401.875 367.813C405 368 405 368 408 370v3h3l-1 3-2.812-1c-3.108-1.15-3.108-1.15-6.187-1-1.687-2.5-1.687-2.5-3-5 1-1 1-1 3.875-1.187z" class="CR"/><path d="M208 292l2 1 1.625 5.875.789 3.242C213 305 213 305 213 308h2v2l-3 1c-2.532-1.872-2.999-2.995-3.687-6.125-.348-4.31-.401-8.555-.312-12.875z" class="Cj"/><path d="M173 236l2 1-2 19h-1l-1-6h-1l.375-6.437.211-3.621L171 237l2-1z" class="Bn"/><path d="M235 127l3 1-2.062 1.375c-4.105 3.669-6.911 8.054-9.937 12.625l-2-2c.375-2.125.375-2.125 1-4h2l.875-2.875C229 130 229 130 231 128l3 1 1-2z" class="Cb"/><path d="M263 263v2l-2.449.805-3.238 1.07-3.199 1.055L246 271l-1-2c6.174-4.905 10.08-6.754 18-6z" class="CQ"/><path d="M478 571c2.594 2.594 2.989 4.861 4 8.375 1.895 6.926 1.895 6.926 6 12.625l-2 1v6l-2 1-.043-1.695c-.411-6.904-2.363-12.692-4.898-19.105-.989-2.988-1.286-5.089-1.059-8.199z" class="Ci"/><path d="M270 500l2 1v2l4 2v2h2l1 5c-3.337-1.173-5.774-2.189-8-5v-2l-7-3c3.75-1.125 3.75-1.125 6 0v-2z" fill="#848484"/><path d="M470 458c4.003 4.003 5.692 8.482 6.188 14.145 0 1.62-.084 3.239-.187 4.855h-3c-1.033-2.788-1.045-3.868-.062-6.75L474 468l-3-1-1-9z" class="Ck"/><path d="M143 381l1.813.5c2.301.611 2.301.611 5.188.5l-.625 1.75c-.462 2.77.196 3.896 1.625 6.25h2l1 3c-4.677-1.477-4.677-1.477-6.312-4.125L147 387h-3l-3-1 2-5z" class="Cl"/><path d="M303 130l3 1v2h2v9l-2-1-1 3h-2v-2h-4l1-4 4 3v-2l-2-1 1-2 2 1-2-7z" fill="gray"/><path d="M477 561c2.313.25 2.313.25 4 1-8.448 7-8.448 7-12 7l-1 2c-1.062-1.812-1.062-1.812-2-4l1-3 2.188.75c3.861.343 4.905-1.364 7.813-3.75z" class="Cb"/><path d="M262 111h2v3l3 1-1 3h-2l-1 4-4 1c-1-2-1-2-.25-4.562C260 116 260 116 263 115l-1-4z" class="Cm"/><path d="M11 476l4 2-.562 2.438L14 483l1 1-1 3c-2.437-.812-2.437-.812-5-2l-1-3H6v-3l5 2v-5z" class="CA"/><path d="M62 420h3v8c-1.812 1.063-1.812 1.063-4 2l-3-1c.506-2.169 1-4 2-6h2v-3z" fill="#545454"/><path d="M191 372l2 1-1 4h-2v2l2 1-3 1v-3l-4 2v-2l-2-1v-3c3.287-.8 4.71-1.097 8 0v-2z" fill="#9f9f9f"/><path d="M203 356l-1 7c-3.058.544-5.888 1-9 1l1-4v2l2-1-1-2c1-2 1-2 2.875-2.625C200 356 200 356 203 356z" fill="#d8d8d8"/><path d="M309 550c3 2 3 2 4 5 2 1.209 2 1.209 4 2v2h2l1 3-1.75-1c-2.449-1.271-2.449-1.271-6.25-1v-2h-3c-.8-3.287-1.097-4.71 0-8z" fill="#636363"/><path d="M69 412v3l-2 1-1 3c-2.062.688-2.062.688-4 1v3l-5 2 2-6h3l2-6 5-1zm459-106h1c.361 5.782-.542 9.72-3 15l-3 1c1.777-11.936 1.777-11.936 5-16z" fill="#eaeaea"/><path d="M246 121h3l-.5 1.813c-.611 2.301-.611 2.301-.5 5.188l-6 4-2-2h2l1-4-3-1 2.438-.875c2.695-.858 2.695-.858 3.563-3.125z" class="Br"/><path d="M465 561h1l1 9h-2v2h-2l1 3 2-1-2 6h-2l-1 2-.187-4.75-.105-2.672c.348-3.066 1.392-4.211 3.293-6.578.725-3.653.725-3.653 1-7z" class="CG"/><path d="M298 121c2.938 1.25 2.938 1.25 6 3 .875 2.188.875 2.188 1 4l-2 1-1-4-4 1-1 5h-4v-5h3v-2l2-1v-2z" class="CI"/><path d="M256 539l2.25.563c2.7.43 4.196.289 6.75-.562l-1 3 2 2h-2v2c-2.875-.312-2.875-.312-6-1-2-3-2-3-2-6z" class="CJ"/><path d="M401 397h2l.367 2.266.508 2.984.492 2.953c.585 2.585 1.427 4.466 2.633 6.797v5h-2l-2-6 1-1-2-1v-9h-2l1-3z" fill="#787878"/><path d="M288 398h2v2l4 2h-2v3l4 1c-3.652 1.217-4.63.642-8-1l-2-2h-3l1-3h4v-2z" fill="#232323"/><path d="M401 393c2.938.813 2.938.813 6 2 1 3 1 3 1 6l-2 2v3c-1.5-1.125-1.5-1.125-3-3-.187-3.187-.187-3.187 0-6h-2l-1-3 1-1z" class="Bq"/><path d="M171 249h1c.185 12.67.185 12.67-1 18l-2-1-.125-6.812-.07-3.832C169 252 169 252 171 249z" class="Bm"/><path d="M246 521l3 1-1.5 1.375c-1.726 1.501-1.726 1.501-1.5 3.625l2 1-1 4-3-1v-4h-2l-1 3-1-5 6-4z" class="Cn"/><path d="M411 433l7 2c-1.875 1.063-1.875 1.063-4 2l-2-1-1 5h-2v5l-2-2c.033-2.729.564-5.297 1-8h3v-3z" fill="#646464"/><path d="M446 404l1.875 1.063L450 406l2-1c2.29 3.435 2.178 4.985 2 9-4.208-1.503-5.803-4.233-8-8v-2z" class="Bh"/><path d="M281 391v2h2v4l4 2v1c-2.312.25-2.312.25-5 0l-3-4c-2.626-.334-2.626-.334-5 0l2-1-1-3c3-1 3-1 6-1z" fill="#4e4e4e"/><path d="M219 363h7v2l-4 1-1 5-5-1-1-3 3-1 1-3z" fill="#b3b3b3"/><path d="M285 348l2 1-2 2c-.643 2.069-.643 2.069-1 4h-2l-1 3v-2l-2 1c-2.672.134-5.323.043-8 0l1.688-.812c4.499-2.31 8.416-4.959 12.313-8.187z" fill="#626262"/><path d="M176 223h1c.212 5.192-.409 9.127-2 14h-3c.337-5.329.615-9.628 4-14z" class="CR"/><path d="M481 536h3c.839 7.511 1.077 14.508 0 22h-1l-.402-3.578-.535-4.672-.264-2.355-.264-2.285-.238-2.095c-.263-2.062-.263-2.062-.893-4.209L480 537l1-1z" class="CG"/><path d="M25 385h2c-.877 7.19-2.845 11.845-8 17l3-11h2l1-6z" class="CM"/><path d="M192 366l1 2 3 1v4h-2l-1 2-2-3v2l-3 1c.875-4.75.875-4.75 2-7h2v-2z" fill="#ddd"/><path d="M237.438 111.75L239 113c-.628 2.929-1.586 5.361-3 8l-2-1 1-5-7 2v-2c6.4-4.185 6.4-4.185 9.438-3.25z" fill="#444"/><path d="M464 591l2 2 2-2c1.478 2.957 1.06 5.742 1 9h-5l-1-8 1-1z" class="CC"/><path d="M468 544l4 1-2 6h6l-3 3-2-1-1 2-3-1-1-3h2l1-5-2-1 1-1z" fill="#242424"/><path d="M47 420l3.813-.062 2.145-.035C55 420 55 420 58 421l-1 2-4 1v1c-3.375.188-3.375.188-7 0l-2-3 2-1 1 1v-2z" fill="#7d7d7d"/><path d="M212 280l3 2c0 3.815-.035 4.955-2 8l-4 3-1-2 .938-1.75c1.349-2.856 1.204-5.13 1.063-8.25l2-1z" class="CK"/><path d="M352 214l1 2h2l.188 5.25.105 2.953C355 227 355 227 352 231v-17z" class="Ch"/><path d="M258 145l2 1-3 8-4-1-2 3 1-9 2 2 1-3 3-1z" class="CK"/><path d="M462 533l3 1 1 9h-3l-1 2c-.934-3.01-1.044-3.867 0-7l-1-4 1-1z" class="CY"/><path d="M478 490h1l.563 8.875.17 2.551.146 2.441.143 2.253C480 508 480 508 479 510l-3-1 .563-3.062c.435-3.917.146-7.08-.562-10.937h2v-5z" fill="#bcbcbc"/><path d="M441 448c-3.75 2-3.75 2-6 2v2h2l-1 4v-2l-1.812-.875C432 452 432 452 429 450c1-2 1-2 3.75-3.25 3.643-.841 5.009-.466 8.25 1.25z" fill="#b5b5b5"/><path d="M43.313 424.313L46 425h6c-3 2-3 2-7 2v2h-3v3l-4-2c0-3 0-3 1.188-4.75C41 424 41 424 43.313 424.313z" class="CQ"/><path d="M291 137l3 1 2 6h1v5h-2l-3-5-3-2 2-5z" class="Co"/><path d="M333 138h3v2l3 1v3h-2l1 4c-2.5-1.062-2.5-1.062-5-3-.312-3.687-.312-3.687 0-7z" class="CY"/><path d="M297 532h2l.25 2.313c.896 3.211 1.966 3.981 4.75 5.688-3 0-3 0-5-1l2 4-2 2-2-1c-1.098-4.291-.923-7.692 0-12z" fill="#5e5e5e"/><path d="M465 455h2l3 10-6-1v-8l1-1z" class="CL"/><path d="M181 376c3 1 3 1 5 3l3-1 1 5-4 2-2.5-3.375-1.406-1.898C181 378 181 378 181 376z" fill="#ccc"/><path d="M260 224c2.563 1.625 2.563 1.625 4 3-3.952 1.317-6.077.191-10-1h-3v-2l-4 2 1-3c4.308-1.436 7.737-.339 12 1z" class="Bw"/><path d="M223 111h3l1 3h-2l1 3-1 3c-4.875-1.75-4.875-1.75-6-4l4-5z" fill="#858585"/><path d="M469 532c1.746 2.619 2.387 4.038 3 7l-1.875.75c-2.476 1.456-3.076 2.628-4.125 5.25l-3-2h3v-7l3-1-3-1 3-2z" fill="#868686"/><path d="M44 342l2 1-3.25 5-1.828 2.813L39 353h-4v-2h2l.25-1.875C38 347 38 347 39.938 345.938L42 345l2-3z" class="Cp"/><path d="M232 258h4v9l-4 1 1-2-1-1-1-6 1-1z" class="Bs"/><path d="M266.563 552.938L269 553l4 8h-2v-2h-2l1 3h-3l-.875-2.875c-.893-3.177-.893-3.177-3.125-5.125 1-1 1-1 3.563-1.062z" fill="#4f4f4f"/><path d="M258 479c3.116 1.558 4.264 4.049 6 7v4l-3-1v-2l-3-1-1-6 1-1z" fill="#6e6e6e"/><path d="M103 386l-3 10-1-2h-2v-2l-2-1c4.625-5 4.625-5 8-5z" class="CS"/><path d="M240 353h12l-4 1 4 5-3 2c-2-2-2-2-3.375-4-1.711-2.386-1.711-2.386-5.625-4z" fill="#6e6e6e"/><path d="M261 262c12.67-.185 12.67-.185 18 1l-3 1v2l-6.375-.875-3.586-.492C263 264 263 264 261 262z" fill="#9d9d9d"/><path d="M279 136h3c.369 11.522.369 11.522-2 17h-1c-.844-4.688-.932-8.342 0-13v-4z" fill="#353535"/><path d="M321 89c2.82-.293 2.82-.293 6.125-.187l3.32.082L333 89v2c-3.149 1.05-5.388 1.101-8.687 1.063l-3.012-.027L319 92l2-3z" class="Bg"/><path d="M20 586l3 1h-2l.219 2.117.281 2.758.281 2.742L22 599l3 1h-6l.035-1.828.027-2.422.035-2.391c-.094-2.266-.465-4.188-1.098-6.359l2-1z" fill="#4a4a4a"/><path d="M465.563 543.938L468 544c.934 3.01 1.044 3.867 0 7l-6-1v-5c1-1 1-1 3.563-1.062z" fill="#5e5e5e"/><path d="M218 471l3 1-1 2-.062 4.625.027 2.477L220 483l-4-1 .125-2.375c.162-2.786.162-2.786-2.125-4.625l3-2 1-2z" class="Cn"/><path d="M199 206h2l3 9 1-3h2v8h-4l-4-14z" class="Bs"/><path d="M237.563 121.938L241 122v2h-3v3h-3l-1 3-2-1c1.04-6.983 1.04-6.983 5.563-7.062z" class="CS"/><path d="M334 105c5.014.152 7.334 2.927 10.645 6.309C346 113 346 113 346 115l3 1-2 3-2.187-2.687c-2.449-2.942-5.069-5.641-7.812-8.312l-3-3z" fill="#959595"/><path d="M479 579c1.733 2.599 2.485 4.138 3.25 7.063l.578 2.098L483 590l-2 2h-2c-.934-3.01-1.044-3.867 0-7-.879-2.657-.879-2.657-2-5l2-1z" class="Cm"/><path d="M5 544l5 1 .938 3.375c.886 3.42.886 3.42 2.063 5.625l-4-2 1-2-2.937-.375L4 549l-1-2h2v-3z" fill="#6c6c6c"/><path d="M323 463l1 2 4-1v6l2 1h-2l-1 2c-2-1.625-2-1.625-4-4-.25-3.25-.25-3.25 0-6z" class="Cj"/><path d="M62 407c2.75.813 2.75.813 5 2l-1 5-1.75-1.062c-2.684-1.118-3.556-.864-6.25.063l-4 1c5.377-5.57 5.377-5.57 8-7z" fill="#ababab"/><path d="M124 382c2.395 3.12 4.601 6.331 6.75 9.625l1.922 2.914L134 397l-1 2c-7.991-9.852-7.991-9.852-10-15l1-2z" fill="#b9b9b9"/><path d="M251 132l1 4h2v5l-2 1v-2c-3.113.669-3.113.669-4.187 3.063L247 145c-.75-1.75-.75-1.75-1-4l4-4c.797-2.642.797-2.642 1-5z" fill="#c8c8c8"/><path d="M473 535c2.62 4.866 4.328 9.419 4 15l-2 1c-3.629-10.374-3.629-10.374-2-16z" class="CF"/><path d="M377 462l2 1-1 1 2 2-4.312 2-2.426 1.125C371 470 371 470 368 470c1.161-3.482 1.909-3.888 4.938-5.75l2.152-1.359L377 462z" class="Bl"/><path d="M206 375c1.108 3.325.845 5.622 0 9-2.437-.687-2.437-.687-5-2-.812-2.625-.812-2.625-1-5h6v-2z" class="Bz"/><path d="M205 362h3l2 5 1-2 3 1v4l-6 1-3-9z" fill="#e2e2e2"/><path d="M221 355h3v2l4-1 1 3h-4v2l-5-1-1 2v-3h2l-1-3 1-1z" class="Cq"/><path d="M15 542v4h-2c.344 2.473.344 2.473 1 5l2 1h-3l-4-5c2.258-5 2.258-5 6-5z" class="Bi"/><path d="M253 523l2 4v-2h5l-4 4-3-1-1 3v-2h-2c0-2 0-2 1-3l-3-2c3-1 3-1 5-1z" fill="#383838"/><path d="M265 491c2.815 1.408 3.613 3.226 5 6l-1 3h-3c-1.75-1.75-1.75-1.75-3-4 .248-2.17.442-3.442 2-5z" fill="#787878"/><path d="M53 436l1-2 1 3h-3l-1 4-4-1v-4l-3-1c3.766-1.255 5.372-.371 9 1z" fill="#c8c8c8"/><path d="M209 357c.688 2.063.688 2.063 1 4-6.75 1.125-6.75 1.125-9 0 .813-1.937.813-1.937 2-4 3-1 3-1 6 0z" class="CG"/><path d="M210 284c1 3 1 3 .125 4.813L209 291l-1 6h-3c.387-5.712.87-8.737 5-13z" fill="#141414"/><path d="M276 264c3.848-.583 5.763.3 8.813 2.5L288 269l-2 2-10-5v-2z" class="Ca"/><path d="M294 130l3 1-1 14c-2.99-5.981-2.944-8.603-2-15z" class="CX"/><path d="M227 119v3l-2 2-1 2h-2v2l-3-1c.063-2.312.063-2.312 1-5 3.563-1.812 3.563-1.812 7-3z" class="CD"/><path d="M441 548h3l2.563 5.25 1.441 2.953c1.031 2.895 1.11 3.997-.004 6.797l-1.375-3.25c-1.837-5.208-1.837-5.208-5.625-8.75v-3z" class="CU"/><path d="M14 535h1v7l-6 2-.375-1.937L8 540l-2-1v-2l5 2v2h3v-6z" class="Bs"/><path d="M260 536l1 3h-4l.188 2.313C257 544 257 544 255.5 545.813L254 547l-2-1 1.063-1.75c1.087-2.608.868-3.644-.062-6.25 3-2 3-2 7-2z" class="Cr"/><path d="M404 496c6.625-.25 6.625-.25 10 2l2-2c-.547 3.375-1.055 5.082-3 8l-2-1 1-4c-3.053-.981-4.947-.981-8 0v-3z" fill="#828282"/><path d="M227 492l5 2-1 3-4 1-1 3-2-6 3-1v-2z" class="Bv"/><path d="M399 411c3.89 3.591 6.897 7.739 10 12l-4 2-1.312-3.187a51.78 51.78 0 0 0-3.375-6.625C399 413 399 413 399 411z" fill="#bebebe"/><path d="M164 365l3 3 3-1 1 3-5 4-1-3-1 2-2-1 2-7z" class="Bl"/><path d="M264 267l-1.617.801-5.328 2.742-3.18 1.645-3.195 1.668L248 275l-2-1 3.75-2.937 2.109-1.652c3.953-2.604 7.485-2.516 12.141-2.41z" class="Bx"/><path d="M248 124l3 1c-1.346 4.406-3.194 6.431-7 9h-2c.188-1.812.188-1.812 1-4l5-3v-3z" class="Bi"/><path d="M239 114h4v4l-4 1v2l-3 1c.547-3.375 1.055-5.082 3-8z" class="Cg"/><path d="M470 552l3 1v2h-2l1 5-5 4-2-4 3-2 2 1v-7z" class="CM"/><path d="M457 489c2.12 3.534 2.532 6.944 3 11l-2 1c-2-2-2-2-2.187-5.437C456 492 456 492 457 489z" class="CN"/><path d="M472 482h3l1 7-3 1-3-3 2-5z" fill="#505050"/><path d="M442 456h3l3 8-3 1c-2.762-2.762-2.579-5.207-3-9z" class="Ck"/><path d="M395 387h6v10h-2v-3h-2l-.437-2.375c-.44-2.589-.44-2.589-1.562-4.625z" class="Bs"/><path d="M196 369l1 3h2v2l3 1v2h-2l1 3-1 3h-2l.125-3.312c.196-3.776.196-3.776-2.125-6.687v-4z" class="Bm"/><path d="M219 353h7v2l3-1 4 1v2c-5.373 1.221-5.373 1.221-8.125.25L219 353z" class="CA"/><path d="M340 141l3 1-1 7-5 1v-6h3v-3z" fill="#bdbdbd"/><path d="M305 121h2v2h3l-2 6-5-4v-2h2v-2z" class="Bk"/><path d="M220 472h1v6l3 1-3 1 2 4h-5l2-1-1-2c-.233-6.533-.233-6.533 1-9z" class="Cr"/><path d="M225 410h6l-3 1 2 5h3l-1 2h-4c-3-5.75-3-5.75-3-8z" class="CT"/><path d="M80 412l-2 4h-4c-2.201.933-2.201.933-4 2l-1-3c3.833-2.706 6.325-3.326 11-3z" fill="#c5c5c5"/><path d="M110 381c.75 1.75.75 1.75 1 4-1.625 2.25-1.625 2.25-4 4-2.75.25-2.75.25-5 0 4-6.571 4-6.571 8-8z" fill="#515151"/><path d="M145 376l1 4h2l-1 3-2.187-.5c-2.677-.476-5.102-.577-7.812-.5v-2l-2-1h10v-3z" fill="#ccc"/><path d="M181 361c2 1 2 1 3 3h-2l-1 2-6 1-1-3 7-3z" class="Cs"/><path d="M202 343l8 1 1 2c-2 2-2 2-5.125 2.125L203 348l-1-5z" fill="#6c6c6c"/><path d="M253 107l-2 7-3-1-5 1v-2c1.68-1.289 1.68-1.289 3.875-2.625l2.18-1.352C251 107 251 107 253 107z" fill="#676767"/><path d="M18 510h2v2h2v3h-2l1 6h2v2c-1.953-.648-1.953-.648-4-2-.609-2.602-.609-2.602-.75-5.625l-.172-3.039L18 510z" fill="#6f6f6f"/><path d="M240 502l3 1 1 5h2l-1 3-4-1 1-3-3-2 1-3z" class="CL"/><path d="M286 404v8h-4l-1-3h-2v-2h3l1-2 3-1z" class="Ct"/><path d="M276 570l1 4 1.375-1.5C280 571 280 571 282 571l-1 6-5 1v-3l-.562-2.125L275 571l1-1z" fill="#484848"/><path d="M2 541l4 1-3 1 .625 1.75c.462 2.77-.196 3.896-1.625 6.25H0v-7h2v-3z" class="Bt"/><path d="M3 489h1l.438 2.813c.484 3.195.484 3.195 1.563 6.188l-4 1c-2-3-2-3-1.75-5.562C1 491 1 491 3 489z" class="Cf"/><path d="M254 474h2v3h2l-1 6-4-2c0-2.621.313-4.509 1-7z" fill="#323232"/><path d="M89 403l3 1-1 3h-4l1 3-4-1-1-5 2.438.063c2.496.234 2.496.234 3.563-1.062z" fill="#555"/><path d="M401 486l2 4h2l4 6-4 1c-1.962-3.668-3.393-6.872-4-11z" class="Ce"/><path d="M418 423l1 2 6 1-1 2c-2.066.633-2.066.633-4.562 1.125l-2.504.508L415 430v-2l2-1c.652-2.025.652-2.025 1-4z" class="Bx"/><path d="M296 417l3 1 1 5-6 1-1-4 3-1v-2z" fill="#131313"/><path d="M64 410c1 3 1 3-.437 6.188L62 419l-5-1 2-2.375c2.202-2.34 2.202-2.34 2-4.625l3-1z" class="CC"/><path d="M278 397l3 1-1 3 2 1-1 4h-2v-3l-3 1 1-2.375c1.119-2.468 1.119-2.468 1-4.625z" class="Cc"/><path d="M129 381l1.813 1.5c2.158 1.783 2.158 1.783 5.188 1.5l1 4c-3.196 0-4.341-.338-7-2l-3-4 2-1z" fill="#ababab"/><path d="M231 363l5 1c-1.812 1.063-1.812 1.063-4 2l-3-1-5 1 2-1v-2l-2-1c3.486-1.202 3.68-1.213 7 1z" class="Bi"/><path d="M156 294l1 4c-3.334 2.191-6.042 3.435-10 4 2-3 2-3 4.625-3.687L154 298v-3l2-1z" fill="#bebebe"/><path d="M224 263c1.097 3.29.8 4.713 0 8h-4c1.75-5.75 1.75-5.75 4-8z" fill="#d2d2d2"/><path d="M302 246l4 1 1 4-5 1v-6z" class="CN"/><path d="M173 236l2 1-1 11h-1l-1-5h-1v-6l2-1z" class="Bl"/><path d="M321 221c4.992.48 6.85.888 11 4l-10 1-1-5z" fill="#616161"/><path d="M354 125c4.116 3.506 6.906 8.046 9 13l-1 2-2-5h-3l-.375-2.187c-.615-2.77-1.509-5.21-2.625-7.812z" class="Cq"/><path d="M256 118l2 1 1 5c-4.75 1.125-4.75 1.125-7 0 1.152-2.468 2.048-4.048 4-6z" class="CJ"/><path d="M3 529l5 2v6l-4-1-1-7z" class="Cg"/><path d="M246 523c2.169.506 4 1 6 2v2h-2v2l-5-2 1-4z" fill="#767676"/><path d="M283 520c1.938.375 1.938.375 4 1l1 2 2 3h-3l-1 2v-2l-3-1v-5z" class="Cu"/><path d="M458 517l3 1v4h3l1 3-4 2-3-10z" class="Ci"/><path d="M238 502l2 1v2c1.458 1.625 1.458 1.625 3 3l-3 3-2-2 1-1-2-1 1-5z" fill="#050505"/><path d="M470 458c3.349 3.349 3.895 5.494 5 10l-4-1-1-9z" class="Bn"/><path d="M303 422l3 1-2 4h-4v2h-2l-1-5 6 1v-3z" fill="#292929"/><path d="M242 423l1 3h-2v3l-4 1-1-2c1.305-3.312 2.209-5 6-5z" fill="#2e2e2e"/><path d="M177 375h4l2 7c-2.375.625-2.375.625-5 1l-2-2 3-2 1-2h-3v-2z" class="Bz"/><path d="M161 369c2 1 2 1 3 3l1 3-3 1v-2h-2v2h-3l1-3h3v-4z" fill="gray"/><path d="M114 370l3 3-2 6-4-4 3-5z" class="Bp"/><path d="M147 337l2 1-3 2 1-3zm-4 4l2 1c-2.625 4.875-2.625 4.875-6 6 .564-3.27 1.5-4.826 4-7z" class="Cp"/><path d="M183 202c1.033 2.788 1.045 3.868.063 6.75L182 211h-3c.615-5.538.615-5.538 2.563-7.875L183 202z" class="Bm"/><path d="M311 125l2 1v4h2v5l-1.25-2-1.75-2h-4v-2l2-1 1-3z" fill="#4d4d4d"/><path d="M262 115l-2 2-2 4-2-2-4 2c1.796-4.735 4.92-7.693 10-6z" fill="#868686"/><path d="M13.188 574.375L15 575v3h-4l-1 2-2-4c3-2 3-2 5.188-1.625zM458 564l2 1c.75 2.938.75 2.938 1 6l-2 2c-3-4.625-3-4.625-3-8l2-1z" fill="#999"/><path d="M477 551c2.503 2.938 3.469 5.179 4 9l-3 1-1.062-3.875-.598-2.18C476 553 476 553 477 551z" fill="#c6c6c6"/><path d="M290 526h2l1 5 3 1c-1.812.625-1.812.625-4 1-3-2-3-2-4-5h2v-2z" class="CK"/><path d="M236 516l5 1 1 3-3 2 2 1h-4l-1-7z" class="CZ"/><path d="M423 508h2l3 6h-2v2h-2c-2.125-4.625-2.125-4.625-1-8z" class="Cj"/><path d="M231 493h2c1.461 2.647 2 3.894 2 7h-7l1-3 2-1v-3z" fill="#1c1c1c"/><path d="M6 479l3 1v3l6 1-1 3c-2.437-.812-2.437-.812-5-2l-1-3H6v-3z" fill="#888"/><path d="M411 439h2v8l-2 1c-2-3-2-3-2-7h2v-2z" class="Bg"/><path d="M289 421c2.438.625 2.438.625 5 2 .813 3.125.813 3.125 1 6-3.688-1.229-4.724-2.939-7-6l1-2z" fill="#323232"/><path d="M82 400h5l1 4-6 2v-6z" class="Cv"/><path d="M192 379l1 2h4l-1 3c-2.562 1.188-2.562 1.188-5 2-.625-2.375-.625-2.375-1-5l2-2z" class="Cd"/><path d="M170 367l2 1v2l4 2-1 2-3-2c-2.671.802-2.671.802-5 2l.938-1.812c1.165-2.277 1.165-2.277 2.063-5.187z" fill="#a3a3a3"/><path d="M384 364c2.938 1.063 2.938 1.063 6 3 .875 3.688.875 3.688 1 7-1.5-1.312-1.5-1.312-3-3v-3l-4 2v-6z" class="Cv"/><path d="M219 360l-2 4-6-1v-3c3.29-1.097 4.713-.8 8 0z" class="Bh"/><path d="M259 150l1 3 3-1c-.125 1.875-.125 1.875-1 4-3.062 1.25-3.062 1.25-6 2 1.875-6.875 1.875-6.875 3-8z" class="Bw"/><path d="M245 126l-3 4h-2l-2 5c-1.6-3.201-.032-5.723 1-9 3.75-1.125 3.75-1.125 6 0z" class="CE"/><path d="M9 587h2v2H9v6H6l-1-3c2-3 2-3 4-5z" class="Cl"/><path d="M2 511h3l1 9-3-1-1-8z" fill="#bdbdbd"/><path d="M395 479l3 1v2l2 1 1 5-1-2-2-.812c-2-1.187-2-1.187-2.75-3.812L395 479z" class="Bu"/><path d="M281 334l2 1-9 9-2-1 3-4h2v-2l4-3z" class="Bl"/><path d="M208 292l2 1c1.376 6.996 1.376 6.996.063 10.5L209 305c-.872-2.995-1.108-5.636-1.062-8.75l.027-2.422L208 292z" fill="#cecece"/><path d="M275 268c4.197-.353 6.065.358 9.313 3l2.113 1.688L288 274c-3.49 0-5.115-.904-8.187-2.5l-2.73-1.406L275 269v-1z" class="By"/><path d="M205 207l8 2-1 2c-2.437.75-2.437.75-5 1l-2-2v-3z" class="Ct"/><path d="M229 133l1 3-4 6-2-2c.375-2.125.375-2.125 1-4h2v-2l2-1z" class="CC"/><path d="M225 132c1 3 1 3 .223 5.043l-1.16 2.145-1.152 2.168L222 143l-1-2-2-1 3-1 .375-2.375C223 134 223 134 225 132z" fill="#212121"/><path d="M315 90c4.542-.378 5.014.011 9 3l-10 1 1-4z" class="Bl"/><path d="M468 589c3 3 3 3 3.293 5.043L471 600h-2l-1-11z" class="CF"/><path d="M299 539l5 1c.625 1.813.625 1.813 1 4l-2 3-2-1-2-7z" fill="#9a9a9a"/><path d="M397 519l7 1-1 2h-2l-1 2-5-1c0-2 0-2 2-4z" fill="#575757"/><path d="M285 516l1 3 2 1-6 3-1-5 4-2z" class="CV"/><path d="M275 505l1 2h2l1 5c-2.437-.812-2.437-.812-5-2l-1-3h2v-2z" class="Cu"/><path d="M474 494l3 1 1 7-4-1v-7z" class="Cm"/><path d="M397 485c4.392 1.464 4.879 3.978 7 8h-4v-2h-2v-3l-2-2 1-1z" fill="#454545"/><path d="M240 449h3l2 5h2l-1 2-4-2v-2l-4-1h2v-2z" class="Cp"/><path d="M246 426h2c-.492 5.538-.492 5.538-3.062 7.875L243 435l-1-3 1-1-1-2 3-1 1-2z" class="CJ"/><path d="M155 377l1 2-3 6-3-3c.813-1.937.813-1.937 2-4l3-1z" class="Bo"/><path d="M32 365l2 3-3 7h-2c-.366-4.273.592-6.488 3-10z" fill="#3c3c3c"/><path d="M212 352l4 1v3l2 1-4 1v-2l-3-1 1-3z" fill="#767676"/><path d="M183 197h4l-2 7h-3l-1-2 2-5z" class="Bj"/><path d="M263 149h3l1 6-1-2h-2l1 3-3 1v-7l1-1z" class="Cd"/><path d="M317 147c1.125 1.75 1.125 1.75 2 4-.875 2.25-.875 2.25-2 4l-2-3h-2l1-4 3 1v-2z" class="CW"/><path d="M321 143l2 1c-.75 5.75-.75 5.75-3 8-1.187-1.687-1.187-1.687-2-4 1.375-2.75 1.375-2.75 3-5z" fill="#7e7e7e"/><path d="M350 133l3 1c-.75 1.938-.75 1.938-2 4-2.125.75-2.125.75-4 1l-1-4h4v-2z" fill="#3a3a3a"/><path d="M287 126c2.125 3.188 2.502 5.265 3 9h-5l2-9z" class="Cl"/><path d="M288 582v6l-4 2v-3l-2-1c3.75-4 3.75-4 6-4z" fill="#2c2c2c"/><path d="M475 559l2 3-6 4v-5l4-2z" fill="#929292"/><path d="M264 539v3l2 2-3 1-6-4 1.813-.437L264 539z" fill="#606060"/><path d="M468 527l2 3-2 4-3-1-1-5 4 1v-2z" fill="#afafaf"/><path d="M460 498c1.414 2.639 2.372 5.071 3 8l-4 1c-.125-6.75-.125-6.75 1-9z" class="CI"/><path d="M227 485c1.108 3.325.845 5.622 0 9l-4-2 1-4h3v-3z" class="Co"/><path d="M471 468h3l-1 8-3-1v-6l1-1z" fill="#8f8f8f"/><path d="M62 434c1.033 3.1 1.178 4.056 0 7l-3 1-2-6h4l1-2z" class="Cf"/><path d="M74 431h8v2h-3l-1 3-4-4v-1z" fill="#5d5d5d"/><path d="M42 427c2.139 2.139 2.427 3.133 3 6l-5 1-1-4h3v-3z" class="Bm"/><path d="M52 425l5 1-3 6c-1.562-1.812-1.562-1.812-3-4l1-3z" class="Ck"/><path d="M52 422h5l1 2 2 1-2 3c-2.622-1.049-3.794-1.649-5.25-4.125L52 422z" class="CH"/><path d="M291 414c2.686 2.686 3.06 5.376 4 9l-4-1v-2l-2-1 2-5z" fill="#646464"/><path d="M454 410c1.5 1.188 1.5 1.188 3 3 .188 2.688.188 2.688 0 5l-2 1v-2h-2l1-7z" class="Bq"/><path d="M90 405l2 3-1 2 2 1h-3l-1 2-2-6 3-2z" class="Co"/><path d="M74 404c2.938.813 2.938.813 6 2l1 3-2 1v-2l-5 1-1-4 1-1z" class="CA"/><path d="M184 375l6 2v2l2 1-3 1v-3l-4 2v-2l-2-1 1-2z" class="Br"/><path d="M121 375c2.125 3.188 2.502 5.265 3 9l-3-1-2-7 2-1z" class="Bj"/><path d="M164 362h2l1 2 4 2-5 3-2-7z" class="CE"/><path d="M168 288l1 2 3 1c-4.69 1.117-7.538.806-12-1v-1l8-1z" class="Cu"/><path d="M275 273c4.273-.366 6.488.592 10 3l-1 3h-2l-3-3c-2.1-1.176-2.1-1.176-4-2v-1z" fill="#6b6b6b"/><path d="M313 246l4 1v5h-3l-1-6z" class="Bo"/><path d="M332 225c3 2 3 2 3.512 4.164l.176 2.461.199 2.477L336 236c-2.604-2.604-3.974-4.917-4.062-8.625L332 225z" class="Bk"/><path d="M297 226v3c-3 1-3 1-6 0-2.167.875-2.167.875-4 2v-3l3.875-1 2.18-.562C295 226 295 226 297 226z" fill="#878787"/><path d="M302 224l-2 3c-2.164.293-2.164.293-4.625.188l-2.477-.082L291 227c2.841-2.841 7.189-4.906 11-3z" class="CI"/><path d="M322 172l2 1v2l5 1-2 3c-3-1-3-1-5-4v-3z" fill="#a7a7a7"/><path d="M339 148h2c2 2 2 2 2 6l-5-1 1-5z" class="CB"/><path d="M265 123l1 4-2 1-1 3-2-1c.313-2.375.313-2.375 1-5l3-2z" class="CF"/><path d="M350 122c4.004 3.491 5.627 5.65 6 11-2.788-1.394-2.893-3.162-4-6l-2-2v-3z" fill="#2d2d2d"/><path d="M298 121c2.938 1.25 2.938 1.25 6 3 .875 2.188.875 2.188 1 4l-2 1-1-4-3 1-3-2 2-1v-2z" fill="#9b9b9b"/><path d="M235 115v3h-2l-1 3v-2h-4v-2c4.75-2 4.75-2 7-2z" class="Bi"/><path d="M486 592h2c.125 5.75.125 5.75-1 8l-2-1v-6l1-1z" class="CO"/><path d="M467 591c2 2 2 2 2.125 5.625L469 600h-3l1-9z" class="CJ"/><path d="M309 550l3 2-1 6h-2c-.8-3.287-1.097-4.71 0-8z" fill="#535353"/><path d="M0 513c2.899 2.395 3.502 4.312 4 8l-2 1c-2.29-3.435-2.178-4.985-2-9z" fill="#fafafa"/><path d="M225 472l1 2h-3l3 3-1 3-4-2 1-5 3-1z" fill="#222"/><path d="M414 453c2.034 1.415 2.904 2.55 3.422 4.98L418 464c-3.15-3.423-3.562-6.443-4-11z" class="By"/><path d="M11 448c1.329 3.988.438 6.117-1 10l-3 1c.607-4.128 2.038-7.332 4-11z" class="CL"/><path d="M306 437c-1.624 3.247-4.754 3.702-8 5v-4c2.709-1.354 5.009-1.065 8-1z" fill="#2d2d2d"/><path d="M66 418l3 2v3h-2v2h-2l-1-6 2-1z" fill="#202020"/><path d="M67 415h2c1.429 2.354 2.087 3.48 1.625 6.25L70 423c-2-1-2-1-3.125-4.062L66 416l1-1z" class="Cv"/><path d="M96 395h2v7l-2 1v-3h-2l2-5z" fill="#444"/><path d="M116 375h3l1 4h-5l1-4zm-2 4l2 2-3-1 1-1z" class="Ct"/><path d="M160 374h2v2h2v2l-5 1-2-3h3v-2z" class="CH"/><path d="M230 358l3 1v2l3 2-5 1c-1.062-1.875-1.062-1.875-2-4l1-2z" fill="#898989"/><path d="M214 356v2h6l-1 2c-5.538.369-5.538.369-7.875-1.5L210 357c2-1 2-1 4-1z" fill="#a0a0a0"/><path d="M288 142l2 1c.125 4.75.125 4.75-1 7h-2l-1 2 2-10z" fill="#cfcfcf"/><path d="M232 139l1 3c-1.437 2.188-1.437 2.188-3 4l-3-3c1.255-2.511 2.501-2.871 5-4z" fill="#8a8a8a"/><path d="M229 126c1.209 3.971.561 6.137-1 10l-2 3c-.93-2.551-1.086-3.74-.223-6.359l1.16-2.391 1.152-2.422L229 126z" class="Bm"/><path d="M271 562h2v2l2 1-2 3-5-3 1-2 2 1v-2z" class="CV"/><path d="M435 542l1 3 3 1c-3.75 2-3.75 2-6 2 .875-4.875.875-4.875 2-6z" fill="#525252"/><path d="M462 539l4 1v3h-3l-1 2c-1.125-3.75-1.125-3.75 0-6z" fill="#c2c2c2"/><path d="M234 486h4l-1 4-2-1v3l-3-1 2-5z" class="Bk"/><path d="M4 478l3 1-1 3h2l2 4-3-1v-2l-4-1 1-4z" fill="#202020"/><path d="M439 459h4l2 6h-3v-2h-2l-1-4z" fill="#cecece"/><path d="M333 447h2c1.257 2.906 2 4.796 2 8h-2v-2l-3-1 1-5z" class="Bp"/><path d="M52 437l2 1v2l3 1 1 2h-5v-2l-2-1 1-3z" fill="#2f2f2f"/><path d="M411 437l1 2-1 2h-2v5c-2-2-2-2-2.125-4.625L407 439l4-2z" fill="#4a4a4a"/><path d="M79 420h2v2l4 1h-2l1 3-3 1v-3l-3-1 1-3z" class="Cs"/><path d="M78 421l1 3-7 1v-3c2.076-.553 3.844-1 6-1z" fill="#ddd"/><path d="M296 409l-1 2 2 1h-7l-1-3c3.01-.934 3.867-1.044 7 0z" class="Cn"/><path d="M201 400h2v2l6 1v1l-11-1 3-3z" class="CH"/><path d="M150 382c1.563 1.188 1.563 1.188 3 3-.312 2.688-.312 2.688-1 5l-4-5 2-3z" class="Bg"/><path d="M143 381l3 1 1 3-3 2-3-1 2-5z" fill="#6d6d6d"/><path d="M125 376l1 2 2.5.875c2.5 1.125 2.5 1.125 3.313 3.25L132 384c-2.937-1.187-2.937-1.187-6-3-.875-2.687-.875-2.687-1-5z" fill="#e0e0e0"/><path d="M255 358l4 2-1 2h-6l1-3 2-1z" class="Cs"/><path d="M204.563 300.938L207 301l-1 4-5-1-1 2c1.124-4.979 1.124-4.979 4.563-5.062z" class="Bw"/><path d="M218 238h2v5l-4 1-1-3h3v-3z" fill="#6f6f6f"/><path d="M196 176l1 3c-1.437 2.188-1.437 2.188-3 4l-3-2 5-5z" class="CB"/><path d="M332 138h1l.375 3.438L334 145l2 1-1 3h-2c-2.037-4.074-2.026-6.589-1-11z" fill="#acacac"/><path d="M262 140l1 2h2c-1.573 3.147-4.279 4.8-7 7 1.059-3.403 2.009-6.014 4-9z" class="Bp"/><path d="M481 563c-.613 2.962-1.254 4.381-3 7l-2-5c3-2 3-2 5-2z" class="CI"/><path d="M439 551l5 1-1 4h-2l-2-5z" fill="#3e3e3e"/><path d="M464 452l3 1v2l-2 1c-.656 2.527-.656 2.527-1 5-1.125-1.687-1.125-1.687-2-4 .875-2.75.875-2.75 2-5z" fill="#1a1a1a"/><path d="M300 430c2.625-.187 2.625-.187 5 0l-3 1-.5 2-.5 2-3 1c0-3 0-3 2-6z" fill="#141414"/><path d="M47 420l4 1v2h-2v2l-4-1v-3l2 1v-2z" class="Bs"/><path d="M265 417l2 1 1 4 3-1 1 2c-3.044.082-5.072-.024-8-1l1-5z" class="Bv"/><path d="M299 416l-3 1 1 3h-4l-1-4c4.75-1.125 4.75-1.125 7 0z" class="CD"/><path d="M83 406l3 1-1 5-4-1 2-5z" fill="#aaa"/><path d="M22 391l1 3-1 2 2 1-5 5 3-11z" class="CL"/><path d="M213 360h-2l-.375 1.938L210 364l-2 1v-3h-3c1.858-3.716 4.555-3.069 8-2z" class="Bg"/><path d="M207 341l4 1v2l2 1-1 2-6-3 1-3z" fill="#b7b7b7"/><path d="M172 278h1l.684 5.957c.288 2.237.288 2.237 1.316 5.043l-3 1v-12z" fill="#7f7f7f"/><path d="M229 270h1l-.375 4.375-.211 2.461C229 279 229 279 227 281c-.286-7.429-.286-7.429 2-11z" fill="gray"/><path d="M286 229l-1 2-2.375-.062c-2.606-.124-2.606-.124-4.625 1.063l-2-1v-2c3.576-1.238 6.337-.749 10 0z" class="Br"/><path d="M207 212h7l-1 2h-3v2l-4-1 1-3z" fill="#1a1a1a"/><path d="M242 139l-1 7h-2c-.687-1.812-.687-1.812-1-4 2.357-3 2.357-3 4-3z" class="Ch"/><path d="M247 136h3l-.937 1.813c-1.165 2.277-1.165 2.277-2.062 5.188h-2v-5h2v-2z" class="Bk"/><path d="M307 558h5l-1 3c-2.062.688-2.062.688-4 1l-1-2 1-2z" fill="#212121"/><path d="M304 544l2 4c-3.133 1.044-3.99.934-7 0v-2l5-2z" class="Cc"/><path d="M469 529h2c2.092 4.431 2.092 4.431 1.625 7.313L472 538c-2.125-3.188-2.502-5.265-3-9z" fill="#f4f4f4"/><path d="M238 512l6 1-2 3-6-1c1-2 1-2 2-3z" class="Cq"/><path d="M479 502h1c.125 5.75.125 5.75-1 8l-3-1 .938-1.812c1.165-2.277 1.165-2.277 2.063-5.187z" class="Br"/><path d="M3 504l1 3-1 2H1l-1 3c-.187-2.875-.187-2.875 0-6l3-2z" fill="#f6f6f6"/><path d="M89 425l3 1v2h-2v2l-3 1-1-5 3 1v-2z" fill="#838383"/><path d="M258 414c3.399 1.133 4.053 2.125 6 5h-6l-1-2 1-3z" fill="#5f5f5f"/><path d="M69 412v3l-2 1-2 3-2-5 6-2z" class="CB"/><path d="M288 405l5 1v3h-5l-1-2 1-2z" class="Cr"/><path d="M277 398l2 2c-1.75 3.875-1.75 3.875-4 5l-1-5 3-2z" fill="#191919"/><path d="M183 383h4l2 2-2 2h-4l-1-3 1-1z" class="Bi"/><path d="M391 375c4.8 2.462 4.8 2.462 5.813 5.188L397 382l-4-2v-3h-2v-2z" fill="#d2d2d2"/><path d="M391 372l6 2-2 4c-2-1.312-2-1.312-4-3v-3z" class="CX"/><path d="M38 347l3 4-2 2h-4v-2h2l1-4z" class="CK"/><path d="M212 280l3 2-1 3-4-1v-3l2-1z" fill="#696969"/><path d="M310 234l4 2v3l-5-2 1-3z" class="Bh"/><path d="M232 225h4v3h-2l-1 3c-1-1-1-1-1.062-3.562L232 225z" fill="#8d8d8d"/><path d="M233 217c1.563 1.25 1.563 1.25 3 3-.312 2.188-.312 2.188-1 4h-3l1-7z" fill="#383838"/><path d="M307 168c3 4 3 4 3 6h-2v5h-1v-11z" class="Ca"/><path d="M292 156c2 3 2 3 2 5h2v2l-6-1 2-6z" class="CZ"/><path d="M344 132l4 3-1 1v5c-2.097-2.36-2.969-3.546-3.187-6.75L344 132z" fill="#d8d8d8"/><path d="M285 121h1c.366 3.938.302 5.565-2 8.875L282 132c.551-3.949 1.389-7.349 3-11z" class="Ce"/><path d="M234 122l2 1-2 7-2-1c.875-5.875.875-5.875 2-7z" class="Bn"/></svg>