<?xml version="1.0" encoding="UTF-8"?>
<svg id="Layer_2" data-name="Layer 2" xmlns="http://www.w3.org/2000/svg" viewBox="0 0 100 100">
  <defs>
    <style>
      .cls-1 {
        fill: #fff;
      }

      .cls-2 {
        fill: #53059e;
      }

      .cls-3 {
        fill: #fac632;
      }

      .cls-4 {
        fill: #1f68b8;
      }
    </style>
  </defs>
  <g id="Layer_1-2" data-name="Layer 1">
    <g>
      <path d="m77.76,62.12c-1.57,2.73-1.04,7.99-.3,10.56.71,2.47-.09,4.07-2.52,4.98-1.86.7-3.84,1.06-5.76,1.61-8.3,2.36-12.39,7.68-13.05,16.94-.25,3.49-.42,3.63-3.83,3.65-6.8.03-13.61.09-20.41.12-1.26,0-2.52.02-3.77-.11-2.94-.32-3.17-1.15-2.3-4,1.72-5.61,3.32-11.3.98-17.21-1.34-3.39-4.05-5.46-6.63-7.71-4.81-4.2-10.12-7.98-14.23-12.81C.1,51.26-1.26,42.67,1.09,33.95c.94-3.48,3.34-6.74,5.65-9.61,9.65-11.98,22.71-15.42,37.15-14.19,6.62.56,12.54,3.51,16.5,9.39,1.12,1.66,1.69,3.71,2.86,5.33,1.74,2.42,1.85,5.01,2.04,7.85.11,1.7,1.63,3.96,3.14,4.78,3.01,1.63,6.45,2.43,9.7,3.6.59.21,1.64.49,1.64.75,0,.74-.23,1.65-.71,2.2-.82.95-1.92,1.63-2.86,2.49-2.06,1.89-1.96,4.02.17,5.86,1.46,1.27.49,2.17-.56,3.02-1.45,1.16-2.66,1.76-4.26,2.64-1.29.71-1.78,1.05-1.43,2.1.3.89,2.33,1.32,3.67,1.67,1.17.3,2.44.21,3.96.31Z"/>
      <path class="cls-1" d="m13.39,43.99c.64.1,1.11-.28,1.51-.37h0c1.11-.26,1.61-.36,3.02-1.01,1.93-.87,3.35-2.52,3.18-3.65,0,0,4.89-1.02,7.37-4.19,0,0,1.82-2.02.67-3.61,0,0,1.54.07,1.35-1.01,0,0,1.72,1.54,5.52-.99,3.8-2.53,3.22-5.05,2.38-5.86,0,0,3.41-.82,3.04-4.6-.01-.13-.03-.25-.05-.38h0c-.66-3.44-5.34-3.92-5.34-3.92,0,0-8.22.38-8.78,6.85,0,0-.8-2.09-5.14-.73-4.34,1.36-5.16,3.13-5.45,4.58-.29,1.45-.72,3.33.61,5.7,0,0-.88-1.34-3.74.11-2.87,1.44-1.97,5.76-.12,6.63,0,0-2.13.11-2.15,2.27-.02,2.16.33,2.75,1.25,3.77l.88.41Z"/>
      <polygon class="cls-3" points="84.45 13.97 79.88 11.73 75.45 14.21 76.17 9.18 72.43 5.74 77.44 4.87 79.57 .26 81.94 4.75 86.99 5.34 83.45 8.98 84.45 13.97"/>
      <polygon class="cls-4" points="92.46 26.88 90.92 24.11 88.12 22.61 90.9 21.07 92.4 18.27 93.94 21.04 96.74 22.54 93.96 24.09 92.46 26.88"/>
      <polygon class="cls-2" points="97.33 7.73 95.98 5.82 93.97 7.01 94.62 4.76 92.43 3.93 94.6 3.04 93.88 .81 95.93 1.95 97.23 0 97.62 2.31 99.96 2.11 98.39 3.85 100 5.55 97.66 5.41 97.33 7.73"/>
    </g>
  </g>
</svg>