<?xml version="1.0" encoding="UTF-8"?>
<svg id="Layer_2" data-name="Layer 2" xmlns="http://www.w3.org/2000/svg" viewBox="0 0 369.37 128.53">
  <g id="Layer_1-2" data-name="Layer 1">
    <g>
      <path d="m154.67,79.18c-1.04-2.37-1.78-4.04-2.52-5.71-.06-.13-.11-.31-.22-.37-3.71-2.12-2.76-5.72-2.77-8.96-.04-9.94.07-19.87-.07-29.81-.04-2.81-.64-5.64-1.2-8.41-.15-.75-1.08-1.81-1.73-1.87-.66-.06-1.87.82-2.06,1.5-1.03,3.77-1.9,7.59-2.65,11.42-.3,1.56-.06,3.21-.24,4.81-.06.52-.68.97-1.05,1.45-.48-.45-1.28-.84-1.39-1.37-.3-1.34-.39-2.75-.39-4.13,0-4.37.1-8.74.13-13.11,0-.4-.13-1.06-.36-1.13-.4-.13-1.23-.07-1.35.18-.89,1.76-2.23,3.56-2.33,5.4-.31,5.76-.14,11.54-.14,17.31,0,7.45.01,14.91,0,22.36,0,3.23-2.69,5.61-5.85,5.24-1.47-.17-1.68-1.22-1.69-2.38-.03-3.21-.03-6.43-.03-9.64,0-10.45.07-20.9-.02-31.34-.03-2.93-.57-5.82-3.33-7.68-.33-.22-.66-.93-.54-1.23.14-.36.76-.71,1.2-.73,2.47-.13,4.95-.2,7.42-.21,6.97-.05,13.93-.17,20.9-.05,4.77.09,9.54.54,14.31.83.22.01.45.11.64.05,5.05-1.47,10.21-.72,15.32-.69,5.09.03,10.18.42,15.27.41,5.74,0,11.47-.33,17.21-.39,5.48-.06,9,3.31,11.49,7.56,4.51,7.69,5.5,16.35,5.87,25.08.33,7.83.04,15.66-1.49,23.33-1.13,5.65-2.28,11.57-6.69,15.81-1.58,1.52-3.93,3-5.99,3.09-6.69.31-13.41-.12-20.12-.11-6.64.01-13.28.23-19.91.32-2.99.04-5.99.02-8.98-.05-.59-.01-1.17-.4-1.76-.61.25-.56.36-1.26.77-1.67,2.22-2.22,3.05-5.02,3.08-7.98.11-13.73.09-27.47.11-41.2,0-4.24.03-8.47-.02-12.71-.04-2.89-.53-5.68-2.59-7.9-.44-.47-1.22-.63-1.84-.93-.18.66-.5,1.32-.51,1.98-.07,5.48-.04,10.95-.16,16.43-.01.7-.69,1.38-1.06,2.07-.53-.71-1.43-1.38-1.52-2.14-.29-2.61-.04-5.29-.49-7.86-.46-2.62-1.42-5.17-2.36-7.68-.25-.66-1.27-1.48-1.89-1.44-.62.04-1.54.98-1.69,1.66-.52,2.33-1.05,4.73-1.05,7.1-.01,10.66.19,21.32.24,31.99.01,3.28-.13,6.57-.43,9.84-.11,1.27-.83,2.48-1.47,4.28Zm42.73-56.23c0,1.05,0,1.83,0,2.61-.01,5.19.03,10.37-.1,15.55-.02.7-.93,1.38-1.43,2.08-.48-.69-1.31-1.35-1.38-2.08-.24-2.32.1-4.72-.32-6.99-.55-2.95-.96-6.25-2.59-8.59-2.32-3.35-6.46-2.12-9.96-2.09-1.86.02-2.5,1.11-2.48,2.86.05,6.42.01,12.85.12,19.27,0,.57.74,1.5,1.27,1.61,1.56.32,3.19.45,4.78.38,1.81-.08,3.21-.88,3.48-2.96.37-2.95.75-5.9,1.26-8.82.14-.81.76-1.53,1.15-2.3.49.79,1.32,1.55,1.41,2.38.25,2.46.27,4.95.27,7.42-.01,6.19-.04,12.37-.18,18.55-.02.95-.74,1.88-1.13,2.82-.3-.06-.61-.12-.91-.18-.22-1.02-.54-2.04-.63-3.08-.11-1.31.16-2.66-.08-3.94-1.26-6.8-1.08-7.24-7.29-7.11-3.32.07-3.47.18-3.48,3.47-.02,9.42,0,18.85-.01,28.27,0,2.99-.11,5.99.02,8.97.03.69.82,1.89,1.33,1.93,2.54.2,5.1.16,7.65.06,2.15-.09,3.78-1.15,4.42-3.28,1.29-4.27,2.08-8.62,1.81-13.11-.04-.65-.05-1.37.18-1.94.18-.44.77-.96,1.19-.98.44-.02,1.12.43,1.31.84.28.63.31,1.42.31,2.14.01,4.89-.02,9.79-.01,14.68,0,.82.15,1.64.24,2.65,2.64-.95,3.78-2.59,3.82-5.04.11-7.5.31-15,.3-22.49-.01-12.27-.15-24.53-.26-36.8-.01-1.16-.11-2.35-.39-3.47-.4-1.63-1.33-2.86-3.67-3.26Zm12.32,35.36h.02c0,3.21,0,6.42,0,9.63,0,7.44-.01,14.89-.02,22.33,0,1.3.03,2.6,1.75,2.75,2.81.25,5.64-.08,7.28-2.54,1.51-2.26,2.75-4.84,3.46-7.46.96-3.56,1.38-7.27,1.91-10.94,1.85-12.78.92-25.46-2.2-37.92-.97-3.86-2.37-8-6.5-9.93-1.34-.63-3.15-.99-4.47-.59-.71.21-1.17,2.32-1.18,3.58-.09,10.36-.05,20.72-.05,31.09Z"/>
      <path d="m72.52,95.27c-1,.31-1.65.69-2.3.68-3.13-.05-6.26-.25-9.39-.29-1.37-.02-2.74.31-4.11.32-7.16.03-14.32.03-21.47,0-.9,0-1.8-.26-3-.44.4-.76.52-1.31.86-1.57,3.35-2.6,3.25-6.35,3.28-9.98.07-9.56.04-19.12.02-28.68,0-3.86-.12-7.72-.12-11.58,0-2.48.16-4.96.17-7.44q.05-8.05-4.22-14.84c1.72-.28,3.2-.66,4.68-.72,2.61-.11,5.23-.09,7.85.02.87.04,1.71.52,2.57.8-.29.84-.37,1.84-.89,2.48-1.66,2-2.03,4.32-2.03,6.77-.01,12.86-.01,25.71-.01,38.57,0,6.87-.02,13.73.04,20.6.02,2.87.71,3.4,3.62,3.12.36-.03.73-.09,1.09-.12,4.78-.38,5.39-.7,6.35-5.46.77-3.83.98-7.77,1.57-11.64.12-.78.79-1.48,1.2-2.22.5.77,1.4,1.54,1.42,2.33.14,5.25.08,10.51.11,15.77,0,.82.17,1.65.31,2.86,2.87-1.86,4.47-4.13,4.99-7,1.13-6.3,2.12-12.63,3.15-18.95,1.46-8.99,2.89-17.98,4.38-26.96.57-3.44,1.43-6.83,1.93-10.28.51-3.49-.44-6.64-3.3-9.44.79-.46,1.41-1.11,2.05-1.14,3.78-.16,7.57-.27,11.36-.21,2.13.03,2.52,1.13,1.32,2.98-1.54,2.38-2.15,4.93-1.2,7.71.09.28.19.56.23.84,1.09,6.9,2.15,13.8,3.27,20.7.61,3.73,1.32,7.44,2,11.15.63,3.44,1.68,6.86,1.79,10.31.09,2.73-.81,5.54-1.56,8.23-1.04,3.7-.21,7.08,1.33,10.36,1.11,2.37.83,3.03-1.76,3.06-1.39.02-2.78.04-4.16-.07-1.13-.09-1.93-.71-1.12-1.89,3.12-4.49,1.25-9.33,1.02-14.04-.11-2.31-.79-4.58-1.01-6.89-.15-1.54-.78-2.25-2.32-2.23-3.06.05-6.13-.04-9.18.16-.64.04-1.63.99-1.76,1.66-.89,4.72-1.89,9.45-2.25,14.23-.15,2.05,1.07,4.23,1.78,6.32.21.63.8,1.14,1.44,2.02Zm5.25-60.4c-.15,0-.3,0-.45.01-.57,3.48-1.16,6.97-1.71,10.46-.7,4.45-1.36,8.91-2.04,13.36-.33,2.16-.67,4.31-.97,6.48-.22,1.55.41,2.32,2.06,2.29,2.12-.05,4.24-.05,6.35.06,2.01.1,2.57-.67,2.15-2.62-.86-3.98-1.62-7.99-2.34-12-1.06-6-2.05-12.02-3.06-18.03Z"/>
      <path d="m329.56,22.36c-.12,1.07-.27,1.82-.27,2.57,0,5.26.04,10.52,0,15.77,0,.94-.34,1.88-.52,2.81-.26.02-.52.04-.78.06-.29-.72-.72-1.42-.84-2.17-.44-2.81-.67-5.66-1.19-8.46-.43-2.34-1.05-4.66-1.82-6.91-.26-.74-1.21-1.6-1.95-1.71-.57-.08-1.58.79-1.89,1.47-.53,1.16-.93,2.49-.94,3.75-.04,19.21,0,38.42,0,57.64,0,2.44,1.15,4.3,2.63,6.08.43.52.62,1.25.92,1.88-.71.28-1.42.78-2.13.79-3.58.08-7.16.08-10.73-.02-.68-.02-1.56-.49-1.91-1.03-.19-.3.39-1.34.87-1.78,2.03-1.86,2.83-4.23,2.86-6.86.06-5.48.01-10.96,0-16.44,0-12.93.02-25.86-.07-38.79-.01-1.7-.51-3.45-1.06-5.09-.23-.68-1.15-1.52-1.81-1.56-.61-.04-1.53.75-1.89,1.41-2.48,4.56-2.35,9.68-2.98,14.64-.13,1.02-.27,2.04-.4,3.05-.31.05-.62.1-.93.16-.32-.83-.91-1.66-.92-2.49-.06-6.13-.03-12.27,0-18.4,0-1.62,1.08-2.07,2.49-2.08,6.19-.02,12.39-.11,18.58-.03,2.09.03,4.17.49,6.25.76.28.04.62.29.82.2,4.36-1.96,8.92-.34,13.36-.74.8-.07,1.66.58,2.49.9-.35.67-.55,1.49-1.06,2-1.79,1.76-2.19,3.93-1.38,6.07,2.74,7.19,5.7,14.3,8.57,21.44.23.03.46.06.7.09.86-1.94,1.76-3.85,2.56-5.81,1.66-4.02,3.19-8.09,4.91-12.08,1.66-3.84,1.23-7.42-1.45-10.44-.29-.33-.59-1-.44-1.28.23-.45.84-.99,1.28-.98,2.84.03,5.68.11,8.5.37,1.06.1,1.94.62.94,2.08-3.46,5.02-5.65,10.65-7.7,16.36-1.79,4.99-4.02,9.83-5.77,14.83-.79,2.28-1.2,4.8-1.23,7.22-.09,8.25.11,16.51.13,24.76,0,2.6.49,4.9,2.58,6.7.47.41.95,1.49.74,1.84-.33.54-1.25.98-1.93,1-3.8.1-7.6.1-11.39.03-.63-.01-1.36-.43-1.83-.89-.16-.16.16-1.21.54-1.48,3.38-2.4,3.21-6.18,3.33-9.54.28-8.32.32-16.66-.03-24.97-.12-2.87-1.54-5.74-2.61-8.51-2.69-6.93-5.4-13.85-8.36-20.66-1.03-2.37-2.8-4.42-4.3-6.58-.25-.36-.79-.51-1.54-.97Z"/>
      <path d="m284.59,23.16c0,1.29,0,2.57,0,3.86,0,6.79,0,13.59-.02,20.38,0,.72-.03,1.5-.3,2.15-.21.5-.82,1.18-1.24,1.17-.49-.01-1.24-.61-1.37-1.09-.32-1.18-.48-2.44-.48-3.67.03-5.31-.74-10.46-2.87-15.36-1.57-3.61-4.2-6.1-7.93-7.32-2.4-.79-5.62.89-7.31,3.69-2.1,3.47-3.19,7.29-3.98,11.26-2.3,11.66-1.52,23.4-1.13,35.14.1,3.07-.03,3.21-4.7,3.56-2.23.17-2.53-1.4-2.77-3.11-1.38-9.74-1.61-19.51-.02-29.21,1.11-6.75,2.8-13.34,7.14-19,5.05-6.57,16.18-7.35,21.67-.75.36.43.83.77,1.2,1.11.28-.1.52-.14.53-.21.94-5.73,5.37-4.83,9.28-4.9,2.54-.05,5.08-.16,7.62-.16.77,0,1.62.13,2.31.45.96.46,1.27,1.22.24,2.02-2.65,2.08-3.45,4.95-3.45,8.14,0,17.9,0,35.8.02,53.7,0,3.22.64,6.22,3.25,8.48.42.36.78,1.25.61,1.68-.16.41-1.04.75-1.6.76-3.87.06-7.74.07-11.61-.02-.68-.02-1.35-.61-2.02-.94.35-.67.54-1.51,1.06-1.98,2.01-1.82,2.7-4.22,2.71-6.7.06-18.63.06-37.26-.06-55.89-.01-1.75-.73-3.58-1.5-5.2-.5-1.03-1.7-1.73-2.58-2.58l-.7.52Z"/>
      <path d="m175.75,117.49c-1.88,1.56-3.3,3.2-5.1,4.08-1.41.69-3.5.97-4.88.42-.86-.35-1.14-2.56-1.35-3.99-.17-1.22.14-2.51.27-4.14-2.09,1.94-3.67,3.69-5.54,5.05-1.88,1.37-3.92,2.72-6.1,3.43-2.12.69-3.63-.81-3.76-3.04-.14-2.57.43-4.9,2.16-6.92,1.55-1.82,3.03-3.72,4.43-5.66.37-.51.33-1.32.47-1.99-.22-.13-.43-.26-.65-.39-1.29.99-2.74,1.83-3.84,2.99-3.71,3.89-7.26,7.93-10.96,11.84-1.28,1.36-1.97,3.64-4.44,3.42-.74-.07-1.79-.26-2.07-.75-.27-.46.15-1.48.5-2.11,1.47-2.65,3.02-5.25,4.21-8.2-.53.3-1.07.59-1.6.89-.14-.1-.29-.2-.43-.31.28-.52.51-1.09.86-1.56,2.41-3.18,5.02-6.22,7.25-9.51,3.63-5.35,7.04-10.86,10.53-16.3.71-1.1,1.3-2.27,2.06-3.34.35-.5.94-1.1,1.47-1.15,1.01-.1,2.06.16,3.09.28-.25.92-.33,1.95-.79,2.75-3.6,6.32-7.27,12.61-10.94,18.9-.95,1.62-2.05,3.16-2.98,4.79-.34.6-.39,1.36-.73,2.64,2.49-2.22,4.42-4,6.42-5.69.6-.51,1.36-.89,2.11-1.14,2.46-.8,4.27.63,4.38,3.32.12,3.01-1.63,5.22-3.19,7.5-1.15,1.68-2.38,3.32-3.46,5.05-.28.46-.13,1.19-.17,1.79.62-.05,1.39.12,1.82-.19,1.6-1.12,3.25-2.24,4.6-3.64,3.91-4.07,7.64-8.31,11.54-12.38.76-.8,1.94-1.3,3.01-1.65.63-.21,1.8-.09,2.09.33.34.49.26,1.62-.1,2.2-2.21,3.59-4.57,7.1-6.85,10.64-.9,1.39-2.37,3.19-.95,4.47,1.51,1.36,2.95-.55,3.92-1.68,4.02-4.69,7.87-9.54,11.9-14.23.72-.84,1.91-1.38,2.99-1.75.52-.18,1.67.21,1.85.64.25.61.11,1.62-.26,2.21-2.49,3.94-5.11,7.79-7.64,11.7-.42.65-.88,1.45-.86,2.17.03,1.05.63,2.01,1.83.94,2.74-2.46,5.53-4.88,8.07-7.54,3.31-3.46,6.32-7.25,10.47-9.74.81-.49,2.71-.44,3.22.14.85.97,1.17,2.54,1.37,3.91.13.92-.33,1.92-.53,2.89.26.16.53.32.79.47.99-1.29,1.97-2.59,2.96-3.88.79-1.04,1.36-2.45,2.4-3.03,1.03-.58,2.98-.9,3.72-.31,1.27,1.01.14,2.4-.82,3.32-1.79,1.71-3.67,3.31-5.48,4.99-.95.88-1.58,2.17-.33,2.96.9.57,2.78.79,3.48.24,1.61-1.28,2.72-3.18,4.12-4.74,3.69-4.09,7.74-7.68,13.73-7.32,1.24.07,2.95,1,3.46,2.02.54,1.08.13,2.82-.33,4.11-.16.44-1.85.72-2.58.44-.58-.23-.99-1.42-1.08-2.22-.06-.61.51-1.28,1.01-2.42-1.15.08-2.03-.13-2.54.21-4.55,3-7.23,7.33-8.31,12.61-.54,2.62,1.08,4.17,3.7,3.47,1.56-.42,2.98-1.44,4.41-2.27.71-.41,1.32-1,1.97-1.51.18.11.35.22.53.33-.11.47-.06,1.13-.36,1.39-3.01,2.63-6.44,4.59-10.51,3.43-1.33-.38-2.32-2.31-3.22-3.69-.66-1.02-.92-2.31-1.39-3.57-4.9,3.14-7.07,2.65-8.96-1.96-2.45,2.93-4.89,5.67-7.11,8.58-1.23,1.61-2.75.95-4.17.89-.19,0-.74-1.78-.42-2.31,2.44-4.03,5.11-7.93,7.6-11.94.64-1.03.87-2.31,1.29-3.47-1.09.41-2.44.55-3.22,1.29-3.09,2.94-5.95,6.12-9.01,9.1-2.44,2.38-4.9,4.77-7.62,6.81-2.09,1.57-4.2.64-5.24-1.83-.33-.79-.7-1.56-1.17-2.58Z"/>
      <path d="m11.27,73.09c.25,4.81.49,9.61.74,14.42.12,2.34.84,4.41,2.58,6.09.4.39.8,1.3.62,1.64-.23.43-1.08.7-1.67.71-3.87.06-7.74.07-11.61,0-.64-.01-1.28-.52-1.92-.8.31-.61.48-1.37.95-1.8,1.82-1.71,2.68-3.79,2.68-6.24,0-19.43,0-38.85,0-58.28,0-2.46-.68-4.57-2.95-5.92-.31-.19-.68-.68-.64-.97.05-.32.51-.67.87-.83.38-.17.85-.19,1.29-.19,5.54,0,11.08-.1,16.62.07,4.87.15,10.05,4.81,11.67,10.22,1.78,5.94,2.07,11.96.09,17.86-.86,2.56-2.26,5.07-3.94,7.19-2.26,2.86-5.54,3.64-9.22,3.51-5.91-.21-5.92-.07-5.92,5.88,0,2.48,0,4.97,0,7.45-.08,0-.15,0-.23.01Zm.3-32.89s.02,0,.03,0c0,4.81.05,9.62-.03,14.44-.03,1.54.66,2.05,2.04,2.2,4.94.54,8.58-1.99,9.52-6.94,1.23-6.45,2.19-12.88-.07-19.4-1.17-3.36-5.23-7.22-8.48-7.24-2.33-.01-2.99.59-3,2.94-.02,4.67,0,9.33,0,14Z"/>
      <path d="m118.21,128.53c-1.72-.29-2.21-1.27-2.33-2.75-.22-2.71-.65-3.04-3.4-3.16-3.38-.15-6.77-2.98-8.07-6.08-2.1-5.02-.84-9.74.85-14.45.84-2.35.84-2.47-1.57-3.42-6.35-2.52-10.53-7.27-10.1-13.73.28-4.16,2.55-7.43,5.68-10.14,3.1-2.68,6.81-3.17,10.68-3.19,1.09,0,2.17-.03,3.26,0,4.63.17,8.53,2.03,11.8,5.23,1.68,1.64,3.15,1.97,5.41.78,3.3-1.74,6.85-3.09,10.41-4.21,1.66-.52,3.67-.38,5.41-.03,3.1.62,4.51,5.01,2.9,7.97-1.99,3.67-5.17,6.19-8.54,8.22-4.51,2.71-9.34,4.97-14.21,7.01-2.85,1.19-6.02,2.1-9.08,2.21-3.88.15-5.5,1.99-6.73,5.36-1.48,4.06-1.45,8.15-1.32,12.29.07,2.25,1.82,4.2,3.58,4.41,1.19.14,2.02-.18,2.17-1.51.15-1.23.34-2.45.46-3.68.44-4.4,1.95-8.37,4.98-11.61,3.06-3.27,6.87-4.32,11.1-2.78,1.07.39,2.41,1.65,2.56,2.67.53,3.61.46,7.23-2.14,10.28-2.83,3.32-6.22,5.88-10.13,7.77-.32.15-.7.19-1.04.31-1.09.38-3.08-1.14-3.16,1.35-.04,1.32.27,2.65.43,3.98.03.26.07.53.12.91Zm14.21-41.72l-.69.44c-.99-1.3-2.16-2.5-2.92-3.92-.93-1.74-1.87-1.63-3.02-.44-3.09,3.17-6.18,6.33-9.18,9.58-.63.68-.91,1.67-1.35,2.52.88.2,1.78.6,2.64.55,6.18-.36,11.97-2.15,17.52-4.85,4.51-2.19,8.51-4.94,11.47-9.1,1.29-1.81,1.67-3.81.6-5.49-.55-.87-2.5-1.26-3.78-1.18-1.88.12-3.7.91-5.57,1.32-3.44.75-6.27,2.57-8.89,4.71,1.13,2.09,2.15,3.98,3.17,5.86Zm-26.52-13.71c-1.18.52-2.74,1.16-4.26,1.87-3.57,1.66-6.15,6.27-5.82,10.17.48,5.63,4.55,7.96,9.06,9.77,2.72,1.1,3.58.65,5.25-1.84.48-.72,1.09-1.36,1.69-2,3.62-3.81,7.64-7.12,12.17-9.82,1.32-.79,1.93-1.67.42-3.02-2.99-2.67-6.18-4.74-10.38-4.77-2.52-.02-5.04-.22-8.13-.37Zm26.72,34.33c.19-.06.38-.12.57-.18-.55-1.38-.77-3.59-1.71-3.95-1.51-.58-3.89-.56-5.2.29-5.1,3.32-8.17,8.14-8.73,14.32-.27,3,1.37,4.08,4.06,2.6,2.02-1.11,4.11-2.26,5.77-3.81,2.67-2.48,5.77-4.89,5.23-9.27Z"/>
      <path d="m112.21,41.45c-.06,1.06-.18,2.12-.19,3.18-.01,6.5.06,13-.05,19.5-.02,1.17-.56,3.1-1.28,3.32-1.64.51-3.59.4-5.32.06-.47-.09-.85-1.89-.85-2.9-.06-10.95.03-21.91-.08-32.86-.02-2.26-.65-4.53-1.2-6.75-.16-.67-.98-1.17-1.49-1.76-.35-.41-.69-.83-1.04-1.24.49-.39.95-1.05,1.47-1.1,1.87-.18,3.76-.16,5.64-.2,1.96-.04,3.93-.16,5.88-.06.7.03,1.36.59,2.05.91-.31.58-.51,1.29-.96,1.73-1.82,1.74-2.75,3.46-1.79,6.19,2.1,5.96,3.87,12.04,5.72,18.08,2.2,7.15,4.37,14.31,6.5,21.48.17.59-.14,1.32-.23,1.98-.67-.17-1.71-.13-1.94-.55-1.12-1.99-2.22-4.03-2.95-6.18-1.95-5.78-3.72-11.63-5.55-17.46-.57-1.82-1.14-3.64-1.71-5.46-.21.03-.42.07-.63.1Z"/>
      <path d="m252.61,104.27c-2.52,2.12-5.27,4.02-7.51,6.41-3.16,3.38-5.89,7.17-8.92,10.68-.58.67-1.68,1.17-2.58,1.25-2.08.17-2.79-1.1-1.74-2.91.63-1.07,1.46-2.01,2.06-3.09.5-.9.8-1.92,1.19-2.88-.19-.14-.37-.27-.56-.41-1.3,1.1-2.61,2.2-3.91,3.3-.19-.22-.38-.43-.58-.65,1.7-1.94,3.38-3.9,5.11-5.82,6.14-6.79,11.24-14.3,15.55-22.37,1.23-2.3,2.63-4.53,4.2-6.6.56-.74,1.84-1.18,2.83-1.28,1.41-.14,2.31.63,1.57,2.18-.66,1.38-1.43,2.71-2.22,4.02-4.28,7.11-8.58,14.21-12.86,21.32-.17.29-.2.67-.3,1,.16.16.31.32.47.48,1.1-.97,2.11-2.07,3.32-2.87,1.9-1.26,3.85-2.53,5.95-3.38,1.4-.57,3.04.92,2.88,2.71-.18,2.03-.68,4.13-1.55,5.96-.96,2.01-2.54,3.72-3.78,5.61-.66,1-1.17,2.09-1.49,3.38,5.48-.12,7.27-5.54,11.65-7.47-.46.84-.75,1.88-1.42,2.49-2.57,2.34-5.11,4.76-7.98,6.66-1.03.69-3.34.56-4.42-.17-1.74-1.17-2.06-3.47-1.04-5.35,1.59-2.91,3.53-5.64,5.29-8.46.61-.98,1.13-2.03,1.69-3.05-.31-.23-.61-.47-.92-.7Z"/>
      <path d="m156.42,3.49c1.38.61,2.37,1.05,3.36,1.49-.66.81-1.31,1.62-2.26,2.79.78.12,1.69.49,2.5.35,1.49-.27,2.92-.85,4.41-1.31-.43-.2-1.21-.31-1.5-.75-.67-1.03-1.74-2.4-1.48-3.29.3-1.05,2.06-2.63,2.8-2.44,3.81.97,7.45-.65,11.15-.27.76.08,1.47.64,2.2.97-.47.66-.98,1.29-1.38,1.99-.44.76-.95,1.55-1.1,2.38-.2,1.14.07,2.36-.17,3.48-.13.59-.9,1.04-1.39,1.55-.52-.5-1.36-.94-1.49-1.53-.28-1.26-.08-2.63-.31-3.91-.13-.73-.64-1.83-1.16-1.94-.78-.18-1.79.24-2.53.69-.18.11.17,1.44.54,2.04,1.25,1.99.62,4.19-1.65,4.52-1.57.23-3.24-.25-4.87-.41-.52-.05-1.06-.19-1.57-.14-1.92.2-3.83.6-5.75.63-.5,0-1.39-1.03-1.45-1.65-.18-2.02-.07-4.06-.05-6.1.01-1.65.69-2.65,2.51-2.54.73.05,1.5-.04,2.17.17.72.22,1.36.72,2.03,1.11-.6.53-1.17,1.13-1.82,1.58-.37.26-.89.29-1.73.54Z"/>
      <path d="m283.58,71.25c.46.97,1,1.6,1.02,2.24.08,2.91.64,6-.11,8.72-2.07,7.52-7.68,15.2-17.5,14.12-2.9-.32-5.35-1.32-7.43-3.26-1.6-1.49-.89-4.77,1.17-5.46.34-.11,1,.18,1.27.49.56.66.96,1.46,1.44,2.19,2.14,3.25,6.49,3.85,9.58,1.44,3.12-2.45,4.75-5.86,6.18-9.37,1.31-3.22,2.35-6.55,3.52-9.82.11-.31.38-.57.87-1.29Z"/>
      <path d="m189.16,3.48c-.53.07-1.06.19-1.59.18-.56,0-1.55-.04-1.59-.23-.14-.63-.14-1.47.18-1.98,1.09-1.69,3.8-1.91,5.43-.45.58.52.92,1.32,1.53,2.21,2.12-2.56,4.14-3.95,6.76-2.28,1.86,1.19,2.51,4.11,1.64,6.78-.62,1.89-1.87,3.02-4.06,2.91-2.55-.12-3.34-.9-4.8-5.27-1.97,1.21-2.09,1.92-.46,3.06,1.15.81.84,1.67-.22,1.82-1.85.25-3.81.36-5.62,0-1.45-.29-1.28-1.55-.32-2.53,1.15-1.18,2.31-2.34,3.47-3.51-.11-.23-.23-.46-.34-.69Zm9.16,4.76c0-1.58.08-2.69-.05-3.79-.04-.35-.61-.89-.95-.9-.36,0-.99.47-1.05.81-.22,1.36-.32,2.78,2.04,3.88Z"/>
      <path d="m208.17,7.28c.78,1.05,1.25,1.68,1.71,2.31-.75.3-1.48.74-2.26.86-1,.15-2.05.13-3.05-.01-.64-.09-1.56-.4-1.75-.85-.21-.52.09-1.45.48-1.96.65-.85,1.6-1.47,2.34-2.26.34-.37.48-.92.71-1.39-.52-.15-1.03-.33-1.55-.44-.65-.14-1.32-.23-1.98-.34.35-.79.51-1.79,1.1-2.31,1.23-1.1,3.67-.69,4.98.41,1.72,1.45,1.16,2.92.25,4.45-.36.6-.76,1.18-1,1.54Z"/>
      <path d="m215.74,5.59c0,1.09.13,2.2-.05,3.25-.1.56-.71,1.37-1.18,1.43-.52.07-1.49-.45-1.66-.93-.71-2.06-1.52-4.19-1.62-6.33-.04-.84,1.52-2.11,2.61-2.56,1.29-.53,1.91.58,1.92,1.87,0,1.09,0,2.17,0,3.26,0,0,0,0-.01,0Z"/>
      <path d="m180.51,7.83c-.06.86-.12,1.73-.17,2.59-.45-.1-1.28-.19-1.28-.3-.02-.8.13-1.6.22-2.4.41.04.82.07,1.23.11Z"/>
      <path d="m104.47,84.28c0-1.67.02-3.34,0-5.01-.03-1.4.63-2.1,1.98-2.41,5.19-1.2,5.11-.93,5.69,4.42.51,4.63-2.03,7.3-4.76,10.08-1.15,1.17-2.69.4-2.83-1.42-.14-1.88-.03-3.77-.03-5.66h-.04Z"/>
    </g>
  </g>
</svg>