<?xml version="1.0" encoding="UTF-8"?>
<svg id="Layer_2" data-name="Layer 2" xmlns="http://www.w3.org/2000/svg" viewBox="0 0 48.78 60.14">
  <defs>
    <style>
      .cls-1 {
        letter-spacing: -.09em;
      }

      .cls-2 {
        letter-spacing: -.1em;
      }

      .cls-3 {
        letter-spacing: -.04em;
      }

      .cls-4 {
        letter-spacing: 0em;
      }

      .cls-5 {
        fill: #231f20;
        font-family: BDRetrocentric, 'BD Retrocentric';
        font-size: 8.58px;
      }

      .cls-6 {
        letter-spacing: -.08em;
      }

      .cls-7 {
        letter-spacing: -.2em;
      }
    </style>
  </defs>
  <g id="Layer_1-2" data-name="Layer 1">
    <g>
      <path d="m38.72,24.67c1.56-1.07,2.87-1.96,4.42-3.02,0,1.2,0,2.15,0,3.1-.02,5.82-.05,11.64-.04,17.46,0,.66-.32.73-.8.73-1.3,0-2.6-.01-3.9,0-3.51,0-7.03.02-10.54.03-2.99,0-5.99.02-8.98.02-4.04,0-8.07.02-12.11.02-.3,0-.6-.04-1.13-.07,0-1.13,0-2.23,0-3.33,0-2.73-.02-5.47.02-8.2,0-.4.17-.95.46-1.16,3.86-2.78,7.75-5.5,11.83-8.38v8.71c1.65-1.15,3.05-2.12,4.43-3.1,2.26-1.59,4.5-3.2,6.78-4.77.3-.21.74-.21,1.26-.35v8.24c1.41-1.02,2.62-1.83,3.73-2.77.27-.23.26-.88.26-1.33.03-5.14.04-10.27.06-15.41,0-.33,0-.67,0-1.11h4.24v14.69Z"/>
      <path d="m39.07,5.24c-1.54-.47-2.92-.98-4.35-1.3-1.88-.42-3.73-.03-5.4.87-4.46,2.41-8.9,2.42-13.38.13-2.95-1.51-5.9-1.42-8.85,0-.21.1-.43.2-.64.3-.03.01-.06,0-.26-.02,0-1.21-.06-2.44.04-3.66.02-.29.54-.65.9-.77,3.74-1.27,7.4-1,10.88.87,3.07,1.65,6.05,1.57,9.09,0,3.61-1.87,7.35-2.14,11.16-.7.34.13.74.61.77.96.1,1.13.04,2.28.04,3.34Z"/>
      <text class="cls-5" transform="translate(6.77 50.41)"><tspan x="0" y="0">S</tspan><tspan class="cls-7" x="7.5" y="0">TA</tspan><tspan x="18.88" y="0">TIC</tspan><tspan class="cls-1" x="-6.77" y="7.15">F</tspan><tspan class="cls-6" x="-1.27" y="7.15">A</tspan><tspan class="cls-4" x="5.87" y="7.15">C</tspan><tspan class="cls-3" x="13.37" y="7.15">T</tspan><tspan x="20.01" y="7.15">O</tspan><tspan class="cls-2" x="28.03" y="7.15">R</tspan><tspan x="34.64" y="7.15">Y</tspan></text>
    </g>
  </g>
</svg>