<?xml version="1.0" encoding="UTF-8"?>
<svg id="Layer_2" data-name="Layer 2" xmlns="http://www.w3.org/2000/svg" viewBox="0 0 47.23 44.05">
  <defs>
    <style>
      .cls-1 {
        fill: #fff;
      }
    </style>
  </defs>
  <g id="Layer_1-2" data-name="Layer 1">
    <path class="cls-1" d="m40.19,43.69c-.71-.38-1.33-.77-2-1.04-.23-.1-.57.06-.86.12-.06.01-.11.11-.17.16-1.21,1.04-1.38,1.03-2.39-.15-.2-.23-.44-.42-.71-.67-.81.63-1.6,1.25-2.34,1.83-.16-.07-.21-.08-.25-.12-.55-.56-.79-1.57-1.91-1.34-.79.16-1.59.27-2.38.43-.21.04-.41.16-.72.29-.02-.84.16-1.44.86-1.81,1.24-.66,1.48-1.13,1.03-2.5-.82-2.5-1.72-4.97-2.58-7.46-.29-.85-.56-1.7-.84-2.55-.06-.19-.1-.44-.24-.56-.39-.33-.8-.77-1.26-.85-.25-.04-.76.49-.91.86-.53,1.33-.97,2.69-1.42,4.05-.63,1.88-1.3,3.76-1.86,5.66-.26.89-.31,1.84-.45,2.77,1.16.45,2.27.78,2.18,2.31-.2-.05-.38-.09-.56-.14-.48-.12-.97-.23-1.45-.36-1.37-.39-2.45-.08-3.1,1.44-.89-.7-1.68-1.32-2.53-1.98-.39.44-.78.8-1.08,1.24-.35.5-.72.49-1.17.2-.19-.13-.42-.23-.56-.4-.65-.8-1.32-.61-2.04-.1-.33.23-.7.39-1.17.65-.12-.7-.16-1.19.23-1.83.47-.79,1.27-.97,1.88-1.47.56-.46,1.2-.88,1.22-1.78.01-.42.31-.85.54-1.24,2.05-3.64,3.38-7.54,4.32-11.59.23-.98.13-1.9-.83-2.55-.62-.41-1.24-.41-1.67.19-.56.78-.94,1.63-.79,2.65.12.83.2,1.68.21,2.52,0,.28-.23.57-.36.85-.25-.18-.64-.31-.74-.56-.48-1.2-.89-2.43-1.29-3.66-.16-.5-.16-1.23-.79-1.22-.27,0-.63.74-.75,1.19-.52,1.98-.27,3.98-.12,5.98.03.42-.12.85-.19,1.28-.34-.26-.76-.47-1.01-.8-1.06-1.39-1.14-3.13-1.63-4.73-.16-.51-.25-1.06-.5-1.52-.32-.58-.71-.53-.98.08-.8,1.78-.89,3.66-.81,5.57.09,2.1.34,4.16.97,6.18.17.56.41,1.35-.3,1.61-.26.09-.93-.58-1.23-1.03-1.23-1.87-1.49-4.04-1.92-6.18C.11,28.31-.1,24.99.04,21.66c.09-2.03.55-4.03,1.11-6.02.53-1.86,1.26-3.54,2.37-5.09.79-1.11,1.9-1.82,3.18-2.17.24-.07.82.42.95.77.27.71.38,1.48.48,2.24.35,2.75,1.35,5.17,3.17,7.33,1.09,1.3,2.33,1.68,3.86,1.64.73-.02,1.35-.66,1.33-1.44-.01-.58-.08-1.18-.26-1.73-.87-2.67-1.78-5.33-2.68-7.99-.03-.1-.08-.19-.11-.29-.55-1.81-1.71-2.8-3.66-2.91-1.28-.08-1.27-.17-1.62-1.44-.19-.71-.42-1.41-.67-2.27.71.04,1.3.05,1.9.11,1.8.18,3.6.33,5.38.6,1.34.2,2.07-.48,2.74-1.48.34-.51.83-.94,1.28-1.37.12-.11.35-.1.6-.17-.19.85-.37,1.58-.51,2.32-.17.96-.02,1.16.95,1.27.73.08,1.46.12,2.18.18.04.07.08.15.12.22-.53.33-1.02.76-1.59.98-.79.31-.92.85-.72,1.52.55,1.8,1.13,3.6,1.74,5.39.43,1.26.91,2.5,1.41,3.73.12.3.44.51.66.76.23-.25.56-.45.68-.75.71-1.75,1.36-3.52,2.04-5.28.53-1.36,1.05-2.72,1.61-4.06.23-.56.09-.89-.5-.84-.75.07-1.17-.34-1.73-1.03,1.18-.17,2.23-.33,3.33-.49.33-1.2-.65-1.95-1.26-3.04.41.1.7.1.91.23.91.53,2.01.79,2.51,1.88.06.14.39.25.58.23,1.07-.08,2.14-.18,3.2-.32,1.44-.19,2.88-.42,4.31-.66.5-.09.69.1.65.55-.09.84-.19,1.68-.34,2.51-.03.16-.26.34-.44.4-1.25.37-2.51.7-3.75,1.08-.23.07-.48.31-.57.53-1.04,2.63-2.05,5.28-3.07,7.92-.34.88-.8,1.73-1.07,2.63-.44,1.48,0,2.42.98,2.55.66.08,1.38-.06,2.03-.24,1.8-.49,2.62-2.03,3.47-3.48,1.22-2.09,1.62-4.49,2.46-6.73.27-.72.53-1.54,1.38-1.67.88-.14,1.57.39,2.12,1.07,1.58,1.98,2.5,4.26,3.12,6.68.35,1.38.65,2.78.9,4.19.09.53-.07,1.11-.07,1.66-.03,2.02-.03,4.03-.06,6.05-.04,3.19-.99,6.17-2.11,9.11-.19.49-.6.96-1.03,1.27-.67.48-1.19.18-1.09-.64.16-1.3.48-2.58.66-3.89.19-1.43.31-2.86.41-4.3.05-.66.03-1.33-.06-1.98-.1-.74-.3-1.47-.5-2.2-.03-.1-.3-.12-.54-.21-.51,1.49-.97,2.94-1.52,4.36-.32.83-.76,1.62-1.21,2.38-.18.29-.55.47-.83.7-.09-.03-.19-.05-.28-.08-.05-.42-.15-.85-.13-1.27.06-1.53.19-3.06.24-4.6.02-.55-.07-1.13-.2-1.67-.06-.25-.36-.63-.53-.62-.3.02-.71.23-.83.48-.36.76-.56,1.59-.89,2.36-.25.58-.58,1.14-.91,1.68-.1.16-.36.22-.55.33-.08-.19-.24-.38-.24-.57.02-.58.02-1.19.17-1.75.28-1.06,0-2.06-.26-3.04-.26-.95-.96-1.16-1.84-.69-.86.45-1.37,1.05-1.32,2.16.07,1.31.38,2.53.88,3.71,1.02,2.4,2.06,4.79,3.11,7.17.27.62.62,1.21.89,1.83.12.28.08.66.24.9.34.52.75,1.01,1.18,1.46.22.23.56.35.85.5,1.14.58,1.56,1.41,1.37,2.86ZM16.3,6.99c.49-.06.94-.24.93-.91,0-.53-.49-.95-1.05-.97-.66-.03-.85.42-.87.92-.02.59.29.95.99.96Zm15.4,0c.43,0,.81-.26.81-.85,0-.61-.39-.95-.97-.97-.56-.02-.92.29-.94.88-.01.62.33.93,1.09.94Z"/>
  </g>
</svg>