<?xml version="1.0" encoding="UTF-8"?>
<svg id="Layer_2" data-name="Layer 2" xmlns="http://www.w3.org/2000/svg" viewBox="0 0 78.95 51.82">
  <defs>
    <style>
      .cls-1 {
        fill: #fff;
      }
    </style>
  </defs>
  <g id="Layer_1-2" data-name="Layer 1">
    <path class="cls-1" d="m21.85,43.33c.17-.22.34-.44.5-.66.1-.14.19-.27.26-.42.27-.6.5-1.21.8-1.79.37-.74.78-1.46,1.18-2.18.3-.55.03-.85-.45-1.07-.1-.04-.2-.09-.29-.15-1.01-.72-1.66-.41-2.21.72-.63,1.31-1.29,2.61-2.77,3.34-.85.42-1.47,1.32-2.22,1.97-.18.15-.49.17-.74.21-.49.08-1.09-.13-1.23.68-.03.16-.55.17-.73.37-.46.51-.98,1.03-1.26,1.65-.55,1.22-1.71,1.69-2.68,2.39-.08.06-.38-.03-.44-.13-.07-.14-.07-.38.01-.52.19-.3.44-.56.79-.99-1.06-.41-2.14.02-3.09-.33.2-.81.65-1.08,1.36-1,.46.05.95-.1,1.42-.13.34-.02.69,0,1.11,0,.04-.11.14-.35.23-.59.08,0,.16,0,.23,0,.03.31.05.61.09,1.07.16-.14.41-.29.39-.36-.3-.9.14-1.43.9-1.88.12.1.28.22.27.21.33-.41.64-.82.99-1.21.28-.31.57-.61.9-.85.88-.64,1.78-1.26,2.69-1.86.67-.45,1.03-1.74.66-2.5-.05-.1-.15-.19-.15-.29,0-1.28-.16-2.58.06-3.82.15-.85-.28-1.03-.77-1.11-.8-.13-1.06-.69-1.42-1.26-.32-.52-.75-.96-1.17-1.49.09-.14.22-.37.41-.68-.99-1.86-1.99-3.74-2.99-5.62.02,0,.05-.02.07-.03-.47-.88-.88-1.79-1.41-2.64-.76-1.22-1.44-2.56-2.46-3.52-.8-.75-1.85-1.43-3.03-1.63-.17-.03-.36.18-.55.19-1.33.08-2.47.4-3.21,1.69-.15.26-.42.53-.58.85-.07.15-.52.3-.58.24-.29-.33-.68-.7-.73-1.09-.06-.5.24-1.03.26-1.55.06-1.41.64-2.47,1.8-3.31,1.08-.79,2.15-1.52,3.38-2.11.54-.26,1.27-.79,1.6-1.7.49-1.36,1.47-2.54,2.25-3.79.57-.91,1.17-1.81,1.73-2.73.33-.53.57-1.13.94-1.62.16-.21.56-.22.85-.33.13.37.46.82.35,1.09-.73,1.91-1.51,3.8-1.95,5.8-.13.57-.3,1.14-.47,1.77.83.29,1.4-.28,2.01-.52,1.73-.68,2.89-2.05,4.04-3.43.31-.37.75-.62,1.14-.92.29-.22.58-.46.9-.65.18-.11.41-.21.62-.2.08,0,.17.3.23.47.33,1.12-.62,1.68-1.09,2.43-.4.64-.98,1.18-1.33,1.84-.62,1.17-1.12,2.4-1.69,3.59-.11.22-.32.39-.38.46.4.48.77.93,1.18,1.42.29-.07.71-.16,1.26-.29-.56,1.21-.67,2.25.5,2.93.65-.42,1.3-.85,2.06-1.35.16.94-.05,1.41-.87,1.71-.43.16-.7.73-.99,1.06.27.63.51,1.19.75,1.75.7-.3,1.36-.58,2.03-.87.07.09.14.19.21.28-.23.32-.41.69-.69.95-.91.86-.92.94-.1,1.88.64.73.78.67,1.22-.19.17-.32.65-.48.99-.72.07.06.14.11.21.17-.22.63-.44,1.25-.69,1.99.31.72,1.8,1.7,2.58,1.54.2-.04.34-.33.51-.51.36-.38.71-.76,1.07-1.13.62-.65,1.33-1.25,1.84-1.98.25-.36.21-.98.18-1.47-.04-.85-.18-1.7-.28-2.6.28-.09.56-.18.81-.26.54.7.33,1.97,1.53,1.96.45-.65.86-1.26,1.36-1.98-.13-.72.14-1.51.83-2.23.16.19.3.35.47.56-.15.09-.3.17-.39.22.09.27.18.56.35,1.08.55-.23,1.16-.5,1.78-.75.05-.02.11-.04.16-.04,1.01.1,1.03-.66,1.22-1.33.19-.67.48-1.31.72-1.92.28.09.56.18.73.24.05.78.1,1.57.16,2.5.94-.13,1.79-.09,2.47-.41.62-.29,1.06-.98,1.65-1.56.19.18.62.42.79.78.16.34.03.81.03,1.29.62.36,1.31.76,2.12,1.23.6-.87,1.23-1.76,1.88-2.69.88.6.41,1.26.3,1.86-.04.21-.16.4-.27.59-.36.6-.2,1.18.35,1.44.52.24,1.17.2,1.76.26,0,0,0-.19.05-.26.43-.64.86-1.28,1.43-2.11.25.6.39.94.52,1.25-1.09.41-.55,1.57-1.13,2.16.9.5.83.66,2.26-1.48.85.93,0,1.66-.33,2.57.4-.1.7-.17,1.11-.27-.2-.18-.31-.28-.32-.3.3-.49.61-.95.85-1.43.27-.55.44-1.14.72-1.68.24-.45.6-.82.88-1.25.11-.17.14-.4.18-.6.02-.11-.09-.31-.05-.34.95-.6.19-1.24.09-1.77.26-.6.5-1.12.8-1.8.32.39.56.68.84,1.02.59,0,1.24-.05,1.61-.75.15-.29.31-.58.42-.88.13-.37.21-.76.32-1.14.01-.05.11-.11.1-.13-.56-.83.3-1.08.67-1.52.22.12.49.27.84.46.12.41.27.93.44,1.54.61-.26,1.5-.16,1.71-1.31.06-.31.09-.68.18-.95.19-.59.66-1.1,1.09-1.57.05-.06.69.21.79.44.28.64.41,1.34.64,2.15-.16-.07-.11-.04-.06-.03,1.66.36,2.01-1.15,2.83-1.98.22-.22.46-.43.63-.58.91.33.91,1.01.89,1.67-.05,1.18.04,1.28,1.1,1.05-.05.09-.1.17-.14.25,1.29-.14,1.91-1.68,3.44-1.41-.2.23-.34.4-.54.63.18.14.35.27.44.34-.28.59-.52,1.11-.77,1.63q.75.79,2.49-.4c.13.62.24,1.14.3,1.43-.31.32-.51.46-.6.65-.04.1.15.43.2.42.74-.12.51.59.76.88.22.26.34.61.5.89.56-.54,1.02-1,1.51-1.42.03-.02.39.2.4.32.03.45-.02.86-.49,1.17-.41.27-.86.69-.98,1.13-.11.39.22.89.37,1.41.23-.16.36-.29.52-.34.13-.04.31-.02.43.05.05.03.01.25-.02.38-.13.61-.72,1.07-.43,1.83.22.58.22,1.25.35,2.05-.13.38-.33.93-.56,1.58.03.02.25.17.43.29-.76,1.73-1.53,3.46-2.31,5.25.35.22.8.51-.1.85-.3.11-.54.44-.75.71-.44.56-.84,1.15-1.3,1.79,1.26.34,2.58.71,3.9,1.07,0,.11.02.22.02.32-.29.05-.58.11-.87.15-.94.12-1.88.23-2.82.33-.62.07-.85.44-.81.99-2.66-.48-5.3.09-7.98-.07.05-.06.11-.09.13-.15.65-1.58,2.27-2.55,2.73-4.23.22-.82.28-1.68.45-2.51.05-.25.23-.47.38-.75.36.22.55.87.99.3.16.15.48.34.46.44-.29,1.01-.28,2.12-1.01,3-.23.27-.22.75-.32,1.16,1.69-.5,2.93-1.59,4.01-2.81.77-.88,1.46-1.93,1.63-3.14.13-.94.06-1.9.08-2.85,0-.27.04-.55.02-.82-.06-.67-.13-1.34-.23-2-.11-.75-.11-1.57-.43-2.22-.34-.7-1-1.24-1.53-1.85-.16-.18-.37-.31-.52-.49-.89-1.13-2.17-1.07-3.36-.93-1.41.16-2.64.83-3.62,1.91-.17.19-.47.27-.76.42.09.15.18.29.18.29-.35.69-1.37.67-1.26,1.68.03.24-.23.53-.39.78-.79,1.27-1.03,2.68-1.3,4.13-.15.81-.52,1.69-.89,2.51-.43.95-.76,1.95-1.18,3.04-.79.03-.78.82-.75,1.42.06.95.37,1.87.48,2.82.11.96.11,1.93.13,2.89.02.54-.06,1.09.02,1.62.03.19.34.42.57.48.56.15,1.14.22,1.72.32.25.65.58,1.34.78,2.06.13.46-.03,1,.13,1.44.27.77.71,1.47,1.03,2.22.32.77.61,1.56.85,2.36.04.12-.26.35-.34.44-.09.44-.16.84-.24,1.24-.29-.09-.58-.18-.98-.3-.06.06-.22.23-.57.6v-2.59c-.57.59-1.08,1.11-1.59,1.64-.32.33-.6.71-.95,1.01-.25.21-.58.31-1.03.53.11-.86.28-1.32.89-1.65.44-.24.66-.83,1.05-1.19.9-.84.91-1.12.31-2.28-.32-.62-.42-1.37-.62-2.06-.13-.44-.27-.89-.39-1.28.27-.26.49-.46.65-.61-.98-.06-1.93-.11-2.89-.2-.63-.06-1.28-.1-1.89-.26-.93-.24-1.59-.86-2.22-1.58-1.03-1.17-2.16-2.26-3.29-3.34-.16-.15-.67-.21-.76-.1-.38.45-.67.97-.96,1.48-.14.25-.23.55-.25.84-.02.43-.02.87.1,1.28.12.42.38.81.67,1.14.18.24.46.45.53.71.12.5.17,1.03.16,1.54-.01.79-.79.97-1.25,1.38-.54.48-1.15.91-1.76,1.3-.26.17-.62.18-.78.23-1.19,1.11-2.31,2.16-3.52,3.29-.28-.14-.63-.33-1.03-.53.2-.15.33-.24.41-.3-.49-.36-.94-.81-1.48-1.05-.44-.2-.62-.46-.38-.78.17-.22.68-.42.91-.33.95.42,1.85.32,2.58-.31.8-.7,1.8-1.26,1.9-2.56.03-.39.67-.7.88-1.12.17-.33.11-.78.15-1.18-.42.08-.32-.56-.83-.55-.29,0-.69-.54-.86-.91-.18-.38-.14-.85-.2-1.29-.04-.32-.13-.63-.12-.95,0-.35.18-.71.14-1.05-.13-1.1-.3-2.2-.53-3.28-.06-.28-.35-.6-.61-.73-.75-.37-1.54-.65-2.27-.95-.74.4-1.47.74-2.15,1.16-1.42.87-2.97,1.55-4.24,2.65-.7.6-1.18,1.57-1.96,1.95-.93.46-1.49,1.44-2.59,1.64-.29.05-.48.53-.77.74-.71.52-1.55.91-2.15,1.54-.58.6-.88,1.46-1.37,2.16-.34.48-.87.84-1.16,1.34-.53.91-.94,1.89-1.41,2.83-.26.51-.53,1.02-.81,1.52-.05.09-.12.19-.21.23-.33.17-.86.24-.98.5-.3.65-.53,1.38-.56,2.09-.03.74.23,1.49.29,2.24.02.23-.19.5-.34.72-.05.08-.3.13-.35.08-.1-.09-.16-.26-.19-.41-.14-.61-.26-1.21-.41-1.91-.82.77-1.45,1.38-2.19,2.08-.39-1.27.85-1.76.87-2.73h-.95c.02.14.04.27.07.42-.66,0-1.31.05-1.94-.03-.25-.03-.47-.36-.76-.62.46-.19.79-.36,1.14-.47.48-.16.92-.7,1.52-.17.09.08.54-.26.83-.38.15-.06.32-.06.48-.08.61-.06,1.14-.09,1.1-.98-.02-.43.32-.88.56-1.3.26-.45.76-.79.54-1.43-.01-.03.34-.18.53-.28-.04-.06-.08-.12-.12-.18Zm6.5-13.99c.49.45.88.44,1.26.02.2-.23.41-.47.65-.65.45-.32.93-.62,1.42-.89.19-.1.44-.09.64-.17.1-.04.19-.15.26-.25.06-.08.07-.26.12-.26.3-.03.64.06.9-.05.92-.4,1.94-.48,2.88-.79,1.43-.46,2.02-1.6,2.88-2.47.6-.61,1.05-1.43,1.73-2.01,1-.84,2.06-1.61,3.1-2.42-.03-.12-.05-.25-.08-.37-.27,0-.57-.08-.81,0-.46.14-.88.49-1.34.53-1.39.13-2.79,0-4.16.4-1.03.31-2.13.41-3.11.82-1.6.66-2.6,2.01-3.05,3.62-.31,1.12-.81,2.07-1.44,2.99-.12.18-.49.35-.47.43.31.93-.45.25-.49.53-.29.32-.59.65-.9.99Zm19.78,11.42l.21.34c.37-.23.73-.46,1.17-.73-.06-.09-.16-.24-.26-.38-.38.26-.75.52-1.13.77Z"/>
    <path class="cls-1" d="m36.53,24.8c-1.8-.22-2.37-1.2-1.64-2.77.3-.63,1.12-.81,1.85-.79.7.02,1.04.56,1.23,1.13.32.95-.58,2.41-1.44,2.43Z"/>
  </g>
</svg>