<?xml version="1.0" encoding="UTF-8"?>
<svg id="Layer_2" data-name="Layer 2" xmlns="http://www.w3.org/2000/svg" viewBox="0 0 277.92 217.33">
  <g id="Layer_1-2" data-name="Layer 1">
    <path d="m277.92,158.36c-15.32,4.39-30.57,8.76-45.78,13.11-53.57,15.34-106.61,30.53-160.12,45.86.67-11.3,1.3-21.97,1.97-33.31-24.9,7.09-49,13.95-73.99,21.06.46-8.78.88-16.69,1.3-24.6.88-16.3,1.81-32.59,2.63-48.89,1.04-20.65,2.01-41.31,3.08-61.96.4-7.95.83-15.91,1.27-23.86.08-1.53,2.04-3.82,3.56-4.26,28.45-8.29,56.97-16.34,85.47-24.46,9.77-2.79,19.52-5.63,29.28-8.43,1.4-.4,2.83-.7,5.12-1.25-.53,11.25-1.03,21.62-1.57,33.08C177.98,26.75,224.63,13.38,271.31,0c-8.39,11.33-16.77,22.65-25.17,34-15.27,20.63-30.59,41.33-46.07,62.23.68.54,1.35,1.08,2.03,1.62,25.05,19.98,49.94,39.85,75.82,60.51Z"/>
  </g>
</svg>